<?xml version="1.0" standalone="no"?>
<!DOCTYPE svg PUBLIC "-//W3C//DTD SVG 1.1//EN" "http://www.w3.org/Graphics/SVG/1.1/DTD/svg11.dtd" >
<svg xmlns="http://www.w3.org/2000/svg">
<metadata></metadata>
<defs>
<font id="halloween_trickregular" horiz-adv-x="682" >
<font-face units-per-em="2048" ascent="1536" descent="-512" />
<missing-glyph horiz-adv-x="500" />
<glyph horiz-adv-x="0" />
<glyph />
<glyph unicode="@" horiz-adv-x="1490" d="M1341 559q16 6 38 8t40.5 -2t32.5 -16t14 -35q2 -41 -34.5 -55.5t-73.5 -12.5q-27 -41 -91.5 -50t-121.5 7h-2q2 0 2 -2q6 -29 6 -53q18 2 36.5 3t39.5 5q16 2 16 -16t-16 -21q-20 -4 -39 -5t-37 -3q-8 -113 -80 -200.5t-188 -114.5q-49 -12 -109.5 -13t-120 11 t-109.5 39.5t-79 75.5q-4 6 7 10t15 0q27 -43 73 -69.5t100.5 -39t109.5 -13.5t102 9q113 23 180.5 108t73.5 193q-25 -2 -48 -4t-48 -6l19 -111q2 -16 -16.5 -21t-20.5 11q-4 29 -8.5 57.5t-8.5 57.5q-2 0 -2 2q-14 -2 -28.5 -3t-30.5 -3q2 0 4 -1t4 -1q20 -8 29.5 -23.5 t12.5 -34t3 -38t2 -37.5q2 -10 -5 -14.5t-17 -2.5q-27 -14 -58.5 -12t-48.5 31q-12 20 -4 38.5t25 30.5q29 23 61 17q0 4 -4 4q-18 14 -37 8q-6 -4 -14 -7t-8 -12q-2 -18 -20.5 -18t-16.5 18q0 16 9 27.5t23 20.5q-8 -2 -16 -2t-16 -3q-18 -2 -18.5 16.5t18.5 20.5 q72 8 142.5 15.5t141.5 15.5q0 12 -1 24.5t-3 22.5q-18 -2 -32 6q-10 10 -15 25q0 10 2 16l-2 2q-25 20 -20 49q-16 -16 -30.5 -34.5t-31.5 -34.5q6 -4 11.5 -8t11.5 -9q10 -10 21.5 -17t21.5 -17q6 -6 6 -12.5t-5 -11.5t-13.5 -6t-14.5 5q-10 8 -19 15.5t-20 13.5 q-4 4 -9 7t-9 7h-2q2 -4 2 -10q2 -10 -3 -16.5t-11.5 -7.5t-12.5 1t-8 13l-25 141q-2 8 3.5 14t11.5 7t12 -2t8 -11q4 -18 7.5 -36.5t7.5 -37.5q16 20 33.5 40t35.5 40q10 8 19.5 4t11.5 -14q4 4 10 9t15 9q-23 53 -65 94.5t-95 63.5q-29 12 -68 23.5t-79 16.5t-77.5 -1 t-66.5 -27q8 -6 12 -16q37 -4 54.5 -22.5t17.5 -42t-18.5 -43t-55.5 -21.5q-43 -4 -96 -6t-98 14q-27 -43 -38 -92t-7 -100q55 0 110 -13q20 18 41 21q-2 16 -2 31.5t-2 31.5q-10 -2 -21.5 -3t-21.5 -5q-16 -4 -21.5 13.5t11.5 21.5q96 23 193.5 32t193.5 21q18 2 18 -16.5 t-18 -20.5q-74 -10 -148.5 -17t-148.5 -19q0 -18 1 -38t3 -38l2 -2q12 -8 18 -23v8v9q-2 16 -3 31.5t-5 31.5q-2 14 8.5 20.5t20.5 2.5q27 16 59 -5q25 -20 21 -43.5t-21 -40.5q4 -4 13 -16q20 -20 42.5 -20t47.5 10q8 4 15 1t10 -9t2 -13.5t-9 -9.5q-25 -12 -54.5 -16 t-53.5 12q-10 6 -22.5 21.5t-24.5 25.5q-6 0 -9 2v-16q-2 -14 -14 -17.5t-18 7.5q-2 -4 -2 -6.5t-3 -6.5q2 -4 4.5 -5t4.5 -5l55 6q18 2 18 -16.5t-18 -20.5q-6 0 -13 -1t-14 -1q16 0 39 -14q25 -16 19 -40t-23 -40l8 -12t9 -10q18 -27 43.5 -38.5t56.5 3.5q16 6 25.5 -9.5 t-7.5 -23.5q-29 -12 -58.5 -11t-55.5 21q-10 8 -18.5 18.5t-16.5 20.5q-4 4 -9 11.5t-10 13.5q-8 0 -10 2v-15q-2 -16 -19.5 -17t-17.5 17v17v10q-4 -2 -5 -3t-5 -3v-25q2 -16 -16.5 -16t-20.5 16v11q-23 -6 -48.5 -6.5t-47.5 10.5q-23 -25 -54.5 -42.5t-66.5 -21.5t-67.5 3 t-59.5 32q-25 -12 -57.5 -15t-62 3t-51 25.5t-23.5 54.5q-2 31 14 51t40.5 32.5t54.5 15.5t59 1q14 23 36.5 37t49 22t54 11.5t52.5 5.5q-4 111 51 200q-18 10 -39 31q-14 -6 -32.5 -10t-35 -4t-30.5 6t-20 22q-8 16 -3 28.5t15 19t25.5 8.5t29.5 0q41 39 86 50t100 7 q23 -2 48.5 -5t46.5 -13q59 39 134 32.5t138 -24.5q70 -23 127 -67t84 -111q39 10 70 0q31 33 78.5 40t82.5 -22zM645 201h8q6 0 11 -4q2 0 4 1t4 11q4 23 -17 22q-4 -16 -10 -24v-2v-4zM653 389h9q4 0 12 -4q0 4 3 5t3 9q6 16 -10 21q-12 4 -13.5 -6.5t-3.5 -20.5v-4z M627 264q-8 0 -15.5 -1t-15.5 -1v-2q2 -20 2 -39.5t2 -42.5q2 4 4 5t4 3v9q0 23 -6 45q-2 12 7 18t18 4v2zM510 342q-53 12 -115 16h-4q-55 0 -105 -13t-73 -54q10 0 23 -4q8 -4 -3.5 -9.5t-15.5 -3.5t-10 3.5t-10 3.5h-7q-23 4 -44 4t-42 -11q-25 -10 -44 -34.5t-9 -53.5 q6 -25 24.5 -39t42 -20t48 -3t45.5 13l-6 6q-4 6 7 10.5t15 -1.5q20 -27 51 -38.5t62 -8t60.5 18.5t50.5 40q-12 8 -17 12q-6 6 5.5 10t15.5 0q20 -18 50 -24t58 0q-2 25 -2 48t-2 48q-18 -2 -37.5 -4t-38.5 -4q-18 -2 -18 16.5t18 20.5q25 2 48.5 4t48.5 6l4 4q14 6 14 21 q-6 -10 -19.5 -7.5t-15.5 17.5v16t-2 17q-10 0 -19.5 -9.5t-13.5 -19.5q0 -4 -4 -4q-6 -4 -13 -4t-5 6q0 4 4 8zM653 645q-2 -6 -13 -7t-9 3q6 35 -15 51q-6 0 -6 4q-12 10 -30.5 14.5t-36.5 6.5q-51 4 -96.5 -3t-84.5 -48h3q8 -4 -2.5 -10.5t-16.5 -2.5q-8 4 -21.5 6.5 t-21.5 -6.5q-8 -8 -5 -20t11 -19q14 -14 38 -12t42 10q-2 2 -3 4t-3 5q-4 4 7 8t16 -2q6 -6 8 -11q8 0 4 -4q29 -33 69.5 -41t81.5 -8h42t40 4q68 25 49 68q-14 29 -45 35q0 -15 -2 -25zM952 170q2 8 2 29q-14 4 -26.5 5t-24.5 -9q-8 -6 -12 -14.5t8 -14.5q28 -14 53 4z M1343 463q12 -4 32 -4t37.5 6t26.5 18.5t3 34.5q-8 29 -38 36t-54 -5l2 -2q4 -4 -7.5 -8t-15.5 0q-27 33 -67.5 29.5t-67.5 -33.5q4 -2 10 -9q6 -6 -5 -10t-15 0q-14 12 -35 15.5t-37 -3.5q-2 -2 -4 -2t-6 -2q-14 -8 -21 -22q-6 -16 -2 -28.5t15 -22.5q10 4 16 2 q4 -2 2 -5.5t-4 -5.5q-10 -4 -8 -13t8 -17q8 -10 15 -5t12 15q4 4 6 4q6 4 13 3t5 -5q0 -2 -2 -4q20 -6 47 -8t52.5 0t47 10t33.5 27q-4 2 -6 2t-6 2q-8 2 3 7t15 3zM827 195q-6 -10 -28.5 -20.5t-40.5 -8.5q0 -4 2 -4q10 -16 30.5 -10t32.5 12q16 8 25.5 -8.5t-6.5 -24.5 q-31 -12 -67 -14t-52 35q-12 29 -8 61.5t37 46.5q16 8 36.5 7t34.5 -15q24 -24 4 -57zM780 205q4 2 11.5 5t7.5 9q2 6 -5.5 9t-16.5 1t-17 -7t-10 -15q12 0 14 -4h4q4 0 6 1t6 1zM733 438q-2 16 16.5 16.5t20.5 -16.5q2 -20 2 -38.5t2 -39.5q2 -16 -16.5 -16t-20.5 16 q-2 20 -2 39t-2 39zM741 578q10 0 14.5 -6.5t4.5 -12.5q2 -8 2 -14t2 -13q0 -8 -6 -13t-13 -5q-18 0 -18 18q-2 6 -2 12.5t-2 14.5q0 6 6 12.5t12 6.5zM887 444q-25 4 -43.5 -10t-9.5 -41q6 -23 29.5 -32t45.5 1q16 8 25.5 -7t-6.5 -23q-39 -20 -80 -3t-51 60 q-8 41 20.5 68.5t69.5 23.5q16 -2 16 -20.5t-16 -16.5z" />
<glyph unicode="A" horiz-adv-x="663" d="M586 641q23 -78 -3 -143.5t-91 -106.5q16 -4 34.5 -11t33.5 -17.5t22.5 -24.5t1.5 -33q-12 -39 -56 -33q-10 2 -19 8.5t-20 12.5q-6 -31 -19 -57.5t-28 -55.5q-14 -31 -18 -59.5t22 -54.5q6 -4 15.5 -11.5t11.5 -17.5q6 -29 -20.5 -34t-46.5 -1q-53 12 -101.5 40 t-84.5 68t-54.5 91t-11.5 108q-16 -10 -30.5 -20t-33.5 -17q-18 -4 -32.5 6.5t-16.5 30.5q0 20 11 34.5t29.5 24t39 15.5t37.5 12q-27 18 -45.5 48t-27.5 64t-10 67.5t9 64.5q29 86 98.5 127t155.5 41q39 0 78 -11.5t72.5 -33t59.5 -52t38 -69.5zM467 395q78 45 95.5 115 t-9.5 133.5t-89.5 107.5t-146.5 40q-39 -2 -76.5 -16.5t-68.5 -40t-51.5 -60.5t-20.5 -78q-2 -57 20.5 -115.5t78.5 -85.5q8 -4 -2.5 -11t-16.5 -3q-8 4 -12 8q-4 -4 -6 -4q-12 -4 -27.5 -8t-30 -10.5t-25.5 -16.5t-13 -24q-2 -8 0 -18.5t8 -16.5q12 -12 30 2q12 6 22.5 14 t23.5 15h6q4 6 13 6t9 -6q-6 -51 7.5 -98.5t41 -85.5t68.5 -66.5t88 -44.5q10 -4 22.5 -7.5t22.5 -3.5q18 -2 20.5 4.5t-3 13.5t-12.5 14t-7 9q-2 2 -4 3t-4 3q4 -20 0 -30q-10 8 -13.5 22.5t-1.5 30.5q-6 12 -4 25q2 27 13.5 51t22.5 47.5t20.5 47.5t11.5 52q-2 0 -6 4 q-8 4 3 8.5t15 2.5q14 -6 25.5 -16.5t25.5 -16.5q10 -4 16.5 -5t10.5 11q8 20 0 33q-10 23 -34.5 33t-49.5 16q-2 0 -3 -1t-3 -1q-8 -4 -14.5 0t2.5 10q0 4 12 8zM463 504q2 4 13 5t7 -3q-31 -37 -72.5 -54.5t-85.5 -17.5t-86 17.5t-75 52.5q-4 4 6 8t14 0q29 -29 65 -46 t74.5 -20.5t74.5 10t65 48.5zM262 539q-18 -10 -29.5 -1t-15.5 27.5t-1 39t13 32.5l-12 -27q20 31 36.5 27t24 -22.5t4 -43t-19.5 -32.5zM252 588q-14 0 -14 -25t14 -24q14 0 14 24q0 25 -14 25zM432 539q-20 -10 -31.5 0t-15.5 27.5t-1 38t13 32.5l-10 -27q20 31 36.5 27 t24 -23.5t5 -43t-20.5 -31.5zM418 588q-14 0 -15 -25q0 -25 15 -24q14 0 14 24q0 25 -14 25z" />
<glyph unicode="B" horiz-adv-x="638" d="M582 655q25 -78 -2 -142t-91 -105q14 -6 33 -12.5t34 -16.5t22.5 -24.5t1.5 -32.5t-20.5 -27.5t-33.5 -5.5q-12 2 -21 7t-20 13q-4 -31 -18 -57.5t-29 -54.5q-12 -31 -17 -61t23 -54q4 -4 13.5 -12.5t13.5 -16.5q6 -29 -21.5 -34t-48.5 -1q-53 12 -101 40t-84 68 t-54.5 90t-11.5 108q-16 -10 -31 -20.5t-31 -14.5q-20 -6 -34.5 4t-14.5 33q0 20 11 34.5t28.5 23.5t38 15.5t37.5 12.5q-27 18 -45.5 47.5t-27.5 62.5t-10 68t9 63q29 86 99.5 127t154.5 41q39 0 78 -10t72.5 -31.5t59.5 -53.5t38 -71zM463 412q78 45 95 114.5t-8.5 133 t-89 106.5t-147.5 39q-39 -2 -76.5 -16.5t-68.5 -39t-50.5 -59.5t-21.5 -78q-2 -57 20.5 -115.5t78.5 -86.5q8 -4 -2.5 -10.5t-16.5 -2.5l-12 6q-2 0 -3 -1t-3 -1q-12 -4 -27.5 -8t-30 -10t-26 -16.5t-13.5 -24.5q0 -10 2.5 -19.5t8.5 -17.5q8 -8 14 -5t16 7q10 8 20.5 16.5 t22.5 12.5q2 2 9 2q4 4 13 5t7 -7q-12 -104 49.5 -183t157.5 -110q10 -4 21.5 -7t21.5 -5q18 0 20 5t-2 13t-12 15l-8 8q-10 12 -19.5 24.5t-7.5 28.5q2 27 13.5 51.5t22.5 48t21.5 48t10.5 51.5q-4 4 -6 4q-8 4 3 9t15 3q14 -8 26.5 -17.5t26.5 -17.5q8 -4 14.5 -4t10.5 10 q8 18 2 33q-10 23 -35.5 34t-48.5 17q-2 0 -6 -4q-10 -4 -15.5 1t1.5 11q4 5 12 9zM469 489q4 4 15.5 5.5t7.5 -2.5q-18 -18 -39 -18.5t-43 7.5l-2 2l-25.5 8.5t-26.5 8.5q-27 6 -51 -11.5t-53 -21.5q-47 -8 -82 22q-2 2 8 7.5t15 1.5q8 -8 12 -11q6 6 12 11.5t10 11.5 q4 4 11.5 5t11.5 -5t7 -13.5t7 -13.5q20 6 42 16.5t44 12.5q10 2 27.5 -5t34.5 -13q6 6 18 22q2 2 11.5 5t11.5 -3q4 -8 5 -16t3 -17q4 0 8 4zM221 481q12 -4 19 -2q-2 4 -4.5 6t-4.5 7q-4 -7 -10 -11zM428 487q4 -2 8 -2q0 2 -1 4.5t-1 4.5zM236 565q-10 -10 -28 -12 t-24 14q-8 29 11 54q8 8 18 4q2 0 4 2q16 0 23 -11q6 -10 6 -25.5t-10 -25.5zM209 600q-2 -6 -2 -16q0 -4 2 -11.5t8 -1.5q10 12 2 29q0 4 -4 8q-2 -2 -2 -3t-2 -3zM483 565q-10 -10 -27.5 -12t-23.5 14q-10 29 10 54q2 4 7.5 5t9.5 -1q4 0 4 2q16 0 22 -11q6 -10 7 -25.5 t-9 -25.5zM455 600q-2 -6 -2 -16q2 -4 4 -11.5t6 -1.5t5 14.5t-1 14.5l-4 8l-6 -6z" />
<glyph unicode="C" horiz-adv-x="532" d="M205 27q-20 2 -27 22q-14 -8 -24 -2q-16 6 -16.5 21.5t5.5 29.5q-41 18 -61.5 47t-25.5 64t4.5 71.5t29.5 71.5q39 61 103 94l4 5q35 14 43 47.5t12 66.5q0 18 2 38t-2 38q-2 4 -4 11t-2 14q4 18 24 18q4 0 6 -2q-10 16 -22 29.5t-2 33.5q10 23 24.5 45.5t30.5 43.5 q2 2 12.5 5t10.5 -1q2 -16 0 -34t6 -32q4 -10 14 -21.5t12 -21.5q2 -23 -15 -34t-28 -29v-2q12 2 24.5 3t16.5 -1q14 -6 17.5 -19.5t1.5 -25.5q-4 -33 -7 -63t-7 -62q-2 -23 7 -29t19 -14q10 -6 17.5 -11.5t15.5 -13.5h2q0 -2 1 -2t1 -2q37 -37 51.5 -93.5t9.5 -109.5 q-2 -25 -8 -52.5t-17 -49t-30.5 -32.5t-48.5 -1q0 -18 -8 -34.5t-29 -20.5q-25 -2 -41 10q-6 -16 -28 -16q-10 0 -22.5 4t-18.5 14q-15 -18 -33 -16zM272 731q2 -10 8.5 -17t12.5 -16v2q-4 8 -5 14.5t3 16.5q4 4 15 5t7 -7q-6 -10 -1 -17t7 -18v-8q10 10 17.5 21.5 t-0.5 23.5q-8 10 -15.5 21.5t-11.5 23.5v17.5t-2 17.5q-14 -18 -26.5 -41t-8.5 -39zM297 662v6q-2 -2 -6 -2q0 -2 2 -4q0 -2 4 -3v3zM193 426q-16 -16 -13.5 -15t12 5t19.5 4t10 -14q0 -4 -2 -8.5t-2 -8.5q-10 -20 6 -20q0 4 -1 11t1 13q4 23 27 29q14 2 15 -6t11 -15 q-4 4 3.5 8.5t11.5 6.5q10 4 18 -2t13 -17q2 -4 7 -13t3 -11q4 14 0 20t-6 17q0 4 4 5t6 1q18 6 36.5 -2t37.5 -17q0 4 -4 21q-4 2 -11 8q-12 -8 -16 0q0 4 -2 4q-4 12 -10.5 17.5t-12.5 10.5t-10 12t-2 24q4 29 13.5 70.5t0.5 70.5q-4 14 -10 17t-14 1t-16.5 -5t-18.5 -3 q-6 0 -13.5 1t-11.5 5l-2 2q2 -16 4 -34.5t2 -22.5q-2 -18 -3 -36.5t-5 -35.5q-6 -29 -18 -48t-37 -32l18 -2q-10 -4 -19 -7t-19 -9zM170 66q8 10 8 30q2 10 13.5 11.5t11.5 -9.5q0 -2 -1 -4t-1 -4q2 -4 0 -6q-4 -20 0 -29q4 -10 10 -10h2q4 2 5 4t3 4q8 16 8 39q2 6 10.5 8 t12.5 -2q8 -4 6 -8v-29.5t18 -19.5q10 -2 15 14v13q-2 4 -2 7t-2 7q0 10 16 10q8 0 10 -4v-14q4 -10 12.5 -21.5t18.5 -7.5q16 4 18.5 23.5t-2.5 31.5q-2 6 8.5 9.5t14.5 -0.5l2 -3q33 -14 50.5 5.5t24.5 52.5t7 68.5t-2 54.5q-4 27 -12.5 51t-22.5 47q-8 -8 -18 -4 q-10 2 -21.5 3t-19.5 7q-4 2 -9.5 6t-11.5 9q4 -14 5 -25.5t-15 -22.5q-25 -10 -33 11q-2 4 -3 11t-5 11q-6 2 -6 6l-6 -6q-23 -8 -35 6q-6 6 -6 2v-12v-17.5t-4 -11.5q-12 -8 -22.5 -7t-20.5 5q-8 4 -6 14.5t5 19.5t3 14.5t-11 -1.5q-23 -10 -36 -4q-39 -33 -62 -90 q-23 -59 -10.5 -112.5t72.5 -81.5q6 4 12 1t2 -12q-4 -6 -7 -14t-1 -14q0 -4 2 -6v-2q0 -4 2 -5h2h2h2v3zM233 127q-4 20 13 31q4 4 14 2l6 -6l2 -2v-2q0 -2 1 -2.5t1 -2.5q0 -4 -2 -4q-2 -6 -4 -13t-6 -11q-10 -6 -14 -4q-7 4 -11 14zM248 147q-6 -10 0 -20q0 -4 2 -4 q2 2 2 3t2 3q2 6 2 18q0 4 -4 5l-2 -2q0 -3 -2 -3zM285 113q-6 2 -11 14q-4 20 11 31q8 4 16 2l6 -6l2 -2v-2q0 -2 2 -5q0 -2 -2 -4q-2 -6 -4 -13t-6 -11q-4 -2 -7 -4t-7 0zM289 147q-6 -10 0 -20q0 -4 2 -4q0 2 1 3t1 3q4 6 4 18q0 4 -4 5zM233 195q-16 -16 -43.5 -20.5 t-46.5 13.5q-20 23 -19 53.5t23 51.5q10 10 30 18t34 -4q8 -10 17.5 -25.5t15.5 -30.5t3.5 -29.5t-14.5 -26.5zM193 295q-2 -29 -4.5 -54.5t12.5 -54.5q10 4 18 15q6 20 4 37q-5 28 -30 57zM168 195q4 -4 4 -5q-10 27 -7 50.5t5 52.5q0 4 7 6t11 0q-12 8 -23 -8.5t-13 -26.5 q-6 -16 -3 -37.5t19 -31.5zM412 195q-20 -18 -47 -19.5t-46 19.5q-10 12 -11 26.5t5 28.5t15.5 27.5t17.5 23.5q20 18 41 10t33 -29.5t11 -47t-19 -39.5zM379 190q0 -4 -2 -6q12 4 18 13q12 14 14.5 34.5t-8.5 36.5q-8 16 -16 25q-2 -27 -4 -51.5t-2 -51.5zM362 299 q-12 -14 -21 -31.5t-9 -36.5q0 -27 16 -36q4 -4 8 -5q0 54 6 109z" />
<glyph unicode="D" horiz-adv-x="659" d="M137 272l-8 4v3q-4 10 -8 9t-9.5 -7.5t-9.5 -13.5t-4 -11q-8 -29 11 -39q2 -2 0 -2q-14 -41 -25 -88q-4 -16 -11 -46t3 -46q2 -4 6 1t9 12t8 16l3 8q10 33 17 57q2 4 2 7t2 7q-6 6 2 11q4 12 6 20q-4 2 -8 6q-6 4 -1 9.5t13 5.5v18q-4 4 -8 12q-4 4 1 7.5t9 3.5q4 4 4 6 q-4 8 -6 14q-2 8 2 16zM244 520q0 -2 2 -4q0 -2 -2 -4q-4 -16 -11 -23q-4 -8 -12 -4q-6 2 -10 13q-8 18 10 28q6 6 15 2q2 0 6 -4zM229 500q4 12 2 18q0 2 -2 4q-2 0 -2 -2t-2 -2q-8 -12 -2 -20q0 -2 1 -2t1 -2q2 2 2 3t2 3zM283 520q0 -2 1 -2t1 -2q0 -4 -2 -4 q-4 -16 -11 -23q-4 -8 -12 -4q-6 2 -10 13q-4 18 10 28q6 6 14 2q2 0 7 -4q2 0 2 -4zM268 500q4 12 4 18l-4 4q-2 0 -2 -2t-2 -2q-6 -8 -2 -20q0 -2 1 -2t1 -2q4 4 4 6zM188 672q8 -10 17.5 -23.5t14.5 -29t3 -30t-14 -26.5q-16 -14 -43 -18t-43 12q-18 20 -17.5 51t21.5 49 q10 10 28.5 17.5t32.5 -2.5zM150 657q0 4 6 6.5t10 0.5q-10 8 -21.5 -7.5t-13.5 -25.5q-4 -16 -2 -37t18 -31l5 -4q-10 25 -8 48t6 50zM195 569q10 16 6 35q-10 31 -31 55q-2 -29 -3 -53t11 -51q11 4 17 14zM317 666q20 18 40 10t32 -27.5t12 -45t-18 -40.5q-20 -16 -46 -18 t-44 18q-10 12 -11 26.5t5 28t14 27t16 21.5zM328 559q0 27 2 52.5t4 52.5q-10 -14 -19.5 -31t-9.5 -33q0 -27 17 -37q4 -4 6 -4zM367 565q10 14 12 33.5t-6 36.5q-6 12 -17 22q-6 -49 -6 -98q0 -4 -2 -4q11 0 19 10zM256 66q-16 -14 -32.5 -14.5t-32 5.5t-30 17.5 t-26.5 21.5q-8 6 1 11.5t16 1.5q16 -12 41.5 -32t48.5 -1q6 4 14 1t0 -11zM258 25q-29 -25 -56.5 -8.5t-49.5 34.5q-8 4 2 10.5t14 1.5q6 -6 16.5 -14t20.5 -14t20.5 -8t18.5 6q4 6 13 2t1 -10zM496 207q-41 -31 -84 -33t-90 8q-6 0 3 4t13 4q39 -6 72.5 -6t66.5 25 q4 4 14.5 4t4.5 -6zM315 156q-2 0 7.5 4t13.5 2q31 -10 76 -7t67 25q4 4 14.5 5t6.5 -3q-33 -31 -88.5 -36.5t-96.5 10.5zM485 156q6 4 15.5 1t-0.5 -10q-45 -31 -95.5 -47t-101.5 17q-8 6 2 11t17 1q43 -29 84.5 -14.5t78.5 41.5zM471 100q6 4 15.5 1t-1.5 -9 q-41 -29 -88 -43t-94 17q-8 4 2 9t14 1q41 -25 79 -12t73 36zM434 55q6 4 15.5 1t-0.5 -9q-35 -25 -75 -38t-81 14q-8 4 2 10t14 2q35 -23 65.5 -11.5t59.5 31.5zM569 66q4 -4 13.5 -19.5t9.5 -17.5q10 29 0 61.5t-21 59.5q-8 25 -18 57.5t-31 50.5l-2 2v2v2q4 10 0 29.5 t-20 13.5q-2 0 -5 -1t-6 1q-6 6 -9 2t-3 -11t1 -16.5t1 -13.5q4 -14 10.5 -27.5t22.5 -13.5q2 0 4 -2q4 -27 12.5 -51t18.5 -49q8 -26 22 -59zM606 29q-10 -18 -23.5 -6t-25.5 34.5t-20.5 45t-10.5 26.5q-8 23 -14 52.5t-25 39.5l-6 6q-12 -6 -24.5 -8t-22.5 -4 q-31 -4 -60.5 -2t-51.5 25q-4 2 6 6t14 0q23 -18 50.5 -20.5t56.5 1.5q14 0 24 11q-16 23 -12 55q-23 4 -48.5 -6.5t-47.5 -18.5q-8 -12 -19 -4h-2q-16 -6 -29 -6q-12 -2 -23 2t-24 4q-2 2 -3 2t-3 2q-16 4 -32.5 7t-32.5 6q-6 2 -18.5 -0.5t-18.5 -8.5q2 -6 2 -18l2 -2 q16 -16 47 -17q12 -2 25.5 -2t23.5 9q10 10 21 12q8 4 14 2t14 -6t-2 -9.5t-16 -2.5q-6 4 -21.5 -4.5t-21.5 -12.5q-23 -4 -45 0q-14 2 -27.5 4t-23.5 10q-2 0 -2 -2v-2q16 -25 39.5 -38t54.5 -3q10 4 11 -2t-9 -10q-53 -18 -94 19q-2 -2 -2 -11q18 -16 43.5 -31.5t46.5 3.5 q6 4 15 1t-1 -12q-27 -25 -55.5 -13.5t-53.5 30.5q-2 -2 -2 -4t-2 -4q8 -8 21.5 -18.5t27 -17.5t26.5 -9.5t26 8.5q6 6 14 3t0 -11q-14 -12 -30.5 -14.5t-32 2.5t-31 15.5t-27.5 20.5q0 -4 -1 -6t-1 -6q-6 -20 -13 -47t-24 -41q-20 -16 -28.5 -8t-9.5 24.5t2 35.5t6 30 q2 8 7 23.5t10 30.5t6 29.5t-5 20.5q-14 16 -2 39t22 33q12 10 24.5 8t23.5 -12q4 4 10 5t10 3q25 4 50.5 -3t49.5 -11v-2q2 10 2 18t2 16h-2q-4 4 2 4q0 10 1.5 17.5t1.5 15.5q-2 2 -7 2q-4 2 -2 3t4 3q4 0 7 2v13.5t2 13.5q-10 2 0 10v15q0 2 2 2q-2 0 -2 2 q-10 -16 -31 -17q-10 0 -21.5 4.5t-15.5 14.5l-4 -4q-14 -18 -37 -11q-23 10 -20.5 32t12.5 38q-66 29 -94.5 86t-10.5 127q18 66 77 103.5t124 39.5q72 4 122 -33.5t65 -109.5q6 -29 10 -64.5t-6 -62.5q-14 -29 -38 -45t-46 -37q-6 -41 -7 -78q4 -4 0 -8q0 -29 1.5 -56.5 t1.5 -55.5v-5v-2q18 6 45.5 15.5t50.5 11.5q2 4 2 7t2 7q4 8 9 9.5t10 -1t9.5 -5.5t8.5 -1q20 8 30.5 -12t4.5 -37q23 -20 34 -57t21 -66q8 -25 18 -57t-4 -57zM305 272q20 -4 37 7v36q-23 -10 -45 -6q-2 -10 -2 -17t-2 -18q4 0 6 -1t6 -1zM340 381q-18 -4 -37 0 q0 -14 -2 -23q27 -4 39 7v16zM303 397q10 -2 18.5 -3t18.5 1v21q-8 -8 -18 -10h-17q0 -7 -2 -9zM340 354q-18 -6 -39 -6q-2 -6 -2 -13t-2 -16q10 -4 20.5 -3t18.5 8q4 0 6 2q-2 8 -2 15v13zM348 483q14 12 27.5 21.5t27.5 21.5q29 23 32 57.5t-3 69.5q-4 27 -13 53.5 t-24.5 49t-38 37t-53.5 18.5q-37 4 -75 -4t-69.5 -26.5t-54 -48.5t-26.5 -70q-6 -59 22.5 -106.5t83.5 -70.5q6 -2 6 -8q-2 0 -2 -2q-4 -8 -8 -17t-4 -20q0 -8 4 -12q0 -2 2 -4q2 0 4 -2h2h2h3l4 4q10 14 10 41q0 6 8 8t12 -4q8 0 9 -6q-2 -14 -2.5 -28.5t18.5 -18.5 q12 -2 12 12q2 4 2 12q-4 8 -4 15q-2 4 4 7t10 3q10 0 11 -4v-15q4 -10 12 -20t18 -6q16 4 17.5 22.5t-2.5 30.5q-2 4 5 7t11 3z" />
<glyph unicode="E" horiz-adv-x="690" d="M393 135q-8 6 -12 17q-41 -31 -92 -25q-27 4 -41 14q-2 -2 -2 -4q-16 -29 -33.5 -56.5t-40.5 -45.5q-8 -6 -19.5 -11.5t-21.5 -5.5t-16 7.5t-6 23.5q2 35 22.5 66.5t34.5 60.5q4 8 11 25.5t18 29.5q-6 31 -7 68q-20 -25 -43 -41h2q2 -10 1 -20.5t-11 -16.5q-18 -14 -37 0 q-18 20 -2 37q16 16 39 4v-2q14 12 26.5 24.5l26.5 26.5q0 12 1.5 25.5t3.5 28.5q-16 -20 -36 -38t-42 -30q-10 -6 -30.5 -14.5t-31.5 8.5q-8 12 -6 28.5t9.5 32t17.5 29.5t20 22q29 29 61.5 52.5t67.5 44.5l4 8l4 8q-51 23 -79.5 65t-6.5 103q20 57 78 87t119.5 28 t106.5 -38t41 -110q2 -55 -26 -89t-69 -50q8 -8 11 -14q4 2 9 4t7 2q8 -2 24.5 -6t38.5 -13q14 8 28.5 14.5t31.5 12.5q-2 12 6 20q16 16 39 3q2 0 -3 -3.5t-9 -1.5q-10 6 -15 2q-4 -4 -6 -8q-2 -12 10 -24q2 -2 5.5 -5t7.5 -1q2 4 3 5t3 5q2 12 0 24q-2 4 5 6.5t7 -2.5 q4 -10 3 -20t-11 -18q-18 -16 -37 2q-4 4 -4 8q-14 -6 -26.5 -12.5t-24.5 -10.5q27 -10 54.5 -22.5t45.5 -26.5t24.5 -29.5t-8.5 -31.5q-14 -14 -35.5 -14.5t-46 7t-49 20.5t-43.5 26q12 -59 7 -123l73 -6q2 2 2 3t2 3q16 16 39 2q2 -2 -3 -4t-9 0q-10 6 -14 2t-4 -6 q4 0 3 -2.5t-6 -4.5q0 -14 11 -20l5 -5t5 -1q4 2 8 10q2 12 0 25q-2 2 5 4t7 -2q4 -10 2 -20.5t-10 -16.5q-18 -16 -37 2q-10 10 -8 22l-74 7q-2 -10 -3 -19.5t-5 -19.5q12 -12 24.5 -41t18.5 -39q14 -27 31.5 -57.5t13.5 -61.5q-4 -27 -27.5 -22.5t-35.5 16.5 q-23 20 -39.5 45.5t-30.5 54.5zM133 252q-2 -2 -4 -2t0 2q4 4 6 8q-6 -6 -10 -2q-10 4 -14 2q-2 -2 -7 -10q-2 -12 11 -25q6 -6 12 -4q2 2 3 4t3 4q2 11 0 23zM451 174q-6 10 -11.5 19.5t-11.5 19.5q0 2 -1 3t-1 3q-10 -14 -18.5 -26.5t-8.5 -26.5q4 -6 6.5 -11t6.5 -12v-2 q6 0 2 -4q10 -16 19 -31.5t20 -29.5q8 -10 17 -21.5t19 -17.5q12 -6 14.5 1t1.5 17.5t-5 21.5t-6 15q-10 23 -21.5 42.5t-21.5 39.5zM504 463q-10 4 -23 8l-49 -25q2 -4 2 -5t2 -5q16 -16 38 -26.5t42 -20.5q6 -4 24.5 -10t36 -8t27.5 4t0 26q-10 25 -43.5 39.5t-56.5 22.5z M469 477q-14 4 -28.5 8t-30.5 9q12 -14 18 -39q10 6 20.5 11t20.5 11zM170 696q-23 -61 3 -104t73 -66q8 4 8 -4q63 -23 119 -8q-2 4 6 7t12 -1q2 0 2 -2q35 14 57.5 45t22.5 82q4 53 -23.5 92t-80.5 49q-27 4 -57.5 1t-58.5 -13t-50.5 -29.5t-32.5 -48.5zM186 377q4 4 11 4 q10 63 24 104q-25 -12 -51.5 -29.5t-48 -39t-35.5 -47t-14 -54.5q0 -16 6 -19t14 -1t18.5 9t16.5 13q34 25 59 60zM227 141q2 4 4 9.5t7 11.5q0 14 -11.5 27.5t-17.5 25.5l-2 -2q-12 -23 -25.5 -47.5t-25.5 -48.5q-4 -8 -8.5 -15.5t-8.5 -15.5q-6 -6 -10 -23q-6 -31 25 -24 q12 8 20 20q29 39 49 76q0 4 2 6h2zM256 160q37 -35 69.5 -25t55.5 41q4 10 10 21.5t15 23.5q14 31 18 62q-14 2 -27.5 2t-27.5 2q-2 -8 -11 -8h-6t-2 4t2 7t2 7q2 6 11 6h7t3 -4q-2 -2 -2 -4q12 -2 25.5 -2t27.5 -2v8q2 33 0 67.5t-12 69.5q-25 -16 -52 -28v-2 q2 -4 -8 -7.5t-12 0.5q-2 6 -2 15q0 4 10 6t10 0v-2q12 8 24.5 14t27.5 14q-6 16 -14.5 32t-18.5 28q-63 -14 -129 4q-16 -35 -27.5 -82t-15.5 -98q31 31 55 61q0 4 -4 8q-2 6 7 9.5t14 -2.5q2 -4 3 -8.5t3 -8.5q4 -4 -5.5 -7t-13.5 1q-29 -35 -59 -66q0 -41 6 -73q8 0 8 -4 q6 -20 18.5 -37t16.5 -33q4 -4 2 -6q0 -2 -1 -2t-1 -2zM244 637q-6 -6 -19 -23q-4 -4 -13 -4t-5 4q16 16 29 35q-8 10 -16.5 22.5t-18.5 22.5q-4 4 5 8.5t13 -0.5q8 -10 15.5 -18t13.5 -18l8 12l8 12q2 4 11.5 6t7.5 -2q-4 -12 -11.5 -21t-15.5 -20q12 -18 27 -32 q4 -4 -5.5 -8.5t-13.5 -0.5q-6 6 -11 12.5t-9 12.5zM362 612q-4 -4 -13 -4t-5 4q8 10 16.5 18.5t16.5 18.5q-8 10 -14.5 21.5t-14.5 21.5q-4 4 5 8.5t14 -0.5q6 -10 11 -17t11 -15q4 6 9 12t10 14q2 4 12 4t6 -4q-8 -10 -14 -20t-15 -21q6 -8 12.5 -16t12.5 -19q4 -4 -6 -8 t-13 0q-4 8 -9 14.5t-9 14.5q-6 -8 -12.5 -14.5t-10.5 -12.5zM260 551q-4 4 -5 7t-5 7h-25q-6 0 1 4t12 4h10q-2 2 -2 4.5t-2 6.5t5 6t7 -4l6 -13h12q8 12 19 19q10 4 10 0q4 -4 5 -8t5 -9q10 0 17 3q12 12 20 12q12 0 25 -12h18l13 12q4 4 8 1t0 -7l-6 -6h14q8 0 0 -4.5 t-12 -4.5h-11l-12 -12q-6 -6 -10 0q-4 2 -12 14q-8 -2 -25 -2l-16 -16q-6 -6 -11 0q-6 6 -10 14h-20q-2 -4 -4.5 -8t-6.5 -8q-2 -4 -6 -4t-6 4zM381 571l2 -2l2 2h-4zM317 569q0 -2 1 -2t1 -2l5 4h-7zM295 580q-4 -4 -4 -5h8zM268 567q0 -2 -2 -2v-2q2 2 2 4z" />
<glyph unicode="F" horiz-adv-x="677" d="M375 815q31 10 64.5 9t64.5 -13t55.5 -33.5t38.5 -52.5q35 -72 38 -152.5t-11 -158.5v-2q-4 -29 -10.5 -54.5t-12.5 -52.5q-10 -41 -13 -84t-7 -86q-4 -23 -7.5 -47.5t-13.5 -42.5q-8 -12 -19.5 -21.5t-25.5 -7.5q-23 2 -43 15q-8 6 -16 15t-17.5 16.5t-19.5 8.5t-23 -10 q-10 -8 -25.5 -18t-29.5 -4q-16 6 -23.5 18.5t-25.5 -2.5q-6 -4 -23 -8q-8 -2 -17 3t-15 9q-27 16 -50.5 18.5t-52.5 -1.5q-16 -4 -30.5 -9.5t-30.5 -0.5q-16 4 -14.5 17t11 27.5t20.5 28t13 17.5q4 4 17 4q33 43 53.5 91t32.5 99t20.5 104.5t16.5 106.5q6 35 12 74 t20.5 73.5t37 63.5t61.5 43zM602 410q12 72 10 137q-8 0 -12 2q-2 0 -2 2h-2q-23 14 -31 37.5t-4 48.5q2 14 7 28.5t22 18.5q-14 39 -39 69.5t-66 47.5q-53 23 -105 5t-75 -77q-29 -76 -39 -155.5t-24.5 -157.5t-41 -150.5t-85.5 -134.5q-4 -4 -11 -4q-6 -10 -12 -20.5 t-6 -18.5t7 -10t24 2q14 4 33.5 11t35.5 5q14 0 27.5 -7t28 -14t27 -10.5t24.5 5.5q6 4 14 6t15 0q8 -4 14 -10.5t12 -10.5t12.5 -4t16.5 8q6 6 12 11.5t17 9.5q14 4 29.5 6t27.5 -10q10 -8 14 -18.5t19 -18.5q18 -10 29.5 -5t17.5 17t8 28.5t4 29.5q4 43 6 87t12 85 q8 29 15.5 57.5t11.5 58.5q-27 -12 -56.5 -14t-54 6t-42 28.5t-19.5 55.5q0 4 11.5 7t11.5 -1q2 -31 16 -51t36.5 -29.5t48 -7t50.5 18.5zM608 571q0 4 -1 9.5t-1 9.5q-2 10 -4 19t-6 20q-2 8 -4 15t-4 15q-2 -2 -2 -8q-2 -6 -3 -14t1 -16q0 -35 24 -54v4zM489 694 q27 8 42.5 -4t17.5 -39q2 -29 -5 -60.5t-40 -39.5q-29 -8 -48.5 17.5t-19.5 49.5q-2 27 13 47.5t40 28.5zM502 563q20 10 23 38t1 44q0 14 -8 30.5t-26 6.5q-16 -8 -26.5 -25.5t-6.5 -33.5q4 -27 18 -45l11.5 -11.5t13.5 -3.5z" />
<glyph unicode="G" horiz-adv-x="1171" d="M1124 610q-49 -123 -62 -204.5t-6 -143t30.5 -111t50.5 -106.5q-29 8 -53.5 26.5t-50 39t-51.5 40t-52 29.5q-20 -16 -40 -30.5t-26 -24.5q-49 33 -80.5 50.5t-87.5 21.5l-2 10q0 -47 -27.5 -83t-99.5 -36q-53 0 -70.5 32t-15.5 77q-55 -6 -94 -22.5t-92 -49.5 q-4 10 -18.5 24.5t-24.5 18.5q-29 -10 -55.5 -27.5t-52 -36t-53.5 -35t-56 -24.5q27 57 51.5 106.5t33.5 111t-5.5 143t-65.5 204.5q25 -16 56.5 -41.5t67.5 -47t69.5 -33t60.5 -1.5q31 -49 90.5 -78.5t112.5 -29.5l-8 -76q6 23 11 43.5t9 34.5q-16 6 -31.5 15.5t-29.5 23.5 q-43 35 -59.5 71.5t-14.5 71.5q-6 0 -8 2q-16 18 -19.5 43t-1.5 51.5t7.5 52t5.5 48.5q0 8 19.5 13t23.5 1q39 -39 98 -65q43 20 91 20t89 -24q4 4 8 4q25 12 44.5 32.5t39.5 38.5q4 6 20.5 10.5t18.5 -10.5q4 -23 8 -54.5t2 -62t-12 -57t-35 -41.5q-4 -4 -10 -4 q-4 -53 -40 -101t-89 -71q6 -12 13.5 -27.5t15.5 -33.5l-10 55q25 0 53 4t56 17.5t53.5 38t41.5 65.5q25 -10 60 -2t71.5 26.5t70 40t56.5 37.5zM715 686q49 -37 55 -86q16 23 15 61.5t-5 71.5q-16 -14 -31.5 -26.5t-33.5 -20.5zM399 616q12 23 32 41.5t42 34.5h-4 q-16 8 -31.5 16.5t-31.5 18.5q-4 -27 -7.5 -55.5t0.5 -55.5zM479 516q14 -20 39 -35v2q-4 39 -39 49q-4 2 -4 3l-2 -7q0 -6 6 -12zM637 481q25 14 39 35q6 6 6 12q-2 6 -2 7l-4 -3q-35 -10 -39 -49v-2z" />
<glyph unicode="H" horiz-adv-x="1130" d="M899 778q2 -115 19.5 -186.5t44 -117.5t62.5 -77.5t77 -68.5q-25 -4 -51.5 2t-54 14t-54.5 15.5t-53 7.5q-10 -20 -21.5 -39t-11.5 -29q-27 6 -46 9t-36.5 4t-36 -1t-41.5 -10l-6 10q16 -41 7 -78.5t-68 -62.5q-41 -18 -66.5 2.5t-40.5 56.5q-43 -25 -68.5 -51t-56.5 -69 q-10 6 -25.5 12t-23.5 8q-20 -18 -35.5 -42t-31 -47.5t-32 -46t-36.5 -38.5q2 55 6 103t-10 100.5t-54 114t-122 143.5q25 -4 59.5 -13.5t70.5 -15.5t67.5 -4t48.5 20q43 -29 101 -33.5t101 13.5l19 -64q-4 23 -6 40.5t-5 29.5q-14 0 -30.5 2t-32.5 8q-78 27 -100 78 q-18 10 -27.5 32.5t-14.5 50.5t-8.5 55.5t-9.5 46.5q-4 10 0 15t15 1q49 -18 98 -19q49 43 104 50q31 35 49 75q4 10 11.5 9.5t11.5 -11.5q8 -18 25.5 -38.5t34 -44t26.5 -46t4 -43.5q-4 -4 -8 -4q10 -43 -4.5 -89t-44.5 -81q10 -6 21.5 -15t21.5 -24l-27 41q20 8 42 21.5 t40.5 34t29.5 48t11 66.5q25 0 49.5 18.5t48 45t43 56.5t31.5 50zM377 475q33 -20 74 -24v2q-12 23 -35 37t-49 10q-6 -2 -7.5 -2t2.5 -9q1 -8 15 -14zM571 500q27 35 35 71q4 14 0 21q-4 8 -5 8t-5 -4q-20 -16 -26.5 -43t1.5 -49v-4z" />
<glyph unicode="I" horiz-adv-x="1130" d="M1055 51q-20 6 -48 27.5t-58.5 39t-59.5 23.5t-49 -14q-6 -6 -17.5 -9t-19.5 1q-33 20 -60.5 33.5t-62.5 21.5q-10 -47 -49 -68q2 -4 2 -9t2 -9q0 -4 -6 -7t-13.5 -4t-14.5 -2t-7 3q0 6 -4 14q-2 0 -3 -1t-3 -1q-10 -2 -21.5 -3t-21.5 1v-10q0 -10 -20.5 -15.5t-20.5 5.5 v28q-47 16 -49 74q-2 2 -1 4t-1 4h-3q-41 -4 -77.5 -19.5t-71.5 -35.5q-4 -4 -15.5 -6t-15.5 2q-29 29 -48 18.5t-52 -33.5q-25 -16 -48.5 -28.5t-51.5 -22.5q-2 -2 -16.5 -4t-10.5 8q23 43 45 88t29 95q10 78 -12.5 149.5t-51.5 142.5q-2 4 3 8.5t12.5 5.5t14.5 1t11 -2 q18 -12 43 -32.5t50.5 -37t53 -28t52.5 -5.5q4 0 10 1t10 -3q66 -82 168 -94l6 19q-47 16 -75 51q-37 39 -43 84h-5q-20 25 -24 57.5t-1 67t10 69.5t7 64q0 8 17.5 12t21.5 0q55 -53 127 -84q76 20 139 -4q29 16 53.5 41t47.5 47q4 4 20.5 8t18.5 -8q4 -29 9 -67.5t3 -76.5 t-14.5 -73t-42.5 -53q-4 0 -7 -2q-20 -57 -65 -95q-25 -20 -43 -28q6 -10 10 -21q106 4 156 92q4 8 14 12.5t19 2.5q27 -6 55.5 0t56 20.5t53 30.5t46.5 31q4 2 20 5t12 -7q-29 -72 -52 -152t-7 -158q10 -45 30.5 -85t41.5 -80q2 -4 -2.5 -8.5t-11.5 -5.5l-14 -2t-9 1z M449 199q2 33 8 64.5t16 64.5q-4 -2 -10 -2q-68 4 -119 36q-18 10 -39.5 33t-40.5 25q-41 2 -77.5 20.5t-71.5 42.5q23 -57 36 -117.5t3 -119.5q-8 -45 -25.5 -84t-38.5 -78q39 20 74 45t76 41q4 4 13 5t13 -3q6 -10 13.5 -16t15.5 -13q37 23 74 36.5t80 19.5zM760 727 q-16 -16 -34.5 -32.5t-39.5 -28.5q2 -2 4 -3t4 -4q61 -41 62 -106q16 37 13 86t-9 88zM389 727q-6 -35 -12 -76t-2 -76q33 63 106 97q-53 20 -92 55zM465 412q31 -27 63.5 -35t63.5 -1t58.5 29.5t45.5 57.5q20 41 19.5 80t-23.5 69q-4 0 -4 4l-24 25q-4 4 -7.5 5t-7.5 5 q-2 0 0 2q-47 31 -105.5 25t-99.5 -51q-51 -53 -41.5 -110.5t62.5 -104.5zM621 131q20 18 24 49t-2 63.5t-19.5 63.5t-25.5 51q-43 -10 -78 -4q-6 -23 -14 -52.5t-12.5 -60t-3 -59t13.5 -47.5q8 6 22.5 8t14.5 -4v-28q14 -4 37 0q2 2 6 2q-2 2 -2 4t-2 4q-2 4 17.5 10 t23.5 0zM684 199q41 -6 72.5 -19.5t64.5 -34.5q16 16 36 28.5t38 10.5q35 -6 66.5 -29.5t62.5 -45.5q-18 35 -32.5 70.5t-16.5 76.5q-4 66 12.5 127t38.5 121q-43 -29 -93 -50.5t-99 -17.5q-31 -49 -75 -72.5t-102 -29.5q14 -33 22.5 -67.5t4.5 -67.5zM586 426q-10 4 -9 12 t1 17q4 20 23.5 37.5t37.5 23.5q10 4 25.5 8t25.5 -4q12 -12 4 -31q-10 -16 -27.5 -31.5t-33.5 -23.5q-10 -4 -23.5 -8t-23.5 0zM618 465q0 -4 -1 -10t1 -11q10 6 19.5 15.5t13.5 19.5q6 10 2 21q0 2 -1 3t-1 3q-10 -8 -19.5 -18.5t-13.5 -22.5zM481 530q18 -4 40 -21 t26 -40q4 -10 2 -21.5t-12 -19.5q-20 -14 -43 -4q-20 8 -38 22.5t-28 32.5q-14 27 8 42t45 9zM506 459q-2 12 -13.5 22.5t-21.5 16.5q-2 0 -3 1t-3 1q0 -4 2 -6q8 -10 18.5 -19.5t20.5 -17.5v2z" />
<glyph unicode="J" horiz-adv-x="919" d="M115 141q-31 70 -30 134.5t28.5 119t78 98.5t117.5 72q0 8 10 15q23 63 95 67q-4 0 -15.5 12.5t-21.5 31t-17.5 35.5t-5.5 28q2 6 8.5 9t10.5 3q27 2 43 -7t30.5 -23.5t26.5 -31t29 -30.5q18 -16 40.5 -18.5t39.5 -22.5q12 -18 16 -51q4 -2 8 -7q57 -8 107.5 -39.5 t86.5 -77.5t51 -103.5t1 -116.5q-14 -61 -49 -103.5t-83 -69t-104.5 -40t-111.5 -15.5q-49 -2 -107.5 -2t-113 11.5t-99 39t-69.5 82.5zM659 72q0 10 1.5 20t1.5 21q-43 -18 -90.5 -27.5t-88.5 -13.5t-87 -3t-91 11q2 -10 4 -17.5t6 -17.5q47 -10 96.5 -9t96.5 5 q37 4 75.5 10.5t75.5 20.5zM584 272q-23 0 -6 13v4q20 31 36 61q-18 47 -43.5 92t-54.5 90h-2q-29 -18 -60.5 -20t-60.5 16q-8 -4 -14 -4q-33 -59 -55 -127q23 -29 45 -54.5t32 -59.5q2 -4 -4 -7.5t-10 -5.5q-31 -10 -72 -14q-4 -2 -10 -2t-12 -2q-4 -43 0 -90 q59 -29 130 -26t140 16q29 4 50.5 9t43.5 17q-2 23 -6 45.5t-10 44.5q-16 2 -30.5 3t-26.5 1zM702 291l-2 2q2 4 2 12q-2 23 -8 45.5t-10 44.5q-16 -25 -31.5 -51.5t-31.5 -50.5q10 0 19 -1t19 -1q18 -4 37 0h6zM354 276q-10 27 -28.5 49.5t-36.5 45.5q-6 -23 -10.5 -46.5 t4.5 -41.5q6 -12 28.5 -11.5t42.5 4.5zM416 121q-43 -2 -82 1t-74 19q23 -18 51.5 -30.5t61.5 -18.5l14 14q4 4 10 5.5t11 -5.5q4 -6 12 -22q37 -6 82 -2t82 14q2 6 4 13.5t4 13.5t10 8t12 -2q12 -8 19 -14q27 14 45 31.5t29 39.5q-12 -10 -24.5 -19t-31.5 -13 q-18 -4 -37.5 -8.5t-40.5 -8.5q0 -4 -4 -12q-2 -6 -10 -8t-12 2q-8 8 -15 10q-16 -2 -31.5 -4t-31.5 -2h-8q-4 -4 -5 -8t-5 -9q-4 -4 -11.5 -6t-11.5 2q-8 12 -12 17v2zM612 106l-4 3q0 -4 -2 -7q2 2 3 2t3 2zM573 535q-16 -12 -41 -9q29 -41 50.5 -80.5t40.5 -83.5 q12 20 24 41t29 39q4 4 23.5 10.5t21.5 -3.5q4 -23 10 -45.5t10 -45.5q4 -16 7.5 -36.5t-9.5 -32.5q-16 -16 -38.5 -19.5t-47.5 -1.5q4 -23 8.5 -42t8.5 -42q12 8 22 19q8 8 22.5 11t20.5 5q4 0 15.5 2t9.5 -4q-8 -35 -31.5 -58.5t-56.5 -39.5v-41q57 23 97 66.5t40 115.5 q0 49 -14.5 96t-41 86t-66.5 66t-89 37q-4 -4 -11.5 -7t-13.5 -3zM422 629q-31 -6 -47.5 -16.5t-22.5 -34.5q6 -23 33 -17q16 14 35 0q41 -37 76 2q6 10 18 11t21 -7q6 0 12 1t14 1q0 2 2 4q-2 16 -6 29.5t-14 24.5q-12 12 -30.5 13t-33.5 11q-12 8 -22.5 22.5t-20.5 29 t-22.5 26.5t-26.5 16q2 -12 12.5 -25t20.5 -25.5t18 -25t6 -24.5t-22 -16zM324 541q-59 -29 -108.5 -77t-73 -107.5t-16.5 -123t62 -120.5q23 -25 52.5 -40.5t60.5 -23.5q-2 8 -4 16.5t-4 18.5q-43 12 -78 37.5t-51 71.5q-2 4 4 7t16 7q8 4 20.5 7t16.5 -1 q14 -14 28.5 -24.5t31.5 -20.5q-2 23 -1 42t3 42q-10 0 -18.5 1t-16.5 5q-14 8 -16.5 27.5t3 41t12.5 43t11 31.5l4 5q-2 2 4 6t14.5 7t15.5 3t11 -4q2 -4 4 -6t4 -6q10 31 23.5 59.5t28.5 56.5q-25 1 -43 19zM506 276q8 -23 17 -41t18 -40q4 -8 -9.5 -12.5t-17.5 -6.5 q-16 -2 -30.5 -3t-30.5 -1q-10 0 -13 2q-2 0 -2 2q-2 0 -2 2v2v2q0 10 3 19.5t7 19.5t7.5 22.5t7.5 22.5t22.5 15t22.5 -5zM489 197q-4 4 -4 10q-2 -4 -2 -6t-2 -4h8z" />
<glyph unicode="K" horiz-adv-x="681" d="M215 25q-84 16 -118 58t-35 100.5t21.5 127t50.5 137t51.5 133t25.5 113.5q-10 2 -14 8q-18 14 -4 22.5t32 12.5q-6 18 -9 37t9 35q29 29 74 33q16 4 36.5 3t33.5 -14q14 -10 8 -28q-4 -16 -5 -31.5t-3 -32.5q8 0 12 -2h4q2 0 2 -1t2 -1q8 -4 12.5 -10t-4.5 -16 q-6 -6 -12 -9q8 -41 14.5 -85t26.5 -83q25 -47 57.5 -74.5l71.5 -60.5q47 -41 67.5 -106.5t-4.5 -124.5q-23 -55 -69.5 -88t-104 -48.5t-118 -15t-111.5 10.5zM297 827q-10 0 -22.5 -5t-18.5 -15l4 -4q2 -6 14.5 -9t27.5 -1t27.5 7t14.5 11q0 2 -2 4q-16 16 -45 12zM305 770 q-12 -2 -26.5 -2t-26.5 4q4 -16 9 -30.5t9 -26.5q0 -2 -2 -4l64 4q4 16 4 31.5t4 31.5q-10 -4 -18.5 -5t-16.5 -3zM330 690q-14 -2 -28.5 -2h-31.5q4 -12 4 -16q2 -4 11.5 -5t13.5 -3q8 0 16.5 -1t10.5 9q4 12 4 18zM242 657q-10 -76 -40 -147.5t-59 -140.5 q-14 -33 -30.5 -76t-21.5 -86t8.5 -81t56.5 -58q57 -27 139 -32t154.5 17.5t116.5 74.5t24 140q-10 39 -29.5 65.5t-44 48t-50.5 43t-46 52.5q-29 45 -42 92t-22 97l-6 -7q-25 -18 -57 -14q-10 0 -23.5 1t-23.5 7zM258 453q-8 0 -16.5 4t-8.5 12q2 10 15 14q6 6 14 6 q8 2 17.5 -2t9.5 -14t-11.5 -15t-19.5 -5zM262 471v-2v2zM334 496q-10 2 -21.5 9t-7.5 19q6 16 29 21q2 2 10 2q29 0 27 -25q-4 -12 -14.5 -19t-22.5 -7zM332 530q0 -2 -1 -3t1 -5q0 -8 10 -12v2q2 4 2 10t-6 10h-2h-2zM152 92q-29 4 -41.5 23.5t-1.5 48.5q2 8 10 20 q0 59 23.5 115.5t45.5 110.5q-6 8 0.5 17t24.5 13q23 4 45.5 3t44.5 -1q23 2 45.5 3t44.5 -3q4 0 21.5 -3t15.5 -13q16 -16 36.5 -31.5t40 -32t34 -36t20.5 -43.5q8 -35 9 -72t-21 -68q-39 -53 -102.5 -73.5t-124.5 -16.5q-37 2 -83 8.5t-79 30.5h-8zM223 430q-2 -4 -3 -7 t-3 -7h4q51 -6 103 -6h26t27 2q10 2 20.5 9t-10.5 9q-25 4 -49.5 2t-48.5 -2q-10 0 -22.5 1t-24.5 -1h-19zM203 406q-18 -45 -37 -94.5t-25 -96.5q14 12 33 12q33 2 52.5 -20.5t11.5 -54.5q-10 -43 -54 -58q35 -23 99 -28q33 -2 76.5 0t83.5 14t70 37.5t36 68.5t-3 75 t-28.5 56.5t-45.5 47t-52 49.5q-12 -8 -19 -8q-45 -14 -96 -11.5t-96 8.5h-2q-2 1 -4 3zM141 209q-4 -35 5.5 -62.5t31.5 -46.5q49 10 53 64q0 27 -15 43t-44 16q-17 0 -31 -14zM119 172q-10 -25 -3 -47.5t36 -26.5q-31 27 -33 66v8zM217 268q-6 -8 -20.5 -11t-22.5 5 q-6 6 -6 16.5t4 16.5q6 10 15.5 10t17.5 -6q4 -4 10 -13.5t2 -17.5zM178 287q-4 -14 4 -23q8 -4 19.5 0t7.5 15q-4 10 -12 16q-6 6 -13 4q-6 -6 -6 -12z" />
<glyph unicode="L" horiz-adv-x="716" d="M434 510q55 6 101.5 -9.5t77 -48t43 -79.5t-0.5 -105q-25 -115 -112.5 -177t-202.5 -68q-57 -4 -112.5 16t-99.5 58t-70.5 89.5t-26.5 112.5q0 33 8 57q-8 4 -5 9.5t11 9.5q20 53 68.5 82.5t111.5 34.5q-6 27 -11 52t-13 52q0 2 14 10h-24.5t-22.5 4q-8 0 -2 6 q20 27 56 37.5t67 14.5q27 4 61.5 8t59.5 -8q12 -6 6 -14.5t-17 -14.5q4 -35 9.5 -68.5t7.5 -68.5q8 8 18 8zM201 623q8 0 14 -1t14 -1q31 0 63 2t60 12q4 0 11.5 3t12.5 7t5 7t-12 5q-23 4 -43.5 2t-42.5 -6q-14 -4 -28.5 -6t-29.5 -8q-6 -4 -13 -7t-11 -9zM229 477 q-53 0 -89 -22.5t-56 -57.5q31 10 66.5 12.5t52.5 4.5q92 8 180 20t180 25q-55 49 -145 37h-2v-4q0 -8 -17.5 -11.5t-17.5 0.5q0 37 -6 73t-10 71q-61 -18 -129 -19q10 -35 16 -67.5t16 -67.5q0 -2 -5 -5t-11 -5t-12.5 -2t-6.5 2q-2 4 -2 8t-2 8zM565 442 q-70 -10 -137.5 -23t-136.5 -18q-10 0 -40 -1t-62.5 -3t-61.5 -7t-41 -17q123 -12 244.5 5t234.5 64zM377 39q51 6 97 29.5t81 61.5t54.5 86t17.5 101q-2 66 -35 113q-123 -53 -256 -73.5t-266 -4.5q-12 -63 12 -129q35 -88 116 -142t179 -42zM207 813h21.5t21.5 -4 q6 -4 6 -10q-2 -23 -21.5 -36t-41.5 -7q-20 4 -21 22q0 10 7 18.5t16 12.5q8 4 10 4h2zM219 784v4h-8l-2 -2l-2 -2v-2l2 -2q2 -2 4 -2q-2 0 1 1t-1 -1h2h-2h2q2 2 0 1t2 1zM289 758q-4 0 -6 6q-8 18 1 30.5t26.5 17.5t37 5t31.5 -2q16 -4 27.5 -14t15.5 -29q2 -14 0 -27.5 t-14 -23.5q-23 -16 -50.5 -10t-48.5 20q-14 11 -20 27zM328 772q-6 -2 -4 -6q6 -10 16 -16q8 -4 21.5 -10.5t21.5 -2.5q4 2 4 10.5v12.5q-2 10 -6 17t-16 11t-27 5q13 -13 -10 -21zM358 860q-14 -10 -32.5 -14t-34.5 6q-14 8 -16.5 21.5t4.5 27.5q4 4 8 6q0 2 6 8 q16 8 35.5 10.5t33.5 -10.5q14 -12 12 -28.5t-16 -26.5zM313 905q-4 -8 -5 -17t7 -18q4 -8 13 -8q2 0 2 1t2 1q6 8 8 17.5t-6 17.5q-4 8 -12 8q-2 2 -7 2v-2h-2v-2z" />
<glyph unicode="M" horiz-adv-x="749" d="M453 377q-29 8 -53.5 19.5t-45.5 31.5q-6 6 0 13.5t13 11.5q20 8 32 -4q16 -16 38 -24.5t44 -14.5q8 -2 9.5 -9.5t-3.5 -13.5q-14 -14 -34 -10zM217 922q-2 -84 -3 -119t-1 -60.5t1 -60.5t1 -119q57 45 129 70.5t139 -8.5q37 -18 69 -44t51.5 -56.5t22.5 -67.5t-20 -80 q-2 -2 -2 -4q51 -16 86 -52t33 -96q0 -8 -8 -13t-17.5 -6t-16.5 3t-7 14q2 43 -25.5 73t-66.5 40q-20 -25 -45 -45q14 -14 18 -31.5t8 -36.5q0 -6 -7 -11t-16.5 -7t-17.5 -1t-8 7q-4 33 -16 53q-51 -29 -110.5 -39t-117.5 4q-2 -10 -3 -21t1 -22q2 -39 12.5 -73.5 t24.5 -69.5q0 -4 -6 -8t-15.5 -6t-17.5 -2t-10 4q-45 113 -25 209q-31 10 -59.5 26.5t-48.5 40.5q-4 -4 -7 -10t-7 -10q-23 -37 -22 -72t17 -76q2 -6 -4 -11t-15 -8t-18.5 -1t-11.5 8q-14 35 -17 70.5t13 70.5q20 37 53 72q-20 51 -0.5 94t54.5 82q8 6 15 13.5t17 15.5 q0 86 -1 123t-1 64.5t1 64.5t4 123q0 10 12 11t12 -9zM449 600q-35 18 -70 14t-67.5 -19t-61.5 -40t-53 -47q-55 -61 -50 -121l7 6q4 4 13 7t18.5 3t14.5 -2t-1 -8q-10 -10 -19.5 -21.5t-19.5 -21.5q25 -45 84 -71q6 18 15 35.5t20 37.5q2 4 10 7t17 4.5t15.5 0t4.5 -3.5 q-12 -23 -23.5 -46t-21.5 -48q43 -12 90 -11t89 17.5t71.5 51t39.5 90.5q0 2 1 3t1 3q-12 -6 -20 -14q-18 -10 -35 -9q-8 0 -9 5.5t5 9.5q16 10 30.5 21t24.5 28q2 0 4 2q-6 49 -41.5 79.5t-82.5 57.5z" />
<glyph unicode="N" horiz-adv-x="897" d="M733 256q0 -6 -12 -6l2 -6l-4 4q-20 -4 -17 4l5 8q-6 4 -11.5 9t-11.5 10q-76 70 -150.5 137t-152.5 133q-27 23 -52.5 45t-54.5 41q-10 -2 -17 2t-1 10q-4 4 -8 6l-8 4q-4 -10 -13 -12q-16 -4 -20 8q-6 23 -27.5 29t-46 1t-44 -20.5t-19.5 -35.5q0 -29 20.5 -46.5 t48 -23.5t54 2t38.5 31q4 8 13 8q8 4 15 1t3 -13q-4 -8 -8 -13q6 -4 16 -14q66 -59 132.5 -118.5t136.5 -116.5q35 -29 68.5 -56.5t70.5 -52.5q18 4 18 -8l-4 -4t-6 -4q-14 -6 -15 -18.5t4 -24t14 -21.5t20 -14q16 -6 41.5 -4t25.5 26q0 18 -10 33q-10 2 -19.5 5t-15.5 9 q-4 2 8 11h-2q-6 4 -2 8q0 2 2 4l6 -12q14 4 19 0q10 -10 28.5 -11.5t28.5 11.5q16 23 -2 51q-16 23 -43 30t-41 -26zM727 281q14 10 32.5 14t37 1t33 -13.5t22.5 -26.5q14 -31 -3.5 -51.5t-45.5 -26.5q14 -29 -4 -53q-16 -23 -45 -29t-54 0q-20 6 -37.5 20.5t-21.5 37.5 q-6 27 12 45q-4 4 -12 8q-49 35 -95 72.5t-93 76.5q-35 -41 -72 -78.5t-72 -78.5q16 -10 28.5 -28.5t17.5 -39t-1 -40t-24 -32.5q-23 -16 -61 -18t-60 20q-10 10 -14.5 22.5t-8.5 25.5q-18 -6 -36 0q-29 10 -38.5 38.5t-0.5 57.5q16 47 65 59q29 4 45 -6q2 4 6 8 q33 45 66 87t67 83q-29 29 -59.5 55.5t-60.5 55.5l-7 6q-23 -16 -51 -20.5t-57 2.5q-16 2 -33.5 11t-31 21.5t-20.5 28.5t-3 35q8 35 36.5 54.5t61.5 23.5q-10 23 -5 47t22.5 42.5t42 24.5t51.5 -8q20 -12 36.5 -31.5t24.5 -42t6 -46t-18 -42.5q2 0 2 -2q39 -29 76 -57.5 t73 -58.5q29 31 56.5 61.5t56.5 60.5q2 4 5 7.5t7 7.5q-16 14 -24 35.5t6 44.5q16 25 44 37t56 12q20 -2 41 -10.5t31 -26.5q43 23 82 2q31 -16 39 -42t-12 -56q-10 -18 -30 -32.5t-43.5 -23t-47 -8.5t-41.5 12q-33 -43 -66 -82.5t-67 -80.5q47 -41 92 -84t92 -84zM586 653 q-31 -35 -61.5 -67.5t-59.5 -67.5l55 -49q8 8 14.5 15.5t14.5 17.5q27 31 53.5 63.5t50.5 67.5q-2 0 -2 1t-2 1q-4 4 1 7t14 5q0 -2 4 2q10 0 12 -2q25 -33 60.5 -25.5t58.5 37.5q10 12 16 29t-2 33q-10 18 -34.5 31.5t-47.5 -2.5q2 -4 2 -11q2 -23 -12 -37t-37 -20 q-6 0 -10 -2q-16 -4 -10 2q0 8 16 12t19 22.5t-3 31.5q-16 37 -57 36q-23 2 -40 -13t-21 -38q-2 -23 11 -37t32 -24l2 -2q4 -4 -9.5 -10.5t-19.5 -2.5l-2 2zM170 778q-10 -20 -10 -36.5t14 -32.5q23 -2 41 -12.5t25 -34.5v-3l18 -8q16 12 20.5 28.5t1 34t-11.5 34t-20 28.5 q-18 16 -40 23.5t-38 -21.5zM283 203q39 41 76.5 84t74.5 84l-55 49q-10 -12 -19.5 -23.5t-19.5 -23.5q-27 -33 -52.5 -66t-47.5 -67q0 -2 1 -2t1 -2q2 -4 -3.5 -8.5t-11.5 -6.5l-2 -2v2q-12 -4 -16 4q-12 29 -35.5 16.5t-30.5 -34.5q-4 -16 -3 -33.5t14 -32.5q14 -20 32 -8 q4 20 17 37q4 4 13 5t13 -3l2 -2q0 -4 -2 -8q-14 -18 -10 -45t21 -43q14 -12 41.5 -10t37.5 22q12 23 -2 54.5t-38 41.5q-2 2 -3.5 2t-3.5 2l-4 -2q2 2 2 3t2 3q0 2 9 11z" />
<glyph unicode="O" horiz-adv-x="1503" d="M1348 584q16 8 37.5 10t40 -3t33 -17.5t14.5 -34.5q2 -41 -35 -55.5t-74 -12.5q-27 -41 -91.5 -49t-121.5 8v-2v-2q12 -68 1 -133.5t-45 -120.5t-86 -95t-122 -54q-53 -12 -120.5 -12.5t-133 13t-123 44t-90.5 79.5q-47 -29 -106.5 -30.5t-100.5 37.5 q-25 -12 -57.5 -16.5t-62 1.5t-51 25.5t-23.5 54.5q-2 31 14 51.5t41 32.5t54.5 15.5t58.5 0.5q14 23 36.5 37.5t49 22.5t54.5 12t52 4q-4 113 51 201q-18 10 -39 31q-14 -6 -32.5 -10.5t-35 -4.5t-30.5 6.5t-20 22.5q-8 16 -3 28.5t15 18.5t25.5 8t29.5 0q41 39 86 50.5 t101 7.5q20 0 43.5 -3t42.5 -12q66 20 140.5 21.5t143 -18t123.5 -63.5t84 -114q33 12 70 2q31 31 79 38.5t83 -21.5zM424 637q29 -33 70 -41t81 -8h42t40 4q68 25 50 70q-16 29 -45 34q0 -16 -3 -26q-2 -4 -13 -6t-9 2q4 20 -2 34.5t-20.5 22.5t-32 12t-33.5 6 q-51 4 -96 -3t-84 -46v-2h2q8 -4 -2.5 -10t-16.5 -2q-8 4 -21.5 7t-21.5 -7q-8 -8 -5 -20.5t11 -18.5q14 -14 38 -12t42 10q-2 2 -3 4t-3 4q-4 4 8.5 8t16.5 -2q2 -2 3 -4t3 -4q6 -4 4 -6zM233 178q20 -29 51 -40t62 -8t60.5 18.5t50.5 39.5q-12 8 -17 13q-6 6 5.5 10 t15.5 0q16 -16 40.5 -23.5t49 -4.5t46 15.5t34.5 34.5q12 27 4 48.5t-27 37.5q-2 0 -4 -2q-8 -4 -16 -2q-6 6 2 11q16 10 14 25.5t-12 27.5q-16 16 -33.5 8t-23.5 -27q0 -4 -5 -4q-6 -4 -13 -3t-5 5q0 4 4 9q-25 6 -54.5 11t-60.5 5h-4q-55 2 -105 -12.5t-73 -53.5 q16 -4 23 -6q8 -2 -3.5 -8t-15.5 -2q-4 2 -10 2t-10 2q-4 0 -6 2q-23 4 -44.5 3t-41.5 -11q-25 -10 -44.5 -34.5t-9.5 -53.5q6 -25 24.5 -39t42 -20.5t48.5 -3t45 13.5l-6 6q-4 6 7 10t15 0zM1130 311q6 57 -2 107q-16 -6 -32 4q-12 10 -15 27q0 10 2 14l-2 2 q-29 27 -20.5 51.5t35.5 38.5q-12 31 -27 51q-12 -12 -27 -8q-16 2 -12 18.5t8 24.5q2 0 2 2q-35 39 -83 62.5t-102 34t-109.5 7t-104.5 -17.5q12 -6 16 -20q37 -2 54.5 -21.5t17.5 -42t-18.5 -42t-55.5 -23.5q-43 -4 -96 -5.5t-98 15.5q-51 -88 -45 -195q55 0 110 -12 q16 16 39 22.5t41 -10.5q8 -6 14.5 -16t8.5 -21q0 -16 -4 -22q2 -4 4 -5t6 -5q35 -37 27.5 -70t-38 -54.5t-72.5 -28.5t-79 7l-20 -20q31 -47 83 -77t112.5 -43t123 -14t113.5 7q104 18 166.5 93t78.5 173h-6q-16 8 -33.5 8t-33.5 -4q-2 -2 -7.5 -2t-2.5 2q2 4 6 5t8 3 q16 4 34.5 4t34.5 -4zM1350 487q12 -4 31.5 -4t37 6.5t26.5 18.5t3 35q-8 29 -38 36t-54 -4q0 -2 1 -2t1 -2q4 -4 -7.5 -8t-15.5 0q-27 33 -67.5 30t-67.5 -34q8 -4 10 -8q6 -4 -5 -9t-15 -1q-14 12 -34.5 16t-37.5 -4q-2 -2 -4 -2t-6 -2q-14 -8 -21 -23q-6 -14 -1.5 -26.5 t14.5 -22.5q8 2 16 0q4 -2 2 -5t-4 -3q-10 -6 -8 -15.5t8 -17.5q8 -10 15.5 -5t11.5 15q4 4 6 5q6 4 13 4t5 -6l-2 -5q20 -4 47 -7t52.5 -1t47 10.5t33.5 26.5q-4 2 -6 2t-6 2q-8 2 3.5 7t15.5 3zM899 657q20 -4 29.5 -19t-0.5 -34q-8 -18 -25.5 -26.5t-38.5 -6.5 q-16 2 -28.5 15.5t-8.5 31.5t21.5 26.5t34.5 10.5q6 2 16 2zM887 580q10 2 16 16t4 22q0 20 -22 29q-4 -2 -11 -2q-14 0 -20 -11t-4 -23.5t11.5 -22.5t25.5 -8zM797 348q-4 2 7 7t15 1q14 -14 8 -30q-4 -10 -13 -15.5t-19 -5.5t-16.5 6t-2.5 17q7 14 21 20zM803 317 q2 4 2 13q0 6 -2 8q-2 -2 -6 -10q0 -8 4 -11h2zM807 315zM1028 293q10 6 16 0q2 -4 -1 -6t-5 -4q-14 -6 -25.5 -14.5t-21.5 -18.5q-8 -8 -16 -4q-4 0 -5 3t3 5q12 10 25.5 21.5t29.5 17.5zM956 164q2 -8 -10 -10t-12 4q-2 16 1 32.5t17 30.5q4 4 14.5 4t4.5 -8 q-10 -10 -13.5 -24.5t-1.5 -28.5zM985 84q6 -2 0 -12q-10 -6 -18 0q-25 14 -25 43q-2 10 10.5 11t12.5 -9q4 -19 20 -33zM598 106q6 -4 11 -8t9 -10q2 -2 -4 -8q-8 -4 -19 -7t-20 5q-10 14 3 31q6 10 16 6q4 0 7 -1t-1 -5q0 -1 -2 -3zM557 549q12 -8 12 -29q-2 -27 -26 -41 q-14 -6 -31.5 -7t-28.5 9q-14 4 -14 17q0 8 5 15t9 11q14 10 35 20.5t39 4.5zM537 492q-10 -12 -27 -5h-2q0 4 -4 5h-2q-4 4 -4 11v13q8 8 19 15.5t18 7.5q16 -4 11 -22.5t-9 -24.5z" />
<glyph unicode="P" horiz-adv-x="845" d="M385 514l12 -6l6 -2q4 0 5 2q0 14 -17 24q-8 2 -13 3.5t-11 -3.5zM528 627q10 2 20.5 -2t14.5 -15q4 -12 -7 -18t-21 -8q-10 0 -23.5 3t-11.5 17q4 12 16 17q2 6 12 6zM539 598q0 6 -2 10l-7 6h-4q-2 -4 -2 -10q2 -4 6 -8q2 0 3.5 -1t3.5 -1h2v4zM444 664q-6 -2 -12 2 t-2 12q2 10 23 18q2 0 6 1t6 -1q2 0 3 -1t3 -1q10 -6 2 -18q-13 -12 -29 -12zM453 680v2v-4v2zM817 471q-6 -78 -23.5 -159t-68.5 -144q-4 -4 -6 -8t-6 -8q4 -10 11 -25.5t12 -32t4 -32t-15 -21.5q-31 -16 -49.5 8.5t-28.5 48.5q-68 -39 -151 -49q-2 -12 -12.5 -18t-21.5 -7 t-21.5 4t-14.5 17q-49 2 -97 13.5t-89 37.5q-6 -12 -13.5 -25.5t-16.5 -22.5t-21.5 -13t-26.5 4q-20 10 -12 38.5t18 51.5q-20 4 -31 8q-18 6 -37.5 16.5t-35 26t-25.5 34.5t-8 42q4 47 25.5 92t49.5 82v31v2q-4 2 -2 3t5 3q4 2 7 4t7 4q12 37 38.5 59.5t59.5 30.5t68 2 t63 -24q18 14 45 5t33 -32q2 2 8 2h21h19t20 2q16 18 41.5 27.5t53.5 9.5t53.5 -9t41.5 -28q31 23 69 13.5t44 -50.5q6 -6 6 -4l2 -2l-2 -2q10 0 10 -6zM492 512h-3h3zM496 471q-6 14 -19.5 22.5t-29 8.5t-26.5 -8.5t-13 -26.5h4q35 -14 34 -53q0 -2 -2 -4h26.5t25.5 2 q23 0 45 1t45 3q2 6 12 6q12 2 29 -2q14 4 28.5 6t28.5 6q8 4 12 4q2 2 9 2q6 2 16 7.5t21.5 10.5t21.5 9t14 8v4q-2 14 -10 27.5t-23 17.5q-31 4 -47 -12q4 -4 4 -8l11 -4q-4 2 -8 2q6 -20 4 -41q0 -6 -12.5 -8t-10.5 6v2q2 33 -21.5 55.5t-54 29.5t-61.5 -3.5t-43 -40.5 q6 -6 8 -11q4 -8 6 -14q4 -8 -8 -11t-14 5zM662 293v10q0 8 -5 25l-4 16t-2 16v17q-2 -18 -6 -45t14 -39l3 -2v2zM653 381q0 20 11 35q-6 0 -23 -4q12 -10 12 -29v-2zM385 459q-16 0 -26.5 -12.5t-8.5 -28.5q4 -4 -2 -4q18 -2 36.5 -3t37.5 -1q0 14 -6 27.5t-19 19.5 q-6 -2 -10 2h-2zM143 465q12 -6 24.5 -12.5t27.5 -10.5q4 0 6 -2q18 -6 37.5 -11t42.5 -9h8h2l37 -6q-2 23 12 35t33 16q4 2 10 2q-16 41 -51 64.5t-72 25.5t-70.5 -19.5t-46.5 -70.5v-2zM262 412q-14 2 -27.5 4t-27.5 6q4 -14 7 -27.5t13 -23.5q4 -4 9.5 -7.5t7.5 3.5 q2 8 6 20q2 15 12 25zM207 74q4 10 8 18t8 17q-4 4 -9 8t-9 8h-17q-6 -16 -12 -32.5t-2 -31.5q2 -10 7 -11t9.5 3t9.5 10.5t7 10.5zM57 233q23 -53 77 -74.5t108 -17.5q47 4 96 11.5t92 29.5q23 10 45.5 27.5t30.5 44.5q4 10 2 24.5t-12 -4.5q-4 -6 -7.5 -13t-9.5 -11 q-25 -29 -60.5 -45.5t-74.5 -25.5t-79 -11t-75 2q-18 2 -38.5 6t-39 12.5t-31.5 22.5t-15 37q-4 39 9 72.5t38 62.5q4 4 8 4v29q-14 -18 -28.5 -41t-26 -47.5t-14.5 -49.5t5 -45zM156 193q-18 37 -28.5 77.5t-14.5 81.5q-10 -18 -17.5 -38.5t-9.5 -41t6 -38t29 -27.5 q17 -8 35 -14zM526 330q27 -4 27 -27q0 -16 -18 -24q0 -6 -1.5 -11.5t-3.5 -11.5h2q12 2 19.5 14.5t7.5 26.5t-5 27.5t-15 19.5q-16 10 -38 8t-32 -22q-8 -16 -5 -28.5t11 -25.5l2 5q-16 14 -2 32q20 23 51 17zM530 301q-4 12 -16 16q-14 2 -20 -10v-8q10 4 20 5t16 -9v6z M463 41q8 0 8 6q-4 0 -8 -1t-8 -1q4 -4 8 -4zM715 59q2 18 -5.5 38t-15.5 38q-10 -10 -26 -22q4 -10 8 -20.5t12 -20.5q4 -6 15.5 -17.5t11.5 4.5zM475 61q80 6 148.5 42t107.5 110q31 59 44 123.5t18 130.5h-2q-23 -16 -45.5 -25.5t-49.5 -17.5q-27 -14 -21.5 -44t9.5 -56 q2 -16 -1 -33t-26 -17q-27 0 -30.5 18.5t-0.5 41t3 45t-19 29.5q-37 -4 -72.5 -6.5t-68.5 -2.5q-43 0 -92 2t-98 9q-8 -10 -7.5 -24.5t-9.5 -23.5q-10 -8 -23.5 -10t-23.5 2q-23 8 -25 35t-12 43q-12 4 -24.5 9t-22.5 10v-19v-2q0 -10 1 -22.5t1 -22.5v-2q4 -53 15.5 -103.5 t37.5 -93.5q39 -6 84 -2q35 4 71 9.5t67 21.5q16 8 29.5 17.5t23.5 21.5v2q-16 20 -19.5 45t21.5 43q41 27 86 14q20 -6 28.5 -24.5t4.5 -36.5q-8 -39 -54 -49h-2q-10 -20 -27.5 -36.5t-33.5 -27.5q-47 -27 -105.5 -43t-117.5 -18q47 -39 107 -52.5t126 -9.5zM266 649 q-10 0 -12 4q-10 33 -1 60.5t13 60.5q2 39 2 76t4 74q2 4 13.5 6t11.5 -2q0 -16 -1 -29.5t-3 -30.5v-45q2 -16 6 -30.5t10 -32.5t5 -32.5t-7 -29l-12 -29t-8 -32.5q0 -6 -12.5 -8t-10.5 4q0 4 1 8t1 8zM285 756q-4 -20 -8.5 -41t-0.5 -43q8 14 11 28q6 16 4 29t-6 27z M498 784q-2 29 1 56.5t7 56.5q-6 29 0 59q2 6 12 10.5t12 -5.5q2 -16 2 -31v-31q4 -16 8.5 -33.5t8.5 -34.5q4 -23 1 -46t7 -42q4 -10 -8 -10q2 -14 1 -27.5t-1 -25.5q-2 -8 -13.5 -10t-11.5 8v46.5t-18 39.5q-8 12 -8 20zM524 827q-4 -14 -4 -27.5t6 -23.5q0 14 1 26.5 t-3 24.5zM639 608q6 18 3 36t-7 34t-5 32.5t9 34.5v3v2q4 6 15.5 5t7.5 -12q-10 -18 -4 -36.5t12 -36.5q14 -39 -2 -68q-4 -4 -11.5 -5t-11.5 3q-10 0 -6 8z" />
<glyph unicode="Q" horiz-adv-x="1085" d="M934 702q25 -12 40 -32.5t7 -48.5q-4 -14 -14 -23q20 -8 34.5 -25.5t18.5 -38t-1 -41t-20 -34.5q33 -6 45 -31q12 -20 7.5 -43t-21.5 -39q-25 -31 -60.5 -37t-74.5 0t-79 16.5t-73 14.5q-29 -37 -70.5 -60.5t-86.5 -33.5h-2q-6 -6 -17 -2q-4 0 -6 -1t-6 -1q-37 -4 -86 6 q-2 -29 -18.5 -52.5t-40 -43t-50 -34t-51.5 -20.5q-18 -6 -44.5 -10t-43.5 10q-25 20 -21.5 52t11.5 59q-53 2 -68.5 45t7.5 88h-3q-31 2 -53 17.5t-31.5 38t-3 48t30.5 46.5q25 20 54.5 25t61.5 1t63.5 -15t58.5 -22q39 57 110 88q0 4 9.5 7.5t13.5 1.5q35 14 80 20 q10 2 21 3t22 1h6h18h24.5t26.5 -2q6 0 3 -4q10 -4 17 -5t15 -5q14 33 40 62.5t57.5 48t67.5 21t75 -15.5zM465 567q2 -35 -11.5 -65.5t-33 -58t-41 -54.5t-39.5 -53q25 -37 78 -60q72 55 112.5 137.5t36.5 174.5q-25 -2 -50 -7.5t-52 -13.5zM322 420q-6 -33 8 -68 q35 47 72.5 96.5t35.5 108.5q-29 -14 -54.5 -33.5t-41.5 -48.5q6 -2 3 -5t-9 -7q-8 -14 -14 -43zM442 242q0 8 15 8q-37 8 -73 24.5t-60.5 40t-31.5 56t13 75.5q2 6 10 19q-20 8 -45.5 18.5t-53.5 16.5t-53.5 5t-43.5 -13q-23 -16 -30 -39t-1 -43.5t23.5 -35t46.5 -16.5 q6 0 6 -4q6 2 12 1t2 -5q-10 -18 -14 -40.5t2 -43t21.5 -33t43.5 -12.5l5 -2h2l2 -2q-8 -23 -14.5 -53.5t14.5 -48.5q16 -16 36.5 -14.5t40.5 10.5q18 8 40 20t40.5 29.5t31.5 38t13 43.5zM567 254q31 25 55.5 58.5t42 73.5t26.5 81t7 80q0 4 7 10q-35 27 -93 33h-18 q2 -96 -41 -179t-119 -141q33 -12 67.5 -16t65.5 0zM729 354q33 49 27 109q-6 45 -31 74q0 -74 -34 -149t-87 -126q35 10 64.5 30.5t52.5 49.5q-4 2 0 5t8 7zM973 463q16 8 21 26.5t1 38t-17 36t-32 20.5l-24 -6q-14 0 -11 8q-6 10 9 14q8 2 22 2q23 16 12 45 q-6 18 -23.5 30.5t-35.5 16.5q-68 14 -112 -24.5t-66 -94.5h-2q33 -20 52 -51.5t15 -83.5q-2 -45 -28 -86q29 -2 53 -7t53 -11q31 -8 73 -13.5t68 19.5q31 31 21 62.5t-45 41.5q-12 -6 -29 -6q-10 -2 -10 4.5t6 10.5q0 8 12 8h17z" />
<glyph unicode="R" horiz-adv-x="628" d="M428 496q8 0 6 -4q-8 -23 -15 -43.5t-18 -40.5q-2 -8 -16 -9h-34.5t-37.5 2q-10 -49 -18 -97t-19 -95q0 -4 -6 -6t-10 -2q-12 0 -25.5 1t-25.5 1q-6 0 -6 4q-4 41 -6 81t-7 81v17t-2 17l2 3h-10q-16 0 -33.5 1t-33.5 1q-6 0 -7 4q-4 20 -6 40.5t-6 43.5q0 4 6 6t11 2 q20 0 40.5 -1t41.5 -3q-4 29 -6.5 54.5t-6.5 51.5q0 4 8.5 7t12.5 3q33 -2 65.5 -2t65.5 -2q8 0 8 -4q-2 -8 -4 -25.5t-5 -36t-7.5 -32.5t-10.5 -14q29 -2 57.5 -2t57.5 -2zM410 483q-27 2 -53.5 3t-53.5 1q-8 0 -8 5q4 16 6 31.5t6 31.5q2 10 3 19.5t3 19.5q0 4 1 5t1 3 h-55.5t-54.5 2q4 -29 6 -54.5t6 -51.5q0 -6 -6 -8.5t-10 -2.5q-20 2 -40 2t-40 3l5 -45t-1 -27q20 -2 39.5 -2t40.5 -2q8 0 8 -2q2 -35 4 -71t4 -71q2 -16 2 -29.5t2 -29.5q0 2 9.5 2t19.5 -2q10 47 19.5 96t19.5 97q0 4 6 6t10 2q18 -2 37 -2h35q4 10 9 21t9 24q4 6 5.5 12 t5.5 12v2zM578 582q4 -16 13 -36t5 -36q-6 -18 -11 -36.5t-12 -37.5q-31 -104 -61.5 -205.5t-62.5 -205.5q4 -10 -13 -11h-6q-29 -2 -54.5 1t-51.5 5q-6 0 -9 3q-59 4 -115.5 9t-115.5 9q-8 0 -8 4q-8 100 -15.5 198.5t-17.5 198.5q-2 23 -7 53.5t5 51.5q35 66 67.5 130 t61.5 130q4 4 6 4q8 4 12 4h2h3l110 12q4 2 5 1t-3 -3q43 -4 85 -6t85 -4q8 0 12 -4v-2q27 -55 47.5 -112.5t43.5 -114.5zM549 588q-20 53 -40 106.5t-44 106.5q-10 -2 -21.5 -4t-21.5 -4q0 -8 2 -11q8 4 12 4q8 0 1 -4t-13 -6q10 -37 19.5 -73.5t19.5 -73.5q4 -12 9 -25.5 t9 -30.5q4 4 11 5q12 0 10 -8.5t-13 -8.5h-4q10 -27 11 -49h4q18 0 36.5 4t34.5 8q-2 16 -10 34t-12 30zM231 813q47 -4 91.5 -6t89.5 -6q6 0 8 -2q10 2 21.5 4t23.5 4q-41 4 -82 6l-82 4q-4 2 -2 4q-2 -2 -4 -2h-2zM332 35q14 0 22 -2q29 86 48.5 173t41.5 173 q6 29 13.5 57.5t13.5 57.5q4 12 -3 31.5t-11 31.5q-10 39 -20.5 77t-20.5 79q-4 16 -7 29.5t-8 29.5q-4 10 -6 14.5t6 1.5q-53 4 -105 6.5t-106 6.5q-43 -90 -90 -180q-10 -18 -25.5 -45t-13.5 -44q4 -72 10.5 -144.5t12.5 -145.5q4 -37 6 -74t6 -76q0 -10 1 -19.5t3 -19.5 h-2h11l221 -18h2zM571 508q2 2 2 8h-4q-18 -2 -36.5 -6t-36.5 -6q0 -4 -2 -6q-23 -100 -45.5 -200.5t-51.5 -199.5q6 6 13 6q12 0 5 -7t-16 -7q-4 0 -4 2q-4 -16 -9 -30.5t-11 -30.5q14 0 26.5 -1t24.5 -1q33 102 63.5 202.5t61.5 202.5q4 18 10 37t10 37zM516 532 q12 0 5 -7t-15 -7q-10 0 -4 7t14 7zM502 545q-10 0 -2 5t12 5q12 0 4 -5t-14 -5zM526 537q-12 0 -5 7t16 7q12 0 4.5 -7t-15.5 -7zM547 526q-12 0 -5 7.5t13 7.5q12 0 6 -7.5t-14 -7.5zM449 766q10 0 2.5 -7t-13.5 -7q-12 0 -4.5 7t15.5 7zM449 776q-8 0 2 5t14 5q8 0 -2 -5 t-14 -5zM403 74q12 0 4 -5.5t-14 -5.5q-10 0 -3 5.5t13 5.5zM408 53q12 0 10 -8t-12 -8q-12 0 -10 8t12 8zM426 74q10 0 0 -5.5t-14 -5.5q-10 0 0 5.5t14 5.5z" />
<glyph unicode="S" horiz-adv-x="1748" d="M420 199q-12 0 -5 6t13 6q29 33 55.5 60.5t57 47t67.5 29.5t84 8q29 -2 58.5 -7t60.5 -7q20 -2 39.5 0t40.5 -6q18 -8 10 -23q31 4 60.5 9.5t60.5 9.5q139 23 275.5 49.5t275.5 52.5q6 0 28.5 5t49 9.5t49 4.5t26.5 -9v-4q-12 -14 -35.5 -20t-39.5 -10 q-70 -18 -139.5 -35t-141.5 -31q-66 -14 -131 -28.5t-131 -24.5q-33 -6 -65.5 -11.5t-65.5 -11.5q-12 -4 -26.5 -7t-28.5 -5q8 -4 2 -12q-41 -55 -99.5 -82t-123 -36t-133 -7t-130.5 2q-8 0 -8 4q-10 0 -17 2t-16 6q-8 2 2 8q6 4 19 9q-23 2 -42.5 5t-39.5 11q-8 4 0 8t10 4 q35 4 66.5 9.5t64.5 15.5q-10 -2 -17 -2h-18q-2 -2 -10 -2h-12zM905 301q-25 -18 -26 -27q0 -6 6 -8h14t27 4q47 10 92 17.5t92 15.5q123 23 244 47.5t239 57.5q20 6 40 11t40 11q4 2 11.5 3t12.5 2l5 1h-10l-62 -8t-61 -8q-123 -23 -244 -48.5t-244 -43.5q-27 -4 -52 -8.5 t-54 -8.5q-16 -4 -34 -5t-36 -5zM567 319q-35 -18 -60.5 -47.5t-51.5 -60.5q20 2 37.5 5t35.5 11h2q8 2 15 0q4 0 -2 -6q-39 -25 -81 -36t-85 -15q39 -12 86 -8q10 2 4 -4t-10 -8q-10 0 -17.5 -2.5t-15.5 -6.5q8 -4 14 -4h2q47 0 99.5 -2t104.5 1t101.5 14.5t92.5 37.5 q-10 2 -8.5 10.5t12.5 8.5q10 0 10 -8q25 18 45 45q-14 0 -20 2q-10 -2 -21.5 -4t-21.5 -6q-10 -6 -17 0q-2 8 6 12q6 4 13.5 8t13.5 8q-2 2 -2 6q-2 0 -2 2q-10 0 -19.5 -1t-19.5 3q-6 2 -4 7.5t6 7.5q10 4 19.5 5t19.5 5h6q4 4 8 4q-8 2 -24 2q-12 0 -9 8q4 6 17 6 q6 0 8 3h-8q-41 0 -78 6q-47 8 -100.5 11t-100.5 -20zM641 272q2 0 7 1t3 -3q-4 -6 -14 -6q-20 -4 -36.5 -12t-33.5 -19q-4 -4 -15 -4t-3 4q47 31 92 39zM569 180q12 2 9 -4t-11 -8q-23 -4 -43 -7t-43 -7q-10 -2 -11 3t9 7q23 6 45 9t45 7zM174 199q-10 -4 -12 3t8 11 q37 8 70.5 23.5t68.5 30t71 25.5t75 13q12 2 10 -7t-12 -9q-37 -2 -72 -13.5t-68.5 -25.5t-68.5 -28.5t-70 -22.5zM39 84q-10 -2 -11 2t9 8q59 14 114.5 33.5t116.5 22.5q12 0 4 -5.5t-14 -5.5q-57 -2 -110.5 -21.5t-108.5 -33.5zM260 53q-10 -4 -12 2t8 8q45 10 90 16.5 t90 16.5q12 2 9 -5t-11 -9q-45 -8 -88 -13.5t-86 -15.5zM1137 324q-4 0 -4 2l2 2q35 14 63 16q16 4 33.5 5t34.5 5h2q0 -2 -2 -4q-31 -10 -64.5 -12t-64.5 -14zM1466 383q-2 -2 -4 0t2 2q31 16 64 18q16 2 33.5 4.5t33.5 6.5q6 0 2 -4q-35 -10 -66.5 -11.5t-64.5 -15.5z M498 236q12 0 4 -6.5t-15 -6.5q-12 0 -3.5 6.5t14.5 6.5zM530 246q8 0 -2 -5t-14 -5q-10 0 1 5t15 5zM526 266q-10 0 -3 6.5t14 6.5q12 0 3.5 -6.5t-14.5 -6.5zM504 242q-12 0 -10 9t12 9q12 0 10 -9t-12 -9zM578 281q-10 0 0 5t14 5q10 0 0 -5t-14 -5zM573 287 q0 -6 -12 -8.5t-12 2.5v2q0 4 12 7t12 -1v-2zM608 299q-10 0 1.5 5t15.5 5q8 0 -2.5 -5t-14.5 -5zM578 303q-12 0 -10.5 9.5t12.5 9.5q12 0 10 -9.5t-12 -9.5zM547 291q-12 0 -5 6t15 6q10 0 3 -6t-13 -6zM602 313q-10 0 1 5.5t15 5.5q8 0 -2 -5.5t-14 -5.5zM639 311 q-12 0 -5 7.5t13 7.5q12 0 6 -7.5t-14 -7.5zM682 311q-12 0 -10 8.5t12 8.5q12 0 10 -8.5t-12 -8.5zM862 225q-12 0 -6 7.5t14 7.5q12 0 6 -7.5t-14 -7.5zM862 221q12 0 4 -6t-14 -6q-10 0 -3 6t13 6zM819 195q-12 0 -10 8t12 8q12 0 10 -8t-12 -8zM834 217q-12 0 -5 7t13 7 q12 0 5 -7t-13 -7z" />
<glyph unicode="T" horiz-adv-x="2799" d="M2601 84q43 -4 84 -4h80q6 0 2 -3t-8 -3l-78 4t-80 6q0 -2 1 -2t1 -2q4 -4 -2 -6t-10 2q-2 2 -2 4t-2 4q-10 2 -21.5 2t-21.5 2q10 -2 21 -2t22 -2q-6 10 -8.5 21.5t-4.5 21.5q-12 -25 -37 -39h7h-7q-2 0 -2 -1t-4 -1q-4 -4 -6 -2t-2 6q-16 0 -34.5 1t-34.5 1t-37 7 l-40.5 13.5t-37 6.5t-29.5 -17h19.5t19.5 -2q4 0 -1 -2t-7 -2q-29 2 -53.5 -1t-51.5 9q-10 6 -19 13.5t-26 3.5q-14 -4 -29.5 -7t-31.5 -8q-55 -41 -125 -59t-139 -22q-37 -2 -78 -3.5t-82 2t-81 11.5t-75 24q-45 6 -84 -1t-86 -9q-41 -2 -76.5 6t-72.5 13q4 -8 6 -11 q2 -2 -3 -4t-9 0q-10 6 -13 15q-16 -2 -32.5 -4.5t-32.5 -10.5q-4 -2 -7 -1t3 5q16 6 32.5 9.5t32.5 5.5q-10 16 -5 33.5t17.5 32t31 25.5t36.5 15q10 2 25.5 1t32.5 -3q10 27 29.5 49.5t45.5 32.5q-16 98 27 180t127 140q-59 -27 -108.5 -69t-96.5 -90t-92 -98.5t-94 -95.5 q2 0 3 -1t-1 -1q-8 -16 -17.5 -30.5t-19.5 -30.5q-6 -10 -12.5 -19.5t-14.5 -19.5t-21.5 -15.5t-23.5 5.5q-8 8 0 20t21 25q-41 -27 -88 -45.5t-101 -24.5q-25 -2 -57.5 -4t-66 2t-62.5 17.5t-43 39.5q-10 16 -10 33q-18 4 -37 7t-35 10q-47 14 -91 30.5t-91 30.5h-4 q-8 4 -15 4q-14 4 -28.5 7t-28.5 7q-10 2 -19.5 3t-19.5 1q-25 2 -60.5 -4t-65.5 -20t-46 -38t-2 -54q12 -25 41 -33t55.5 -2t37.5 24.5t-11 43.5q-4 2 2 4t8 0q27 -29 16.5 -51.5t-36 -35t-57 -11.5t-48.5 24q-41 49 -30.5 82t47 50t85 22.5t82.5 3.5q-14 6 -20 20 q-12 18 -9 37.5t8 37t3 35t-22 33.5q-4 4 -1 6.5t7 2.5q41 2 66.5 -15.5t41 -46.5t21.5 -63.5t8 -67.5v-2q37 -10 72.5 -23.5t72.5 -25.5q16 -4 43 -11.5t58 -13.5q-4 39 14 78t57 51q27 8 57.5 -2t50 -30.5t19.5 -44t-35 -39.5q16 12 19 32q4 16 0 31.5t-19 26.5 q-25 25 -54 21.5t-53 -22t-39 -48t-11 -56.5q20 -4 38.5 -6t37.5 -2q-37 -4 -74 0q6 -25 31 -43q45 -31 100 -39t110.5 1t107.5 33t95 54h2q-16 -10 -30.5 -17t-30.5 -11q-23 -6 -56.5 -4t-48.5 24q-16 25 -1.5 43t40.5 23q20 2 44 -4.5t47.5 -11.5t47 -5t44.5 14q8 8 12 11 q2 2 6 2q47 45 93 95t93.5 98t99.5 88t111 65q4 2 9.5 4t9.5 4q-47 -8 -101.5 -16.5t-105.5 -5t-96 24t-72 69.5q-12 20 -12 39q-16 4 -31.5 8t-30.5 8q-23 4 -54.5 11t-64.5 12q20 2 39 1t35 -6q27 -6 52.5 -13t52.5 -11q-2 45 32.5 78.5t85.5 29.5q27 -2 36 -19t4 -38.5 t-21.5 -40t-36.5 -24.5q-39 -8 -90 2q0 -4 4 -13q31 -55 77 -78.5t98 -28.5t108.5 3t107.5 18q8 4 29 13q0 10 12 14q16 35 47 51q8 4 33 12.5t29 12.5q4 10 4 24.5t-2 26.5q-4 20 -8.5 37.5t-2 31t11.5 23.5t34 16q20 6 29 -7t14.5 -33.5t6.5 -41t3 -32.5q6 -23 12 -27 t29 -10q10 -4 18 -7t15 -12q10 -14 15 -30.5t9 -32.5q4 -2 8 -6q61 -10 115.5 -44t92.5 -83t54.5 -110.5t1.5 -125.5q-10 -53 -37.5 -90t-62.5 -65q20 2 43 10q8 2 20.5 7t20.5 1q10 -4 17.5 -13t17.5 -14q10 -2 21.5 -3t21.5 1q14 18 26.5 26.5t36.5 -1.5q51 -20 119 -31 q-2 31 -14 58.5t-19 56.5q-4 16 -4 27q-20 47 -20 106q0 4 5 6t7 -2q4 -25 8 -50.5t9 -51.5q14 -37 34.5 -71t42.5 -69q6 33 4 67t-30 54q-6 4 -10.5 12.5t-2.5 14.5q2 12 5.5 22.5t7.5 20.5q-10 27 -16.5 51.5t-8.5 50.5q-4 51 0 99.5t21 95.5q-4 10 -5.5 19.5t5.5 19.5 q10 23 21 31t34 12q6 0 4 -3t-6 -5q-10 -14 -19.5 -30.5t-17.5 -33.5q4 -27 12 -54.5t-2 -45.5q-43 -70 -2 -139q2 -4 5 -8.5t3 -8.5q-2 -41 -2 -73.5t29 -67.5q8 -10 6 -24.5t-6 -30t-10 -28.5t-8 -20q0 -2 -2 -4v-2q16 10 23 27.5t11 40.5q0 16 2 24q4 31 3 61t6 52 q2 4 7 5t5 -3q4 -29 0 -56.5t-8 -55.5q-2 -8 -2 -14.5t-2 -14.5q-4 -45 16 -80zM2542 664q-27 -8 -27 -41q6 10 12.5 20.5t14.5 20.5zM2511 317q4 16 2 32t-12 32q-4 10 -8.5 24.5t-4.5 24.5q2 18 6.5 36.5t9.5 36t6 36t-3 36.5q-18 -55 -19.5 -116.5t15.5 -114.5 q2 -6 3 -13.5t5 -13.5zM1366 786q-8 18 -30.5 19.5t-46 -11t-41 -34t-17.5 -43.5q4 0 8 -2q18 -2 46 -2t49.5 7t32.5 22t-1 44zM305 342q-2 -25 8.5 -38t25.5 -19t33.5 -9.5t37.5 -9.5q-2 29 -8.5 58.5t-18.5 55.5t-32.5 43t-53.5 21q23 -25 15.5 -47t-7.5 -55zM1067 158 q25 12 48.5 28.5t45.5 32.5q-35 -10 -72.5 -1t-74.5 13q-10 0 -20.5 -1t-18.5 -6t-12.5 -14t0.5 -22q2 -16 18 -24q18 -10 42 -12t44 6zM1128 147q10 16 19.5 32t19.5 32l-10 -10q-14 -18 -33.5 -32.5t-31.5 -35.5q-6 -10 -5 -12q2 -6 8.5 -7t12.5 5t11 13t9 15zM1966 598 l-4 -4q90 -47 151.5 -121t77.5 -170q-2 51 -17 100.5t-44 89t-71 67.5t-93 38zM1952 588q-4 0 -6 -1t-7 1q-23 -12 -43 -10q4 -4 5.5 -6.5t5.5 -6.5q31 -20 72.5 -27.5t72.5 -19.5h2q-23 20 -48 38t-54 32zM1794 696q-29 -14 -54.5 -24t-35.5 -39q6 -20 33 -19q23 16 39 0 q18 -16 40.5 -16t38.5 20q8 10 21.5 11.5t21.5 -6.5q8 0 14.5 1t12.5 1l4 4q-4 25 -13 46t-38 25q-23 0 -37 21q-4 4 -8 25.5t-8 44t-9.5 41t-9.5 16.5q-2 -2 0 -18.5t5.5 -37t5.5 -41t0 -28.5q-7 -19 -23 -27zM1749 580l-2 2q-4 -4 -8 -4t-8 -3v-2zM1718 573q-18 0 -35 11 q-23 -27 -47 -52.5t-46.5 -53t-40 -58.5t-23.5 -66q-10 -51 -13.5 -108.5t13.5 -110.5l2 -2l2 -2q2 0 4 2q8 8 22.5 19.5t27.5 24.5t23.5 27.5t12.5 26.5q2 25 0 49.5t-2 47.5q0 35 1 69.5t11 69.5q25 76 86 102zM1712 559q-33 -18 -50 -47t-25.5 -62.5t-8.5 -70.5t2 -72 q8 66 29.5 129.5t52.5 122.5zM1671 594q-49 -23 -91 -58.5t-71.5 -80.5t-44 -95.5t-4.5 -101.5q18 -6 31 -25q16 -20 -6 -43q10 -18 22 -32q-10 47 -7 98t13 96q8 37 27 68t42.5 58.5t48 55t46.5 56.5q-2 0 -6 4zM1481 203q2 27 -17 37q4 -10 7.5 -19.5t7.5 -19.5q0 2 2 2z M1423 242q-23 -6 -44 -23.5t-25 -42.5q23 -2 47 -3t43 3q-6 16 -11.5 33t-9.5 33zM1352 170v-13t4 -18q16 -43 55 -46t78 13q-27 27 -41 58q-2 0 -3 -1t-5 -1q-6 -4 -13.5 -3t-15.5 1q-14 2 -26.5 5t-24.5 7q-4 0 -5 -1t-3 -1zM1360 55q53 -2 93 7.5t83 5.5q-27 16 -47 36 q-25 -10 -52.5 -15t-50 -1t-36 20.5t-9.5 51.5q0 4 1 6t1 4q-170 -4 -114 -98q31 -2 63.5 -8.5t67.5 -8.5zM1534 127q25 -23 53.5 -37t61.5 -24q-25 76 -25 155q-10 -29 -33.5 -50t-46.5 -38q-2 -2 -10 -6zM1663 63q47 -10 98 -11t99 3q0 63 -8.5 128t-17.5 127.5t-17.5 126 t-8.5 126.5q-29 0 -53 12q-20 -4 -29 -8q-61 -117 -82.5 -249t19.5 -255zM2032 90q10 129 -29 247t-109 222q-14 8 -24 23q-25 -16 -49 -19q0 -63 8 -125.5t17 -126t17.5 -127t8.5 -127.5q39 4 80 11.5t80 21.5zM2044 96q51 23 89 56.5t52 87.5q0 119 -74 215q4 -16 0 -31.5 t-20 -30.5q-14 -12 -31.5 -14t-32 5t-22.5 21.5t-4 36.5q2 18 13 25.5t23.5 5.5t23 -12t14.5 -25q0 -4 -6.5 -5t-6.5 1t-5 12.5t-12 18.5t-14.5 10t-13.5 -12q-8 -16 -2 -37q10 -35 40 -40t40 36q14 63 -47 92q-29 10 -64.5 16.5t-68.5 20.5q66 -104 102.5 -217t26.5 -236z M2523 90q2 2 2 4q-12 18 -24.5 37t-22.5 37q14 -37 16 -70q0 2 -6 -4q10 -2 17.5 -2t17.5 -2zM750 174q41 4 79 23h2q-12 -12 -33 -17.5t-48 -5.5zM997 510q-25 18 -45 38.5t-32.5 42t-13.5 44t16 45.5q-4 -16 -7 -27q-4 -53 27 -81.5t68 -57.5q4 -2 -2.5 -4t-10.5 0z M922 680q14 43 48 56.5t74 11.5q-57 -6 -92 -35q-10 -8 -17 -16.5t-13 -16.5z" />
<glyph unicode="U" horiz-adv-x="1124" d="M643 504q-82 -78 -158.5 -158t-154.5 -160q-18 -18 -42 -45.5t-50.5 -54.5t-53 -48.5t-53.5 -29.5q-16 -6 -26.5 -6t-26.5 10l-5 5t-1 8q2 4 4 7t4 7l2 2q31 41 63 76q-2 0 -4 2q-4 4 -22.5 20.5t-35.5 36t-26.5 37.5t4.5 27q14 8 31 2t29 -15q18 -12 35.5 -27.5 t33.5 -31.5q74 82 153 161t157 156q59 59 120.5 120t127.5 116q12 10 26 24.5t30.5 28.5t34 24.5t33.5 10.5q29 4 34 -12.5t-7 -36.5q37 -14 73 -41t63.5 -62.5t43 -76.5t13.5 -84q-2 -41 -15.5 -85t-35 -85t-51 -75t-66.5 -54q-6 -4 -23.5 1t-13.5 13q27 43 32 96t-1 101 q-2 29 -7.5 59.5t-21.5 52.5q-18 27 -51 62.5t-68 38.5q-31 -29 -62.5 -58.5t-64.5 -58.5zM948 258q10 10 17.5 19.5t15.5 19.5q-8 -4 -25 0q-2 -10 -3 -19.5t-5 -19.5zM887 748q-49 -61 -101 -111q47 -8 84 -45q14 4 29 -2q12 -10 3 -13.5t-19 1.5q6 -6 14 -19q4 4 13.5 3 t15.5 -5q14 -10 3 -12t-22 2q23 -39 35 -84q4 4 14.5 3t16.5 -5q8 -6 7 -9t-7 -4.5t-13.5 -1.5t-11.5 5l-2 2q0 -4 1 -7.5t1 -7.5q16 8 29 -2q14 -10 0 -14t-25 2q2 -6 2 -12t2 -13q4 2 13.5 2t13.5 -4q2 0 2 -2q16 4 25 -4q8 -6 7 -9t-7 -4t-13.5 -1t-11.5 4l-2 2 q-14 -4 -25 2v-12q12 0 19 -6q2 0 6 -5q12 4 21 -4q8 -6 7 -9t-7.5 -4t-13.5 -1t-11 4l-6 6h-15v-24q12 0 23 -6q14 -10 0 -10.5t-23 3.5v-6q12 0 17 -4q8 -6 8 -8q31 43 51 107q-4 -4 -14 -3.5t-14 5.5q-8 6 -7.5 9t7 4t13.5 -1t11 -4l6 -6q12 49 13 98q-4 -4 -13.5 -4 t-15.5 4q-16 10 -1 14t25 -2q4 -4 5 -6q0 78 -38 141.5t-124 92.5zM158 131q6 6 18 23q-16 14 -31.5 28.5t-31.5 28.5q-8 8 -15 10q0 2 -2 2q-6 -6 -6 -10q0 -10 6 -18.5t13 -14.5q20 -29 49 -49zM272 180q41 41 79 82t79 82q57 59 115.5 115.5t118.5 111.5q16 16 35.5 34 t39.5 34q0 2 2 2q31 29 60.5 58.5t52.5 64.5q-12 -10 -24.5 -20.5t-24.5 -20.5q-168 -143 -330 -302t-305 -331q27 23 53 45t49 45zM864 643q8 -6 7 -9t-7 -4t-13 0t-11 5l-2 2q-23 4 -27 14q0 6 2 11q2 4 8 4t13.5 -3.5t12.5 -7.5t3 -6v-2q6 0 14 -4zM885 612q6 -4 3 -5 t-9.5 -1t-13.5 2t-9 4q-6 4 -3 5t9 0t13.5 -2t9.5 -3zM1008 442q-16 10 -1 13.5t23 -2.5q16 -10 1 -13.5t-23 2.5zM1008 479q-6 4 -3 5t9 0t13 -2t9 -3q6 -4 3 -6t-9 -1t-13 3t-9 4z" />
<glyph unicode="V" horiz-adv-x="327" d="M219 807q0 -12 -1 -24.5t-3 -24.5q25 -4 44.5 -17.5t29.5 -35.5q14 -41 -14.5 -58.5t-63.5 -21.5q-6 0 -4 4t6 6q14 2 30.5 5t26.5 15q12 14 9 32t-13 30q-20 25 -53 31q-6 -49 -18.5 -98.5t-22.5 -98.5q-16 -80 -29.5 -161t-27.5 -163q-4 -18 -7.5 -44.5t-8.5 -53.5 t-12 -51.5t-19 -40.5q-12 -18 -35 -19q-8 0 -8 5v12v2q10 111 28.5 221.5t38.5 220.5q12 61 24.5 123t28.5 123q2 8 7 29q-8 4 2 8q4 20 11 38.5t19 28.5q16 16 26.5 6t8.5 -28zM156 600q8 35 18 74t16 78q-4 2 -10 2q-2 -2 -2 -4q-41 -158 -72.5 -321t-48.5 -325 q6 25 13.5 49.5t11.5 47.5q8 41 13 82t14 82q10 59 22.5 117.5t24.5 117.5zM190 762q2 8 2.5 16t0.5 17q-4 -8 -6.5 -15.5t-4.5 -17.5h8zM115 758q8 0 6 -4t-6 -4q-18 0 -26.5 -11.5t-8.5 -26t7 -28.5t17 -22q4 -4 -2 -7.5t-10 0.5q-14 12 -20 28.5t-4 33t13 29t34 12.5z M127 731q-10 -8 -9 -18.5t5 -20.5q4 -4 -3 -7t-9 1q-18 29 6 47q4 4 10 2q4 0 0 -4z" />
<glyph unicode="W" horiz-adv-x="1232" d="M631 782q8 0 -2.5 -5t-14.5 -5q-8 0 2.5 5t14.5 5zM618 758q6 0 13.5 6t-4.5 6q-4 0 -11.5 -4t-3.5 -8q-4 0 -12 -5t4 -5q4 0 11 4t3 6zM600 461q14 -10 15 -23.5t-11 -23.5q10 -8 14.5 -19.5t8.5 -21.5q6 6 14 6h2q2 16 4 32.5t-2 32.5v2h-12q-12 -2 -10 7.5t12 9.5 q14 2 27.5 0t27.5 0q12 0 10 -9.5t-12 -9.5h-18q2 -16 0 -33.5t-2 -33.5q4 0 6 -1t6 1q4 0 8 -2t2 -6q0 -4 -4 -6.5t-8 -4.5q-10 0 -22.5 1t-22.5 3q-6 0 -6 5q-4 -4 -12.5 -5.5t-10.5 5.5q-4 6 -8 17t-10 17v-13t-2 -13t-12.5 -10.5t-12.5 6.5q-2 16 -7 34.5t-1 34.5 q0 6 8 15q4 4 6 4q19 10 35 2zM590 422q4 10 2 16q-6 6 -10 8q2 -8 2 -22q4 0 4 -2h2zM725 371q-2 -8 -12.5 -10.5t-12.5 8.5q0 16 -1 33.5t-1 35.5q0 4 8.5 7.5t12.5 0.5q10 10 23.5 8.5t23.5 -14.5q16 -23 -1 -41t-38 -14q-2 -4 -2 -14zM729 408q4 -12 14 0q16 18 -6 26 q0 2 -2 2q-2 -2 -2 -4t-2 -4q-2 -6 -2 -20zM516 344q37 6 60.5 -12.5t56.5 -26.5q6 -2 -4.5 -7t-14.5 -3q-16 4 -29.5 12t-27.5 17q-4 2 -15.5 6t-22.5 5t-18 -3t-3 -17q6 -20 20 -24q2 -2 -8 -6t-14 -2q-12 6 -18.5 18t1.5 27q4 8 15.5 11t21.5 5zM836 322q12 -14 6 -24.5 t-19.5 -14.5t-30 -5.5t-24.5 3.5q-4 2 6 6t14 2q12 -6 18.5 -1t6.5 13t-6 16.5t-16 10.5q-20 6 -39 1t-37 -16q-31 -16 -64 -18q-12 -2 -4 4t15 6q18 2 41.5 13.5t46 19.5t45.5 7.5t41 -23.5zM479 213h-6t0 4q10 6 15.5 14.5t9.5 18.5q2 2 12 5t10 -1v-4q8 8 25 8q8 0 8 -6 q6 0 6 -6q0 -4 4 -17q0 2 1 2t1 2l6 7q-2 0 -6 4q-4 2 2 8q10 8 17 2q8 -2 12 -10q2 0 3 -1t3 -1t2 -4q4 4 6 4h-2q-2 0 -6 1t-4 5q2 8 14 8q10 2 18.5 -2t6.5 -16q-4 -16 -16 -29q-4 -2 -10.5 -3t-8.5 3q-4 4 -4 8q-4 -4 -13.5 -7t-15.5 1q-6 2 -6 8q-4 -8 -8 -10 q-8 -6 -19.5 -7t-15.5 9q-4 -4 -13 -5t-9 1v14l-2 -2q-3 -2 -17 -6zM522 219v2q4 2 7 4t8 4q-6 0 -15 4v3v-17zM657 195q-2 -4 -13 -6.5t-11 1.5q4 23 12 43.5t8 42.5q0 4 12.5 6.5t12.5 0.5q-2 -23 -9.5 -44t-11.5 -44zM836 197q-6 -6 -17 -7q-16 4 -24 5q-10 0 -9 8 q6 6 15 6v8q-4 -4 -6 0q-4 -12 -13.5 -19.5t-21.5 -2.5q-8 4 -10 8q-14 -10 -29 -4q-12 -10 -26.5 -5t-26.5 11q-6 4 0 10q2 4 5 6t7 6q-6 14 -4 23q4 8 12 10t14 -2q6 -6 7 -16q6 0 2 -9q-2 -4 -4 -5t-7 -5q-2 -2 -4 -3t-4 -5q4 0 8 -4h7q0 2 6 2q-4 12 0 25q4 10 15 11 t17 -5q8 0 13 -2q12 12 30 8q8 -2 5 -10q2 -2 2 -3t2 -4q4 8 4 13q2 8 13 10t11 -6v-43l2 -2q11 0 9 -8zM737 217v14l-2 -2v-8q0 -4 2 -4zM772 229q-2 -2 -2 -3t-2 -3q0 -8 2 -10q2 2 2 6v10zM639 154q-14 -6 -31.5 -16.5t-37 -17.5t-39 -7t-33.5 14q-23 23 -8.5 38t40.5 11 q10 -2 0 -7t-14 -5q-8 2 -8 -5t4 -12q4 -10 14.5 -16t20.5 -4q23 2 42 14.5t40 20.5q8 4 14 0t-4 -8zM657 154q-12 -2 -10 7t12 9q16 2 31 1t29 -7q10 -4 17 -9t18 -10q4 0 8 -1t8 -1q43 12 10 23q-12 2 -6 10t14 6q29 0 28 -21.5t-23 -31.5q-25 -8 -54 2q-8 4 -15 7t-15 7 q-12 6 -25 7.5t-27 1.5zM668 831q-12 0 -7 7.5t13 9.5q4 8 16 8q10 0 5 -6t-13 -6q0 -13 -14 -13zM682 694q12 0 4 -6t-14 -6q-12 0 -4 6t14 6zM682 709q12 0 4 -5.5t-14 -5.5q-12 0 -4 5.5t14 5.5zM696 686q8 0 -2 -4t-14 -4q-10 0 1 4t15 4zM690 659q-12 0 -4 5.5t14 5.5 q10 0 2 -5.5t-12 -5.5zM614 772q-8 0 2.5 5t14.5 5q8 0 -2.5 -5t-14.5 -5zM627 770q12 0 5 -6t-14 -6q4 -2 -3 -6t-11 -4q-12 0 -4 5t12 5q-4 4 3.5 8t11.5 4zM201 70q4 29 -4.5 55.5t-24.5 50.5q-4 4 5 7t11 -1q16 -29 25.5 -56.5t5.5 -57.5q4 -2 7 -2t7 -3v13.5t3 13.5 q2 4 11 5t7 -3q-2 -10 -2 -17t-2 -18q16 -6 24 -14q20 27 50 27q12 0 24 -7q0 4 6 5q10 4 22.5 6t22.5 2q0 2 -2 2v315q0 4 4 4q-8 0 -8 4q-2 2 1 4.5t7 2.5q8 4 16.5 4t16.5 2h4q10 86 57.5 154.5t133.5 84.5q2 6 2 21v19t-4 7q-12 0 -24.5 -1t-24.5 3q-4 0 -5 3 q-4 23 -3 47t1 47q0 4 6.5 6t10.5 2q12 0 23.5 -1t21.5 -3q2 18 2 37.5v38.5l2 2v2h2q2 2 6 2q0 2 2 2h6q8 0 16.5 1t16.5 1q12 0 23.5 1t23.5 -1q8 0 8 -2q2 -20 3 -40t-1 -38q0 -6 9.5 -8t20.5 -2h22.5t15.5 -2q4 0 4 -2q0 -45 -8 -80q-2 -4 -7 -5t-9 -1h-54l-6 -56 q41 -8 77 -28.5t60 -55.5q16 -20 27.5 -41.5t17.5 -46.5q4 -16 6.5 -28.5t7.5 -20.5t15 -11t33 -3q8 0 8 -6q-10 -92 -24.5 -183.5t-4.5 -185.5q25 2 49.5 4t49.5 -4q10 -2 26 -6v6q-8 63 -35 129q-12 25 -25 48.5t-24 45.5q-2 4 6.5 6t10.5 0q16 -23 28.5 -47t22.5 -49 q10 -16 18.5 -34.5t12.5 -37.5q2 37 6 73t28 69q2 4 10.5 4t6.5 -2q-18 -25 -24.5 -50.5t-7.5 -53t-2 -56.5t-7 -55q10 14 21.5 27.5t17.5 29.5q0 4 8 6t8 -2q4 -10 -1 -19t-9 -20q-8 -33 25 -41q4 0 -0.5 -2t-8.5 -4q8 -2 15.5 -3t17.5 -3q10 0 5 -6t-11 -6q-25 2 -49.5 9 t-46.5 17q-12 -4 -13 0v4q-23 8 -45 13.5t-45 1.5q-35 -4 -67.5 -7t-67.5 7q-8 2 -1 8t11 4q16 -4 21 -4q-2 47 3 92t11 92q4 25 7 49.5t8 51.5q0 4 2 16t1 22.5t-6.5 10.5t-19.5 -21q-4 -2 -11 -4t-7 4q6 45 -1.5 91.5t-27 85t-52 68.5t-79.5 40q-10 -4 -10 0q-2 2 -7 2h-4 h-2q-8 2 -24 2h-4q-10 0 -17 -2q-4 -2 -10 -3t-8 1q-43 -8 -77 -33.5t-55.5 -60.5t-33.5 -78t-12 -88q0 -4 -6.5 -6t-10.5 0q-12 8 -20 10v-305l-2 -2q29 0 57.5 -5t58.5 -14q78 -20 150 -18t149 -2q10 0 5 -6t-11 -6q-53 4 -110.5 -2.5t-112.5 6.5q-59 12 -118.5 26.5 t-119.5 -0.5q16 -8 35 -13t33 5q2 2 10.5 2t1.5 -4q-29 -20 -59 -8q-10 4 -21.5 9t-21.5 9q-25 8 -39 -4t-25 -33q-4 -4 -12 -5t-6 1q2 4 4 7.5t4 7.5q-8 0 -10 2q-4 4 -8 5t-8 5q-6 0 -7 2q-10 4 -22 8q-12 -4 -12 2q-41 8 -84 3t-78 -9q-12 -2 -9 4t11 8q27 4 56.5 8.5 t60.5 4.5q-2 4 -3 10t-6 10q-2 4 6.5 7t12.5 -1q8 -16 8 -26q6 -2 13.5 -2t13.5 -2zM1116 27q-2 0 -4 -2q8 -2 14.5 -4.5t14.5 -6.5q-14 12 -13 29l2 2q-8 -6 -14 -18zM905 420q-2 41 -16.5 76.5t-36.5 64.5q27 -37 38 -85t7 -97q8 4 16.5 5t22.5 1q0 -2 2 -2l2 -2 q2 -29 -5 -60.5t-11 -60.5q-8 -53 -13.5 -108.5t-3.5 -110.5h29q-6 66 -1 129t15 129q2 16 4 32.5t4 33.5q4 16 6.5 28.5t-16.5 12.5q-23 0 -41 8q-2 2 -2 6zM594 733q2 -23 17.5 -22.5t31.5 2.5l2 2h2q8 0 8 -2v-6q4 8 15 8q12 0 4 -5t-15 -5h-4q0 -4 -1 -7.5t-1 -7.5 q4 2 9.5 4t7.5 2q10 0 -0.5 -5t-14.5 -5h-2v-18q6 6 13 6q12 0 6 -7.5t-15 -7.5h-4v-4q4 2 15 2h4h18t17 -2q2 14 2 27.5t2 28.5q0 8 12 8q2 2 6 2h2q14 0 27.5 -1t25.5 -1q2 8 5.5 21.5t3.5 23.5t-5.5 17t-19.5 7q-10 0 -20.5 -1t-20.5 -1h-2h-2q-8 0 -8 5q0 23 1 43t3 43 h-55h-5v-9q4 6 13.5 6t9.5 -8v-4q0 -8 -9 -10t-14 4q0 -16 -1 -29.5t-1 -27.5q0 -4 -2 -4l-2 -2q-2 -2 -8 -2q0 -2 -2 -3h-2h-4q-10 2 -21.5 4.5t-21.5 2.5v-11q8 8 14 9q12 0 5 -7.5t-13 -7.5h-6v-10q8 4 10 4q12 0 4 -6t-14 -6v-27zM436 403q-6 -2 -13 -2t-13 -2h2 q8 -2 13 -3t11 -3v10z" />
<glyph unicode="X" horiz-adv-x="1259" d="M195 29q-45 10 -98.5 28.5t-73.5 65.5q0 4 2 4q49 47 111.5 69.5t127.5 39.5q2 2 10 6q-2 16 -1 29.5t3 27.5v6q10 74 48 139.5t90 120.5q23 25 52.5 54.5t61.5 39.5q8 4 15.5 4.5t15.5 2.5q-6 0 -10 4t-1 7t7 3q41 25 92 49.5t104.5 41.5t108.5 22.5t105 -7.5 q33 -8 71.5 -22t73.5 -35.5t62.5 -50.5t37.5 -66q10 -27 16.5 -55.5t-3.5 -50.5q-6 -12 -20.5 -18.5t-32 -8.5t-35 -1t-29.5 5q-25 8 -24 25.5t16.5 32t36 21.5t36.5 -7q4 -4 -11 -9t-19 -1q-6 6 -7 6t-8 -6q-4 -4 -7 -9.5t-5 -9.5q-4 -18 9.5 -26t29.5 -8t27.5 2t13.5 20 v20.5t-4 20.5v6q-4 0 -4 2q-23 18 -51.5 32.5t-59.5 22t-63.5 5.5t-59.5 -15q-41 -16 -62.5 -49t-31.5 -74q-4 -12 -5 -25.5t-11 -23.5q-4 -6 -14.5 -9t-18.5 -7q-6 -2 -1 -6t12 -8.5t13.5 -6.5t4.5 0q8 -6 10 -27.5t1 -47t-3 -49t-2 -35.5q37 -2 81 -13.5t86 -32t75.5 -48 t52.5 -62.5q0 -6 -9 -6q-47 -27 -104 -37t-111 -18q-178 -20 -358 -25q-92 0 -182 5.5t-180 25.5zM811 279q-68 -8 -138.5 -11.5t-142.5 0.5q0 -16 2 -20q2 -12 3.5 -23.5t3.5 -23.5q70 -4 139.5 1t134.5 25v2v25t-2 25zM426 547q-41 -51 -74 -109.5t-43 -124.5 q12 -2 23.5 -3t23.5 -5q2 4 3 7t6 7q4 4 8 7q4 0 6 1t4 1h2q33 0 66.5 -2t64.5 -17q6 0 10 -20q72 -4 143.5 -1t141.5 11v66q0 18 -20.5 23t-30.5 13v7q12 16 37 22q10 4 18 19.5t15.5 34t12.5 36t11 27.5q12 27 34.5 45t51.5 29q59 20 121.5 16t116.5 -35q-4 10 -7.5 18.5 t-7.5 16.5v2q-37 59 -110 94q2 -2 -2 -5t-9 -3q-8 0 -3 5t10 5h2q-49 25 -101.5 34t-93.5 3q-45 -6 -89 -16.5t-87 -28.5q-10 -4 -22.5 -12t-26 -15.5t-26.5 -13.5t-23 -4q14 -2 39.5 -1t35.5 -9q4 -4 -3 -8.5t-11 -6.5q-18 -4 -37.5 -5t-40.5 -3q-43 -4 -77.5 -37.5 t-61.5 -64.5zM479 182q-29 -4 -59.5 -4t-54.5 15q4 -8 8 -11q33 -14 67.5 -15t69.5 3q-4 29 -7 59.5t-11 59.5q-2 8 -14.5 12t-28 5t-32 1h-28.5q-4 -8 -7 -15t-7 -16q4 4 4 9q2 2 3 2t3 2h4h2q20 0 41 -1t39 -9q6 -2 7 -17.5t3 -21.5q2 -12 3 -24.5t3 -27.5q2 -6 -8 -6z M379 233q-2 -8 -3 -19t7 -15q20 -10 43 -10.5t45 1.5q-4 20 -5 39t-7 39q-4 10 -26.5 11.5t-39.5 1.5q-14 -23 -14 -48zM307 291q-2 -10 -2 -20.5v-22.5q0 -2 -2 -4q18 -8 35 -11q2 14 4 26.5t6 25.5q-10 2 -20.5 3t-20.5 3zM276 229q-20 -6 -61 -17t-80 -27.5t-62.5 -35 t-6.5 -36.5q23 -27 54.5 -40.5t61.5 -23.5q100 -27 205 -33t209 -4q106 2 211.5 9.5t210.5 29.5q39 6 72 19q23 10 11.5 19t-24.5 22q-49 43 -106.5 73.5t-122.5 40.5q-76 -25 -153 -35t-154 -6q0 -4 1 -9t1 -9q2 -8 -5.5 -11t-13.5 -3q-45 -4 -97 -4.5t-93 26.5q-6 0 -2 6 q0 10 1 17.5t3 15.5q-16 4 -30 8t-30 8zM272 203q2 -4 -6 -6t-8 2t-1 5t-1 5q-2 4 6 6t10 -2v-10zM244 201q0 -6 -8.5 -7t-8.5 5v6q0 4 8.5 5t8.5 -5v-4zM289 199q0 4 -4 4q-4 4 3 8t11 0l6 -6q4 -4 -4 -7t-12 1zM209 188q-10 0 -8 6.5t8 6.5q10 0 8 -6.5t-8 -6.5zM659 700 q8 0 7.5 -6t-9.5 -6q-8 0 -6 6t8 6zM678 709q0 2 -2 2q-4 4 3 8t11 0q2 -2 2 -3t2 -3q0 -4 -8 -6t-8 2zM719 723q0 -4 -7 -5t-7 3v6q0 4 7 5t7 -5v-4zM684 686q-8 0 -3 4t9 4q8 0 3 -4t-9 -4zM702 698q-4 0 2.5 3.5t8.5 3.5q6 0 -0.5 -3.5t-10.5 -3.5zM795 367 q0 -4 -8.5 -5.5t-8.5 5.5v2q0 6 8.5 7t8.5 -5v-4zM758 375q-8 0 -3 6t9 6q8 0 3 -6t-9 -6zM782 348q0 6 8.5 7t8.5 -5v-4q0 -4 -8.5 -5t-8.5 3v4zM758 358q-8 0 -3 3.5t9 3.5q8 0 3 -3.5t-9 -3.5zM799 455q-8 0 -7 5t9 5t6 -5t-8 -5zM774 436q-8 0 -4 5t10 5q8 0 3 -5t-9 -5 zM1126 649q2 6 11 6q2 0 10 -4q4 -4 -2 -7t-10 -1q-2 2 -5 2q-8 0 -4 4zM1118 682q8 0 2 -4t-10 -4q-8 0 -2 4t10 4zM1083 702q8 0 3 -5t-9 -5q-8 0 -3 5t9 5zM1087 674q-10 0 -5 4t10 4q10 0 4.5 -4t-9.5 -4zM1098 653q-8 0 -2 4.5t10 4.5q8 0 2 -4.5t-10 -4.5zM1139 631 q-6 0 0 3t10 3q6 0 0 -3t-10 -3zM1120 643q6 0 0 -3t-10 -3t2 3t8 3zM1116 659q-6 0 0 4.5t10 4.5q6 0 0 -4.5t-10 -4.5zM1065 713q8 0 3 -5.5t-9 -5.5q-8 0 -3 5.5t9 5.5z" />
<glyph unicode="Y" horiz-adv-x="833" d="M135 197q2 35 21.5 51t46.5 16q29 94 71.5 184.5t83.5 176.5q25 49 51.5 108.5t75.5 91.5q10 6 30 12.5t28 -12.5q6 -16 4 -34.5t-6 -34.5q-10 -37 -19.5 -72t-5.5 -72q4 -63 26.5 -122.5t51.5 -114.5q16 -31 37.5 -65t32.5 -68q29 -4 48 -21.5t11 -56.5l-2 -4 q10 -8 24.5 -19.5t23.5 -25t7 -26.5t-22 -23q-74 -35 -160 -44.5t-166 -7.5q-39 0 -83 2t-88 9.5t-86 19.5t-77 35q-27 18 -30 32.5t8.5 27t30 23.5t34.5 23q-2 5 -2 11zM743 119q-8 8 -16 14t-18 12q-16 -10 -39 -13t-37 -3q-31 -2 -61.5 -3t-63.5 -1q-12 -8 -21 -8 q-31 -6 -61.5 -6t-60.5 4q-18 4 -41 7t-35 19q-16 2 -32.5 4t-33.5 7q-10 4 -34.5 9t-41.5 15q-8 -6 -21 -15t-24.5 -19.5t-14.5 -21.5t9 -20q47 -29 101 -43q53 -14 108 -20t111 -8q59 -2 120.5 2t120.5 18q10 2 32 7t39 13.5t24 21t-9 28.5zM342 266q-25 -4 -36 -23.5 t-11 -43t11 -44t34 -24.5q12 -2 39 -6t54.5 -4t50 5t28.5 24q6 20 7 42.5t-9 43.5q-8 20 -22.5 23t-32.5 5q-29 4 -56.5 4t-56.5 -2zM686 217q-12 12 -22.5 13t-26.5 1q-27 2 -51.5 3.5t-50.5 1.5q10 -25 6 -52.5t-21 -46.5q74 -2 144 6q29 4 37 27.5t-15 46.5zM223 266 l-4 -4q6 0 8 -2q16 -4 34 -5t36 -3q23 23 49 24h2q45 2 90 0q16 0 41 -1t39 -13q4 -4 12 -16h109l2 -2q-10 31 -28.5 58.5t-32.5 55.5q-25 45 -45.5 93.5t-30.5 99.5q-10 55 -3 101t17 100q0 4 3 18t3 27.5t-4 22.5t-16 1q-27 -16 -41 -39q-35 -43 -58.5 -97t-46.5 -103 q-37 -78 -73.5 -155t-61.5 -161zM213 250q-10 4 -23.5 -2t-22.5 -16.5t-12 -22.5t9 -21q10 -8 23.5 -11t25.5 -7q16 -4 33.5 -7t34.5 -7q-10 23 -7.5 45t13.5 39l-36 4t-36 6h-2zM379 143q-12 2 -26.5 4.5t-22.5 14.5q-16 27 -3 54.5t44 31.5h2h55q10 0 25.5 -1t25.5 -9 q10 -10 12.5 -30t-2.5 -34q-8 -27 -34 -29q-18 -4 -38 -4t-38 2zM367 236q-14 -2 -20.5 -13.5t-5.5 -25t8 -25.5t20 -14q6 0 21.5 -3t31.5 -3t28.5 2t16.5 12q4 12 4 26.5t-4 26.5q-4 10 -13.5 12t-19.5 5q-34 2 -67 0zM207 231q-6 0 -6 5q0 4 10 6t10 0v-2q4 0 0 -4 q-4 -5 -14 -5zM446 723q-6 0 -6 4t10.5 7t10.5 -1v-2q4 0 0 -4q-9 -4 -15 -4zM418 694q-6 0 -6 4t10 7.5t10 -0.5q6 -4 0 -7q-8 -4 -14 -4zM465 741q-6 0 -6 4t10 7.5t10 -0.5v-2q4 0 0 -5q-8 -4 -14 -4zM176 223q-10 0 -4 5t12 5q10 0 3 -5t-11 -5zM233 225q-10 0 -2.5 5.5 t11.5 5.5q10 0 2.5 -5.5t-11.5 -5.5zM174 201q-10 0 -9 8t11 8t9 -8t-11 -8zM365 225q-8 0 1 3t13 3q6 0 -2 -3t-12 -3zM362 207q10 0 4 -5t-12 -5q-10 0 -3 5t11 5zM389 207q-10 0 -3 5t11 5q10 0 3 -5t-11 -5zM465 760q-10 0 -3 5t11 5q10 0 3 -5t-11 -5zM500 766 q-10 0 -3 4t11 4q10 0 3 -4t-11 -4zM500 791q-10 0 -3 4t11 4q10 0 3 -4t-11 -4z" />
<glyph unicode="Z" horiz-adv-x="1161" d="M563 555q-8 0 -10 4q-8 20 -6 41t26 27q10 4 26.5 3t18.5 -16q0 -10 -1 -22t-9 -21q-16 -16 -45 -16zM569 602q0 -16 6 -31q12 0 15 11q6 8 6 28l-2 2q-2 0 -6 2h-10q-7 -6 -9 -12zM590 178q2 4 5 8t7 9q2 4 6 4t8 2h5q4 0 4 -2q-2 -6 -11 -15q-2 0 -2 -4q4 4 6 4 q8 8 17 4q4 -2 2 -4t-4 -2q-4 -2 -4 -5t-4 -5q-10 -10 -27 -6q-8 0 -10 6q0 4 2 6zM412 377q2 0 3 1t5 1t4 -2t-4 -4q-6 -4 -23 -8q-8 0 -10 2q-2 4 1 11t5 11t6 5t9 1q2 0 6 1t4 -3q-2 -4 -4 -7t-2 -7v-2zM412 375q2 -4 2 -2t-2 2zM856 141q-12 -12 -31 -12q-4 0 -4 2t4 4 q2 2 9 2q0 2 2 2q6 6 16 6q8 0 4 -4zM924 639q-6 0 -3 3t7 3h45q-2 14 -3 26.5t-1 24.5q0 4 6 5t6 -1q0 -12 1 -23t3 -22q6 10 13.5 17.5t13.5 17.5q4 2 9 1t1 -5q-8 -10 -16.5 -20.5t-18.5 -20.5h45q6 0 3 -3t-7 -3h-41l6 -31q0 -4 -6 -5t-6 1q-4 20 -6 29l-15.5 -15.5 t-17.5 -15.5q-4 -4 -8 -1t0 7q10 6 18.5 14.5l16.5 16.5h-45zM383 733q-10 6 -18.5 13.5t-18.5 15.5q-4 4 1 7t7 -1q16 -12 23 -18q-4 16 -4 26q0 4 6 5t6 -3q0 -8 4 -24q4 6 5 12t5 12q2 4 8.5 3t4.5 -5q-6 -10 -9.5 -20.5t-7.5 -20.5q6 -6 13.5 -11t13.5 -11q4 -4 -1 -6 t-7 0q-4 4 -13 8q4 -6 9 -19q2 -4 -4.5 -6t-8.5 2q-2 6 -4 12.5t-4 12.5q0 -2 -1 -3t-1 -3q-2 -4 -8 -4t-4 4t3 10t5 12zM887 -39q-2 4 -6 8q-2 -8 0 -20q0 -2 -6.5 -4t-6.5 2q-2 4 -1 9t1 9l-4 -4q-6 -6 -8 -2q-8 0 -2 6q4 6 16 15v2q-4 6 -16 18q-2 4 3 7t9 -1q4 -8 8 -10 q0 4 1.5 8t1.5 8t6 4t6 -2q-2 -4 -2 -10t-2 -12l6 6q2 2 8 2q8 0 2 -6q-6 -4 -14 -12q6 -6 10 -15q4 -4 -2 -7t-8 1zM709 326q-6 20 1 30.5t22.5 13.5t33.5 1t35 -9q37 20 77 25.5t64 -29.5q31 12 62.5 12.5t58.5 -26.5q0 -2 -2 -4q18 2 34.5 0t26.5 -12q6 -8 1 -13.5 t-16 -9.5t-21.5 -6t-12.5 -2q-43 -10 -94 -22.5t-94 4.5q-18 -14 -46 -17.5t-53.5 2.5t-47 21.5t-29.5 40.5zM823 354q2 -2 -5 -5t-13 -3q-8 -4 -15.5 -10t-13.5 -10q-8 -4 -17 0t1 12l12 8t14 8q-25 10 -43 11q-20 0 -15 -18.5t11 -29.5q8 -12 25.5 -24t36 -19.5t38 -6.5 t31.5 14q2 2 4 2q-12 8 -22 17t-18 26q-4 8 6 12t14 -2q27 -47 72 -49t90 10q16 4 31.5 8t31.5 8q10 2 11.5 5.5t-17.5 3.5q-25 2 -55 -5q-10 -2 -12 4.5t8 10.5q12 4 24 4q-20 20 -42.5 22t-47.5 -8q2 -4 2 -6t2 -6q4 -8 -7 -11t-15 5q-16 39 -47 39t-62 -17h2zM102 483 q-16 4 -35.5 5t-31.5 14q-12 10 -9 26.5t11 28.5t22.5 24.5t29.5 21.5t31.5 9t31.5 -12q25 8 47 6t39 -22q2 2 4 2q31 8 54 5t52 -18q12 -4 23.5 -8t23.5 -6q37 84 107 148l2 4q16 16 43 32q76 53 162 72q10 4 19 5t20 5q12 2 30.5 2t32.5 -4t18.5 -14t-16.5 -29 q-41 -35 -80 -76.5t-67.5 -90t-42 -101.5t-2.5 -111q4 -29 13 -60.5t24.5 -61t36 -54t48.5 -37.5q47 -23 100.5 -24.5t104.5 -18.5q6 -6 4 -8q-16 -33 -53 -50t-80 -25.5t-87 -9.5t-75 3q-96 10 -173.5 67.5t-108.5 153.5q-18 57 -17.5 115t17.5 113q-20 2 -45 -4 q-6 -2 -13.5 -3t-13.5 -3l-2 -2q-25 -23 -49.5 -34.5t-56.5 -4.5q-45 10 -78 36q-4 -2 -8.5 -4t-6.5 -2zM561 735q-96 -68 -147 -180q33 -6 67 -6l2 2q29 16 40.5 0t-11.5 -39q-16 -16 -44 -15t-48 3q-6 2 -12.5 2t-12.5 2q-16 -55 -17 -111.5t21 -109.5q35 -92 110 -152.5 t175 -62.5q41 0 83 4t81 14q2 0 17.5 7t30.5 15.5t23.5 16.5t-1.5 10q-23 6 -46.5 8t-48.5 7q-86 10 -138 58t-75 132q-25 80 -10.5 157.5t62.5 147.5q23 33 48 62.5t54 54.5q8 6 18.5 16t15.5 19.5t1 14.5t-29 1q-12 -2 -24.5 -4t-24.5 -6h-4q-2 -2 -4 -2q-84 -23 -152 -66 zM49 535q-2 -12 4 -19.5t15.5 -11.5t20.5 -5t22 -1q-4 4 -8.5 9t-8.5 9q-2 4 9.5 8t15.5 -2q23 -37 65 -49q29 -10 49.5 -5t42.5 21q-10 0 -9 8.5t12 10.5q23 2 45 8t45 6q10 0 30 -4q8 -2 21 0h8q8 -2 25 -2q29 -10 41 21q-10 -6 -15 2q-12 -2 -24.5 -2h-22.5 q-10 4 -20.5 4t-20.5 2q-4 4 -8 0q-35 10 -67.5 27.5t-71.5 7.5q4 -6 8 -15q4 -4 -8.5 -8t-14.5 2q-10 16 -22 28.5t-33 8.5q-16 -2 -29.5 -7t-25.5 -9q-10 -4 -16.5 0t6.5 8q12 4 20 6q-12 8 -25.5 4t-24.5 -14.5t-19.5 -23.5t-10.5 -23zM764 791q-12 0 -6 7t14 7 q12 0 6 -7t-14 -7zM709 776q-12 0 -10.5 9.5t12.5 9.5q6 0 10 -7q2 4 6 5.5t8 1.5q12 0 4 -5.5t-14 -5.5h-4q-4 -8 -12 -8zM676 770q-10 0 -4 7t14 7q10 0 4 -7t-14 -7zM723 770q10 0 4 -8t-14 -8q-10 0 -4 8t14 8zM754 770q-10 0 0 5t14 5q10 0 0 -5t-14 -5zM651 213 q-10 0 -4 7t15 7q12 0 4.5 -7t-15.5 -7zM678 176q-12 0 -3 5t13 5q12 0 4 -5t-14 -5zM655 195q-10 0 -4 7t15 7q12 0 4.5 -7t-15.5 -7zM713 145q-12 0 -4 6.5t14 6.5q12 0 4 -6.5t-14 -6.5zM758 139q-12 0 -5 6.5t15 6.5q10 0 3 -6.5t-13 -6.5zM725 125q-10 0 -5 8t15 8 t4 -8t-14 -8zM668 147q12 0 5 -7t-16 -7q-12 0 -3.5 7t14.5 7zM731 98q-12 0 -5 7.5t15 7.5q10 0 3 -7.5t-13 -7.5zM688 113q-12 0 -4 5t14 5q12 0 4 -5t-14 -5zM780 92q-12 0 -6 8.5t14 8.5q12 0 6 -8.5t-14 -8.5zM774 121q-12 0 -5 7t15 7q10 0 4 -7t-14 -7zM803 131 q-6 0 -6 4q-2 6 10 9t12 -3q2 -4 0 -6q-8 -8 -16 -4zM807 100q-10 0 0 5.5t14 5.5q10 0 0 -5.5t-14 -5.5zM862 104q-8 0 2 5.5t15 5.5q10 0 -1.5 -5.5t-15.5 -5.5zM852 123q6 0 2 -4q-10 -6 -16 -6h-2q-4 0 -5.5 2t3.5 4q8 4 16 4h2zM893 115q-12 0 -5 7t13 7q12 0 5 -7 t-13 -7z" />
<glyph unicode="&#x2000;" />
<glyph unicode="&#x2001;" horiz-adv-x="1365" />
<glyph unicode="&#x2002;" />
<glyph unicode="&#x2003;" horiz-adv-x="1365" />
<glyph unicode="&#x2004;" horiz-adv-x="455" />
<glyph unicode="&#x2005;" horiz-adv-x="341" />
<glyph unicode="&#x2006;" horiz-adv-x="227" />
<glyph unicode="&#x2007;" horiz-adv-x="227" />
<glyph unicode="&#x2008;" horiz-adv-x="170" />
<glyph unicode="&#x2009;" horiz-adv-x="273" />
<glyph unicode="&#x200a;" horiz-adv-x="75" />
<glyph unicode="&#x202f;" horiz-adv-x="273" />
<glyph unicode="&#x205f;" horiz-adv-x="341" />
<glyph unicode="&#x25fc;" horiz-adv-x="1024" d="M0 0v0v0v0v0z" />
</font>
</defs>
</svg>
