<?xml version="1.0" standalone="no"?>
<!DOCTYPE svg PUBLIC "-//W3C//DTD SVG 1.1//EN" "http://www.w3.org/Graphics/SVG/1.1/DTD/svg11.dtd" >
<svg xmlns="http://www.w3.org/2000/svg">
<metadata></metadata>
<defs>
<font id="vermin_vibes_2_nightclubRg" horiz-adv-x="1600" >
<font-face units-per-em="2048" ascent="1638" descent="-410" />
<missing-glyph horiz-adv-x="508" />
<glyph unicode="&#xd;" horiz-adv-x="508" />
<glyph horiz-adv-x="0" />
<glyph horiz-adv-x="0" />
<glyph unicode=" "  horiz-adv-x="508" />
<glyph unicode="&#x09;" horiz-adv-x="508" />
<glyph unicode="&#xa0;" horiz-adv-x="508" />
<glyph unicode="!" horiz-adv-x="300" d="M0 50q0 21 14.5 35.5t35.5 14.5t35.5 -14.5t14.5 -35.5t-14.5 -35.5t-35.5 -14.5t-35.5 14.5t-14.5 35.5zM0 375v975q0 21 14.5 35.5t35.5 14.5t35.5 -14.5t14.5 -35.5v-975q0 -21 -14.5 -35.5t-35.5 -14.5t-35.5 14.5t-14.5 35.5z" />
<glyph unicode="&#x22;" horiz-adv-x="500" d="M0 1150v200q0 21 14.5 35.5t35.5 14.5t35.5 -14.5t14.5 -35.5v-200q0 -21 -14.5 -35.5t-35.5 -14.5t-35.5 14.5t-14.5 35.5zM200 1150v200q0 21 14.5 35.5t35.5 14.5t35.5 -14.5t14.5 -35.5v-200q0 -21 -14.5 -35.5t-35.5 -14.5t-35.5 14.5t-14.5 35.5z" />
<glyph unicode="#" d="M0 450q0 21 14.5 35.5t35.5 14.5h350v400h-350q-21 0 -35.5 14.5t-14.5 35.5t14.5 35.5t35.5 14.5h350v350q0 21 14.5 35.5t35.5 14.5t35.5 -14.5t14.5 -35.5v-350h400v350q0 21 14.5 35.5t35.5 14.5t35.5 -14.5t14.5 -35.5v-350h350q21 0 35.5 -14.5t14.5 -35.5 t-14.5 -35.5t-35.5 -14.5h-350v-400h350q21 0 35.5 -14.5t14.5 -35.5t-14.5 -35.5t-35.5 -14.5h-350v-350q0 -21 -14.5 -35.5t-35.5 -14.5t-35.5 14.5t-14.5 35.5v350h-400v-350q0 -21 -14.5 -35.5t-35.5 -14.5t-35.5 14.5t-14.5 35.5v350h-350q-21 0 -35.5 14.5t-14.5 35.5 zM500 500h400v400h-400v-400z" />
<glyph unicode="$" d="M0 50q0 21 14.5 35.5t35.5 14.5h400v550h-75q-155 0 -265 110t-110 265t110 265t265 110h975q21 0 35.5 -14.5t14.5 -35.5t-14.5 -35.5t-35.5 -14.5h-400v-550h75q155 0 265 -110t110 -265t-110 -265t-265 -110h-975q-21 0 -35.5 14.5t-14.5 35.5zM100 1025 q0 -114 80.5 -194.5t194.5 -80.5h75v550h-75q-114 0 -194.5 -80.5t-80.5 -194.5zM550 100h300v550h-300v-550zM550 750h300v550h-300v-550zM950 100h75q114 0 194.5 80.5t80.5 194.5t-80.5 194.5t-194.5 80.5h-75v-550z" />
<glyph unicode="%" d="M0 50q0 21 15 36l650 650q3 3 6 5l638 638q2 3 6 7q14 14 35 14t35.5 -14.5t14.5 -35.5t-14 -35q-3 -3 -6 -5l1 -1l-650 -650v1l-645 -645q-15 -15 -36 -15t-35.5 14.5t-14.5 35.5zM0 1150q0 104 73 177t177 73t177 -73t73 -177t-73 -177t-177 -73t-177 73t-73 177z M100 1150q0 -62 44 -106t106 -44t106 44t44 106t-44 106t-106 44t-106 -44t-44 -106zM900 250q0 104 73 177t177 73t177 -73t73 -177t-73 -177t-177 -73t-177 73t-73 177zM1000 250q0 -62 44 -106t106 -44t106 44t44 106t-44 106t-106 44t-106 -44t-44 -106z" />
<glyph unicode="&#x26;" d="M0 375q0 155 110 265q36 36 76 60q-40 24 -76 60q-110 110 -110 265t110 265t265 110h325v-100h-325q-114 0 -194.5 -80.5t-80.5 -194.5t80.5 -194.5t194.5 -80.5h975v-100h-975q-114 0 -194.5 -80.5t-80.5 -194.5t80.5 -194.5t194.5 -80.5h975v-100h-975 q-155 0 -265 110t-110 265zM650 1350q0 21 14.5 35.5t35.5 14.5t35.5 -14.5t14.5 -35.5t-14.5 -35.5t-35.5 -14.5t-35.5 14.5t-14.5 35.5zM900 50v1050h100v-1050h-100zM900 1100q0 21 14.5 35.5t35.5 14.5t35.5 -14.5t14.5 -35.5t-14.5 -35.5t-35.5 -14.5t-35.5 14.5 t-14.5 35.5zM1300 50q0 21 14.5 35.5t35.5 14.5t35.5 -14.5t14.5 -35.5t-14.5 -35.5t-35.5 -14.5t-35.5 14.5t-14.5 35.5zM1300 700q0 21 14.5 35.5t35.5 14.5t35.5 -14.5t14.5 -35.5t-14.5 -35.5t-35.5 -14.5t-35.5 14.5t-14.5 35.5z" />
<glyph unicode="'" horiz-adv-x="300" d="M0 1150v200q0 21 14.5 35.5t35.5 14.5t35.5 -14.5t14.5 -35.5v-200q0 -21 -14.5 -35.5t-35.5 -14.5t-35.5 14.5t-14.5 35.5z" />
<glyph unicode="(" horiz-adv-x="1000" d="M0 700q0 290 205 495t495 205h50q21 0 35.5 -14.5t14.5 -35.5t-14.5 -35.5t-35.5 -14.5h-50q-249 0 -424.5 -175.5t-175.5 -424.5t175.5 -424.5t424.5 -175.5h50q21 0 35.5 -14.5t14.5 -35.5t-14.5 -35.5t-35.5 -14.5h-50q-290 0 -495 205t-205 495z" />
<glyph unicode=")" horiz-adv-x="1000" d="M0 50q0 21 14.5 35.5t35.5 14.5h50q249 0 424.5 175.5t175.5 424.5t-175.5 424.5t-424.5 175.5h-50q-21 0 -35.5 14.5t-14.5 35.5t14.5 35.5t35.5 14.5h50q290 0 495 -205t205 -495t-205 -495t-495 -205h-50q-21 0 -35.5 14.5t-14.5 35.5z" />
<glyph unicode="*" d="M0 700q0 21 14.5 35.5t35.5 14.5h564l-282 488q-11 18 -5.5 38t23.5 30q18 11 38 5.5t30 -23.5l282 -489l282 489q10 18 30 23.5t38 -5.5q18 -10 23.5 -30t-5.5 -38l-282 -488h564q21 0 35.5 -14.5t14.5 -35.5t-14.5 -35.5t-35.5 -14.5h-564l282 -488q11 -18 5.5 -38 t-23.5 -30q-18 -11 -38 -5.5t-30 23.5l-282 489l-282 -489q-10 -18 -30 -23.5t-38 5.5q-18 10 -23.5 30t5.5 38l282 488h-564q-21 0 -35.5 14.5t-14.5 35.5z" />
<glyph unicode="+" d="M0 700q0 21 14.5 35.5t35.5 14.5h600v600q0 21 14.5 35.5t35.5 14.5t35.5 -14.5t14.5 -35.5v-600h600q21 0 35.5 -14.5t14.5 -35.5t-14.5 -35.5t-35.5 -14.5h-600v-600q0 -21 -14.5 -35.5t-35.5 -14.5t-35.5 14.5t-14.5 35.5v600h-600q-21 0 -35.5 14.5t-14.5 35.5z" />
<glyph unicode="," horiz-adv-x="300" d="M0 50q0 21 14.5 35.5t35.5 14.5t35.5 -14.5t14.5 -35.5v-200q0 -21 -14.5 -35.5t-35.5 -14.5t-35.5 14.5t-14.5 35.5v200z" />
<glyph unicode="-" d="M0 700q0 21 14.5 35.5t35.5 14.5h1300q21 0 35.5 -14.5t14.5 -35.5t-14.5 -35.5t-35.5 -14.5h-1300q-21 0 -35.5 14.5t-14.5 35.5z" />
<glyph unicode="." horiz-adv-x="300" d="M0 50q0 21 14.5 35.5t35.5 14.5t35.5 -14.5t14.5 -35.5t-14.5 -35.5t-35.5 -14.5t-35.5 14.5t-14.5 35.5z" />
<glyph unicode="/" d="M0 50q0 21 15 36l650 650q3 3 6 5l638 638q2 3 6 7q14 14 35 14t35.5 -14.5t14.5 -35.5t-14 -35q-3 -3 -6 -5l1 -1l-650 -650v1l-645 -645q-15 -15 -36 -15t-35.5 14.5t-14.5 35.5z" />
<glyph unicode="0" d="M0 700q0 290 205 495t495 205t495 -205t205 -495t-205 -495t-495 -205t-495 205t-205 495zM100 700q0 -249 175.5 -424.5t424.5 -175.5t424.5 175.5t175.5 424.5t-175.5 424.5t-424.5 175.5t-424.5 -175.5t-175.5 -424.5z" />
<glyph unicode="1" horiz-adv-x="500" d="M0 1350q0 21 14.5 35.5t35.5 14.5h200q21 0 35.5 -14.5t14.5 -35.5v-1300q0 -21 -14.5 -35.5t-35.5 -14.5t-35.5 14.5t-14.5 35.5v1250h-150q-21 0 -35.5 14.5t-14.5 35.5z" />
<glyph unicode="2" d="M0 375q0 155 110 265t265 110h650q114 0 194.5 80.5t80.5 194.5t-80.5 194.5t-194.5 80.5h-975q-21 0 -35.5 14.5t-14.5 35.5t14.5 35.5t35.5 14.5h975q155 0 265 -110t110 -265t-110 -265t-265 -110h-650q-114 0 -194.5 -80.5t-80.5 -194.5t80.5 -194.5t194.5 -80.5h975 q21 0 35.5 -14.5t14.5 -35.5t-14.5 -35.5t-35.5 -14.5h-975q-155 0 -265 110t-110 265z" />
<glyph unicode="3" d="M0 50q0 21 14.5 35.5t35.5 14.5h975q114 0 194.5 80.5t80.5 194.5t-80.5 194.5t-194.5 80.5h-975q-21 0 -35.5 14.5t-14.5 35.5t14.5 35.5t35.5 14.5h975q114 0 194.5 80.5t80.5 194.5t-80.5 194.5t-194.5 80.5h-975q-21 0 -35.5 14.5t-14.5 35.5t14.5 35.5t35.5 14.5 h975q155 0 265 -110t110 -265t-110 -265q-36 -36 -76 -60q40 -24 76 -60q110 -110 110 -265t-110 -265t-265 -110h-975q-21 0 -35.5 14.5t-14.5 35.5z" />
<glyph unicode="4" d="M0 300q0 21 15 36q3 3 6 5l1038 1038q2 3 6 7q14 14 35 14t35.5 -14.5t14.5 -35.5v-1000h200q21 0 35.5 -14.5t14.5 -35.5t-14.5 -35.5t-35.5 -14.5h-200v-200q0 -21 -14.5 -35.5t-35.5 -14.5t-35.5 14.5t-14.5 35.5v200h-1000q-21 0 -35.5 14.5t-14.5 35.5zM172 350h878 v878z" />
<glyph unicode="5" d="M0 50q0 21 14.5 35.5t35.5 14.5h975q114 0 194.5 80.5t80.5 194.5t-80.5 194.5t-194.5 80.5h-650q-155 0 -265 110t-110 265t110 265t265 110h975q21 0 35.5 -14.5t14.5 -35.5t-14.5 -35.5t-35.5 -14.5h-975q-114 0 -194.5 -80.5t-80.5 -194.5t80.5 -194.5t194.5 -80.5 h650q155 0 265 -110t110 -265t-110 -265t-265 -110h-975q-21 0 -35.5 14.5t-14.5 35.5z" />
<glyph unicode="6" d="M0 700q0 290 205 495t495 205h650q21 0 35.5 -14.5t14.5 -35.5t-14.5 -35.5t-35.5 -14.5h-650q-249 0 -424 -175q-158 -158 -174 -375h923q155 0 265 -110t110 -265t-110 -265t-265 -110h-325q-290 0 -495 205t-205 495zM102 650q16 -217 174 -374q175 -176 424 -176h325 q114 0 194.5 80.5t80.5 194.5t-80.5 194.5t-194.5 80.5h-923z" />
<glyph unicode="7" d="M0 50q0 21 15 36l650 650q3 3 6 5l559 559h-1180q-21 0 -35.5 14.5t-14.5 35.5t14.5 35.5t35.5 14.5h1300q21 0 35.5 -14.5t14.5 -35.5t-14 -35q-3 -3 -6 -5l1 -1l-650 -650v1l-645 -645q-15 -15 -36 -15t-35.5 14.5t-14.5 35.5z" />
<glyph unicode="8" d="M0 375q0 155 110 265q36 36 76 60q-40 24 -76 60q-110 110 -110 265t110 265t265 110h650q155 0 265 -110t110 -265t-110 -265q-36 -36 -76 -60q40 -24 76 -60q110 -110 110 -265t-110 -265t-265 -110h-650q-155 0 -265 110t-110 265zM100 375q0 -114 80.5 -194.5 t194.5 -80.5h650q114 0 194.5 80.5t80.5 194.5t-80.5 194.5t-194.5 80.5h-650q-114 0 -194.5 -80.5t-80.5 -194.5zM100 1025q0 -114 80.5 -194.5t194.5 -80.5h650q114 0 194.5 80.5t80.5 194.5t-80.5 194.5t-194.5 80.5h-650q-114 0 -194.5 -80.5t-80.5 -194.5z" />
<glyph unicode="9" d="M0 50q0 21 14.5 35.5t35.5 14.5h650q249 0 425 176q157 157 173 374h-923q-155 0 -265 110t-110 265t110 265t265 110h325q290 0 495 -205t205 -495t-205 -495t-495 -205h-650q-21 0 -35.5 14.5t-14.5 35.5zM100 1025q0 -114 80.5 -194.5t194.5 -80.5h923 q-16 217 -173 375q-176 175 -425 175h-325q-114 0 -194.5 -80.5t-80.5 -194.5z" />
<glyph unicode=":" horiz-adv-x="300" d="M0 450q0 21 14.5 35.5t35.5 14.5t35.5 -14.5t14.5 -35.5t-14.5 -35.5t-35.5 -14.5t-35.5 14.5t-14.5 35.5zM0 950q0 21 14.5 35.5t35.5 14.5t35.5 -14.5t14.5 -35.5t-14.5 -35.5t-35.5 -14.5t-35.5 14.5t-14.5 35.5z" />
<glyph unicode=";" horiz-adv-x="300" d="M0 250v200q0 21 14.5 35.5t35.5 14.5t35.5 -14.5t14.5 -35.5v-200q0 -21 -14.5 -35.5t-35.5 -14.5t-35.5 14.5t-14.5 35.5zM0 950q0 21 14.5 35.5t35.5 14.5t35.5 -14.5t14.5 -35.5t-14.5 -35.5t-35.5 -14.5t-35.5 14.5t-14.5 35.5z" />
<glyph unicode="&#x3c;" d="M1 701q0 21 15 36q12 12 31 14l1270 637q14 13 34 13q21 0 35.5 -14.5t14.5 -35.5t-14 -35q-5 -5 -10 -8l1 -1l-1215 -609l1189 -597q20 0 35 -14q14 -15 14 -36t-14.5 -35.5t-35.5 -14.5q-8 0 -16 2l-2 -4l-1302 653l1 2q-9 4 -16 12q-15 14 -15 35z" />
<glyph unicode="=" d="M0 450q0 21 14.5 35.5t35.5 14.5h1300q21 0 35.5 -14.5t14.5 -35.5t-14.5 -35.5t-35.5 -14.5h-1300q-21 0 -35.5 14.5t-14.5 35.5zM0 950q0 21 14.5 35.5t35.5 14.5h1300q21 0 35.5 -14.5t14.5 -35.5t-14.5 -35.5t-35.5 -14.5h-1300q-21 0 -35.5 14.5t-14.5 35.5z" />
<glyph unicode="&#x3e;" d="M1 51q0 21 15 36q14 14 34 14l1189 597l-1215 609l1 1q-5 3 -9 8q-15 14 -15 35t14.5 35.5t35.5 14.5q20 0 34 -13l1270 -637q19 -2 32 -14q14 -15 14 -36t-14 -35q-8 -8 -17 -12l1 -2l-1302 -653l-2 4q-8 -2 -16 -2q-21 0 -35.5 14.5t-14.5 35.5z" />
<glyph unicode="?" d="M0 50q0 21 14.5 35.5t35.5 14.5t35.5 -14.5t14.5 -35.5t-14.5 -35.5t-35.5 -14.5t-35.5 14.5t-14.5 35.5zM0 375q0 155 110 265t265 110h650q114 0 194.5 80.5t80.5 194.5t-80.5 194.5t-194.5 80.5h-975q-21 0 -35.5 14.5t-14.5 35.5t14.5 35.5t35.5 14.5h975 q155 0 265 -110t110 -265t-110 -265t-265 -110h-650q-114 0 -194.5 -80.5t-80.5 -194.5q0 -21 -14.5 -35.5t-35.5 -14.5t-35.5 14.5t-14.5 35.5z" />
<glyph unicode="@" d="M0 50q0 20 13 34l110 218q-123 174 -123 398q0 290 205 495t495 205t495 -205t205 -495q0 -220 -118 -392l120 -240l-4 -2q2 -8 2 -16q0 -21 -14.5 -35.5t-35.5 -14.5t-35 15q-15 14 -15 34l-87 174l-18 -18q-205 -205 -495 -205t-495 205l-13 13l-98 -195l-1 1 q-3 -5 -7 -9q-15 -15 -36 -15t-35.5 14.5t-14.5 35.5zM100 700q0 -162 75 -294l446 889q-199 -24 -345 -170q-176 -176 -176 -425zM258 350h891l-445 888zM302 250q168 -150 398 -150t398 150h-796zM787 1294l442 -881q71 129 71 287q0 249 -175 425q-145 144 -338 169z" />
<glyph unicode="A" d="M0 50q0 20 13 34l637 1270q2 19 15 32q14 14 35 14t36 -14q7 -8 11 -17l2 1l653 -1302l-4 -2q2 -8 2 -16q0 -21 -14.5 -35.5t-35.5 -14.5t-35 15q-15 14 -15 34l-101 201h-991l-114 -227l-1 1q-3 -5 -7 -9q-15 -15 -36 -15t-35.5 14.5t-14.5 35.5zM258 350h891l-445 888z " />
<glyph unicode="B" d="M0 50v1300q0 21 14.5 35.5t35.5 14.5h975q155 0 265 -110t110 -265t-110 -265q-36 -36 -76 -60q40 -24 76 -60q110 -110 110 -265t-110 -265t-265 -110h-975q-21 0 -35.5 14.5t-14.5 35.5zM100 100h925q114 0 194.5 80.5t80.5 194.5t-80.5 194.5t-194.5 80.5h-925v-550z M100 750h925q114 0 194.5 80.5t80.5 194.5t-80.5 194.5t-194.5 80.5h-925v-550z" />
<glyph unicode="C" d="M0 700q0 290 205 495t495 205h650q21 0 35.5 -14.5t14.5 -35.5t-14.5 -35.5t-35.5 -14.5h-650q-249 0 -424.5 -175.5t-175.5 -424.5t175.5 -424.5t424.5 -175.5h650q21 0 35.5 -14.5t14.5 -35.5t-14.5 -35.5t-35.5 -14.5h-650q-290 0 -495 205t-205 495z" />
<glyph unicode="D" d="M0 50v1300q0 21 14.5 35.5t35.5 14.5h650q290 0 495 -205t205 -495t-205 -495t-495 -205h-650q-21 0 -35.5 14.5t-14.5 35.5zM100 100h600q249 0 424.5 175.5t175.5 424.5t-175.5 424.5t-424.5 175.5h-600v-1200z" />
<glyph unicode="E" d="M0 50v1300q0 21 14.5 35.5t35.5 14.5h1300q21 0 35.5 -14.5t14.5 -35.5t-14.5 -35.5t-35.5 -14.5h-1250v-550h1250q21 0 35.5 -14.5t14.5 -35.5t-14.5 -35.5t-35.5 -14.5h-1250v-550h1250q21 0 35.5 -14.5t14.5 -35.5t-14.5 -35.5t-35.5 -14.5h-1300q-21 0 -35.5 14.5 t-14.5 35.5z" />
<glyph unicode="F" d="M0 50v1300q0 21 14.5 35.5t35.5 14.5h1300q21 0 35.5 -14.5t14.5 -35.5t-14.5 -35.5t-35.5 -14.5h-1250v-550h1250q21 0 35.5 -14.5t14.5 -35.5t-14.5 -35.5t-35.5 -14.5h-1250v-600q0 -21 -14.5 -35.5t-35.5 -14.5t-35.5 14.5t-14.5 35.5z" />
<glyph unicode="G" d="M0 700q0 290 205 495t495 205h650q21 0 35.5 -14.5t14.5 -35.5t-14.5 -35.5t-35.5 -14.5h-650q-249 0 -424.5 -175.5t-175.5 -424.5t175.5 -424.5t424.5 -175.5h600v550h-600q-21 0 -35.5 14.5t-14.5 35.5t14.5 35.5t35.5 14.5h650q21 0 35.5 -14.5t14.5 -35.5v-650 q0 -21 -14.5 -35.5t-35.5 -14.5h-650q-290 0 -495 205t-205 495z" />
<glyph unicode="H" d="M0 50v1300q0 21 14.5 35.5t35.5 14.5t35.5 -14.5t14.5 -35.5v-600h1200v600q0 21 14.5 35.5t35.5 14.5t35.5 -14.5t14.5 -35.5v-1300q0 -21 -14.5 -35.5t-35.5 -14.5t-35.5 14.5t-14.5 35.5v600h-1200v-600q0 -21 -14.5 -35.5t-35.5 -14.5t-35.5 14.5t-14.5 35.5z" />
<glyph unicode="I" horiz-adv-x="300" d="M0 50v1300q0 21 14.5 35.5t35.5 14.5t35.5 -14.5t14.5 -35.5v-1300q0 -21 -14.5 -35.5t-35.5 -14.5t-35.5 14.5t-14.5 35.5z" />
<glyph unicode="J" d="M0 700q0 21 14.5 35.5t35.5 14.5t35.5 -14.5t14.5 -35.5q0 -249 175.5 -424.5t424.5 -175.5t424.5 175.5t175.5 424.5v650q0 21 14.5 35.5t35.5 14.5t35.5 -14.5t14.5 -35.5v-650q0 -290 -205 -495t-495 -205t-495 205t-205 495z" />
<glyph unicode="K" d="M0 50v1300q0 21 14.5 35.5t35.5 14.5t35.5 -14.5t14.5 -35.5v-600h579l636 636q14 14 35 14t35.5 -14.5t14.5 -35.5t-14 -35l-614 -614l608 -609l-1 -1q3 -2 7 -5q14 -15 14 -36t-14.5 -35.5t-35.5 -14.5t-35 15q-4 3 -6 6l-629 629h-580v-600q0 -21 -14.5 -35.5 t-35.5 -14.5t-35.5 14.5t-14.5 35.5z" />
<glyph unicode="L" d="M0 50v1300q0 21 14.5 35.5t35.5 14.5t35.5 -14.5t14.5 -35.5v-1250h1250q21 0 35.5 -14.5t14.5 -35.5t-14.5 -35.5t-35.5 -14.5h-1300q-21 0 -35.5 14.5t-14.5 35.5z" />
<glyph unicode="M" d="M0 50v1300q0 21 14.5 35.5t35.5 14.5t36 -14l615 -614l608 608l6 6q14 14 35 14t35.5 -14.5t14.5 -35.5v-1300q0 -21 -14.5 -35.5t-35.5 -14.5t-35.5 14.5t-14.5 35.5v1179l-564 -564l-6 -6q-13 -9 -30 -9q-21 0 -35 15q-4 3 -6 6l-559 559v-1180q0 -21 -14.5 -35.5 t-35.5 -14.5t-35.5 14.5t-14.5 35.5z" />
<glyph unicode="N" d="M0 50v1300q0 21 14.5 35.5t35.5 14.5t36 -14l1214 -1215v1179q0 21 14.5 35.5t35.5 14.5t35.5 -14.5t14.5 -35.5v-1300q0 -21 -14.5 -35.5t-35.5 -14.5t-35 15q-3 2 -6 5l-1209 1210v-1180q0 -21 -14.5 -35.5t-35.5 -14.5t-35.5 14.5t-14.5 35.5z" />
<glyph unicode="O" d="M0 700q0 290 205 495t495 205t495 -205t205 -495t-205 -495t-495 -205t-495 205t-205 495zM100 700q0 -249 175.5 -424.5t424.5 -175.5t424.5 175.5t175.5 424.5t-175.5 424.5t-424.5 175.5t-424.5 -175.5t-175.5 -424.5z" />
<glyph unicode="P" d="M0 50v1300q0 21 14.5 35.5t35.5 14.5h975q155 0 265 -110t110 -265t-110 -265t-265 -110h-925v-600q0 -21 -14.5 -35.5t-35.5 -14.5t-35.5 14.5t-14.5 35.5zM100 750h925q114 0 194.5 80.5t80.5 194.5t-80.5 194.5t-194.5 80.5h-925v-550z" />
<glyph unicode="Q" d="M0 700q0 290 205 495t495 205t495 -205t205 -495q0 -265 -171 -458l151 -151l-1 -1q4 -2 7 -5q14 -15 14 -35q0 -21 -14.5 -35.5t-35.5 -14.5t-35 15q-3 2 -6 5l-151 151q-193 -171 -458 -171q-290 0 -495 205t-205 495zM100 700q0 -249 175.5 -424.5t424.5 -175.5 q223 0 388 141l-423 424l-6 5q-9 13 -9 30q0 21 14.5 35.5t35.5 14.5q17 0 30 -9l6 -5l423 -424q141 165 141 388q0 249 -175.5 424.5t-424.5 175.5t-424.5 -175.5t-175.5 -424.5z" />
<glyph unicode="R" d="M0 50v1300q0 21 14.5 35.5t35.5 14.5h975q155 0 265 -110t110 -265t-110 -265t-265 -110h-203l564 -564q14 -15 14 -36t-14.5 -35.5t-35.5 -14.5t-35 15q-4 3 -6 6l-629 629h-580v-600q0 -21 -14.5 -35.5t-35.5 -14.5t-35.5 14.5t-14.5 35.5zM100 750h925 q114 0 194.5 80.5t80.5 194.5t-80.5 194.5t-194.5 80.5h-925v-550z" />
<glyph unicode="S" d="M0 50q0 21 14.5 35.5t35.5 14.5h975q114 0 194.5 80.5t80.5 194.5t-80.5 194.5t-194.5 80.5h-650q-155 0 -265 110t-110 265t110 265t265 110h975q21 0 35.5 -14.5t14.5 -35.5t-14.5 -35.5t-35.5 -14.5h-975q-114 0 -194.5 -80.5t-80.5 -194.5t80.5 -194.5t194.5 -80.5 h650q155 0 265 -110t110 -265t-110 -265t-265 -110h-975q-21 0 -35.5 14.5t-14.5 35.5z" />
<glyph unicode="T" d="M0 1350q0 21 14.5 35.5t35.5 14.5h1300q21 0 35.5 -14.5t14.5 -35.5t-14.5 -35.5t-35.5 -14.5h-600v-1250q0 -21 -14.5 -35.5t-35.5 -14.5t-35.5 14.5t-14.5 35.5v1250h-600q-21 0 -35.5 14.5t-14.5 35.5z" />
<glyph unicode="U" d="M0 700v650q0 21 14.5 35.5t35.5 14.5t35.5 -14.5t14.5 -35.5v-650q0 -249 175.5 -424.5t424.5 -175.5t424.5 175.5t175.5 424.5v650q0 21 14.5 35.5t35.5 14.5t35.5 -14.5t14.5 -35.5v-650q0 -290 -205 -495t-495 -205t-495 205t-205 495z" />
<glyph unicode="V" d="M0 1350q0 21 14.5 35.5t35.5 14.5t36 -14q4 -5 7 -10l1 1l610 -1215l596 1189q0 20 15 35q14 14 35 14t35.5 -14.5t14.5 -35.5q0 -8 -2 -16l4 -2l-653 -1302l-2 1q-4 -9 -11 -16q-15 -15 -36 -15t-35 15q-13 12 -15 31l-637 1270q-13 14 -13 34z" />
<glyph unicode="W" horiz-adv-x="2900" d="M-2 1350q0 21 14.5 35.5t35.5 14.5t36 -14q4 -5 7 -10l1 1l610 -1215l596 1189q0 20 15 35q14 14 35 14h2q21 0 36 -14q4 -5 7 -10l1 1l610 -1215l596 1189q0 20 15 35q14 14 35 14t35.5 -14.5t14.5 -35.5q0 -8 -2 -16l4 -2l-653 -1302l-2 1q-4 -9 -11 -16 q-15 -15 -36 -15t-35 15q-13 12 -15 31l-597 1191l-606 -1207l-2 1q-4 -9 -11 -16q-15 -15 -36 -15t-35 15q-13 12 -15 31l-637 1270q-13 14 -13 34z" />
<glyph unicode="X" d="M0 50q0 20 15 35q2 3 5 5l610 610l-609 609q-3 2 -6 6q-15 14 -15 35t14.5 35.5t35.5 14.5t36 -14l615 -614l608 608l6 6q14 14 35 14t35.5 -14.5t14.5 -35.5t-14 -35l-6 -6l-609 -609l609 -609l-1 -1q4 -2 7 -5q14 -15 14 -35q0 -21 -14.5 -35.5t-35.5 -14.5t-35 15 q-3 2 -6 5l-608 609l-615 -615q-15 -14 -36 -14t-35.5 14.5t-14.5 35.5z" />
<glyph unicode="Y" d="M0 1350q0 21 14.5 35.5t35.5 14.5t36 -14l615 -614l608 608l6 6q14 14 35 14t35.5 -14.5t14.5 -35.5t-14 -35l-6 -6l-630 -630v-629q0 -21 -14.5 -35.5t-35.5 -14.5t-35.5 14.5t-14.5 35.5v630l-629 629q-3 2 -6 6q-15 14 -15 35z" />
<glyph unicode="Z" d="M0 50q0 21 15 36l650 650q3 3 6 5l559 559h-1180q-21 0 -35.5 14.5t-14.5 35.5t14.5 35.5t35.5 14.5h1300q21 0 35.5 -14.5t14.5 -35.5t-14 -35q-3 -3 -6 -5l1 -1l-650 -650v1l-560 -560h1179q21 0 35.5 -14.5t14.5 -35.5t-14.5 -35.5t-35.5 -14.5h-1300 q-21 0 -35.5 14.5t-14.5 35.5z" />
<glyph unicode="[" horiz-adv-x="950" d="M0 50v1300q0 21 14.5 35.5t35.5 14.5h650q21 0 35.5 -14.5t14.5 -35.5t-14.5 -35.5t-35.5 -14.5h-600v-1200h600q21 0 35.5 -14.5t14.5 -35.5t-14.5 -35.5t-35.5 -14.5h-650q-21 0 -35.5 14.5t-14.5 35.5z" />
<glyph unicode="\" d="M0 1350q0 21 14.5 35.5t35.5 14.5t36 -14q3 -4 5 -7l1294 -1293h1q14 -15 14 -36t-14.5 -35.5t-35.5 -14.5t-35 15h-1l-1295 1294l1 1q-3 2 -5 5q-15 14 -15 35z" />
<glyph unicode="]" horiz-adv-x="950" d="M0 50q0 21 14.5 35.5t35.5 14.5h600v1200h-600q-21 0 -35.5 14.5t-14.5 35.5t14.5 35.5t35.5 14.5h650q21 0 35.5 -14.5t14.5 -35.5v-1300q0 -21 -14.5 -35.5t-35.5 -14.5h-650q-21 0 -35.5 14.5t-14.5 35.5z" />
<glyph unicode="^" d="M0 700q0 20 15 35q2 3 5 5l639 639q2 3 6 7q14 14 35 14q17 0 30 -9l6 -5l644 -645l-1 -1q4 -2 7 -5q14 -15 14 -35q0 -21 -14.5 -35.5t-35.5 -14.5t-35 15q-3 2 -6 5l-608 609l-615 -615q-15 -14 -36 -14t-35.5 14.5t-14.5 35.5z" />
<glyph unicode="_" d="M0 50q0 21 14.5 35.5t35.5 14.5h1300q21 0 35.5 -14.5t14.5 -35.5t-14.5 -35.5t-35.5 -14.5h-1300q-21 0 -35.5 14.5t-14.5 35.5z" />
<glyph unicode="`" horiz-adv-x="300" d="M-28 1330q-6 20 3 38.5t29 24.5t38.5 -3.5t24.5 -29.5l61 -190q6 -20 -3 -38.5t-29 -24.5t-38.5 3.5t-24.5 29.5z" />
<glyph unicode="a" d="M0 50q0 20 13 34l637 1270q2 19 15 32q14 14 35 14t36 -14q7 -8 11 -17l2 1l653 -1302l-4 -2q2 -8 2 -16q0 -21 -14.5 -35.5t-35.5 -14.5t-35 15q-15 14 -15 34l-101 201h-991l-114 -227l-1 1q-3 -5 -7 -9q-15 -15 -36 -15t-35.5 14.5t-14.5 35.5zM258 350h891l-445 888z " />
<glyph unicode="b" d="M0 50v1300q0 21 14.5 35.5t35.5 14.5h975q155 0 265 -110t110 -265t-110 -265q-36 -36 -76 -60q40 -24 76 -60q110 -110 110 -265t-110 -265t-265 -110h-975q-21 0 -35.5 14.5t-14.5 35.5zM100 100h925q114 0 194.5 80.5t80.5 194.5t-80.5 194.5t-194.5 80.5h-925v-550z M100 750h925q114 0 194.5 80.5t80.5 194.5t-80.5 194.5t-194.5 80.5h-925v-550z" />
<glyph unicode="c" d="M0 700q0 290 205 495t495 205h650q21 0 35.5 -14.5t14.5 -35.5t-14.5 -35.5t-35.5 -14.5h-650q-249 0 -424.5 -175.5t-175.5 -424.5t175.5 -424.5t424.5 -175.5h650q21 0 35.5 -14.5t14.5 -35.5t-14.5 -35.5t-35.5 -14.5h-650q-290 0 -495 205t-205 495z" />
<glyph unicode="d" d="M0 50v1300q0 21 14.5 35.5t35.5 14.5h650q290 0 495 -205t205 -495t-205 -495t-495 -205h-650q-21 0 -35.5 14.5t-14.5 35.5zM100 100h600q249 0 424.5 175.5t175.5 424.5t-175.5 424.5t-424.5 175.5h-600v-1200z" />
<glyph unicode="e" d="M0 50v1300q0 21 14.5 35.5t35.5 14.5h1300q21 0 35.5 -14.5t14.5 -35.5t-14.5 -35.5t-35.5 -14.5h-1250v-550h1250q21 0 35.5 -14.5t14.5 -35.5t-14.5 -35.5t-35.5 -14.5h-1250v-550h1250q21 0 35.5 -14.5t14.5 -35.5t-14.5 -35.5t-35.5 -14.5h-1300q-21 0 -35.5 14.5 t-14.5 35.5z" />
<glyph unicode="f" d="M0 50v1300q0 21 14.5 35.5t35.5 14.5h1300q21 0 35.5 -14.5t14.5 -35.5t-14.5 -35.5t-35.5 -14.5h-1250v-550h1250q21 0 35.5 -14.5t14.5 -35.5t-14.5 -35.5t-35.5 -14.5h-1250v-600q0 -21 -14.5 -35.5t-35.5 -14.5t-35.5 14.5t-14.5 35.5z" />
<glyph unicode="g" d="M0 700q0 290 205 495t495 205h650q21 0 35.5 -14.5t14.5 -35.5t-14.5 -35.5t-35.5 -14.5h-650q-249 0 -424.5 -175.5t-175.5 -424.5t175.5 -424.5t424.5 -175.5h600v550h-600q-21 0 -35.5 14.5t-14.5 35.5t14.5 35.5t35.5 14.5h650q21 0 35.5 -14.5t14.5 -35.5v-650 q0 -21 -14.5 -35.5t-35.5 -14.5h-650q-290 0 -495 205t-205 495z" />
<glyph unicode="h" d="M0 50v1300q0 21 14.5 35.5t35.5 14.5t35.5 -14.5t14.5 -35.5v-600h1200v600q0 21 14.5 35.5t35.5 14.5t35.5 -14.5t14.5 -35.5v-1300q0 -21 -14.5 -35.5t-35.5 -14.5t-35.5 14.5t-14.5 35.5v600h-1200v-600q0 -21 -14.5 -35.5t-35.5 -14.5t-35.5 14.5t-14.5 35.5z" />
<glyph unicode="i" horiz-adv-x="300" d="M0 50v1300q0 21 14.5 35.5t35.5 14.5t35.5 -14.5t14.5 -35.5v-1300q0 -21 -14.5 -35.5t-35.5 -14.5t-35.5 14.5t-14.5 35.5z" />
<glyph unicode="j" d="M0 700q0 21 14.5 35.5t35.5 14.5t35.5 -14.5t14.5 -35.5q0 -249 175.5 -424.5t424.5 -175.5t424.5 175.5t175.5 424.5v650q0 21 14.5 35.5t35.5 14.5t35.5 -14.5t14.5 -35.5v-650q0 -290 -205 -495t-495 -205t-495 205t-205 495z" />
<glyph unicode="k" d="M0 50v1300q0 21 14.5 35.5t35.5 14.5t35.5 -14.5t14.5 -35.5v-600h579l636 636q14 14 35 14t35.5 -14.5t14.5 -35.5t-14 -35l-614 -614l608 -609l-1 -1q3 -2 7 -5q14 -15 14 -36t-14.5 -35.5t-35.5 -14.5t-35 15q-4 3 -6 6l-629 629h-580v-600q0 -21 -14.5 -35.5 t-35.5 -14.5t-35.5 14.5t-14.5 35.5z" />
<glyph unicode="l" d="M0 50v1300q0 21 14.5 35.5t35.5 14.5t35.5 -14.5t14.5 -35.5v-1250h1250q21 0 35.5 -14.5t14.5 -35.5t-14.5 -35.5t-35.5 -14.5h-1300q-21 0 -35.5 14.5t-14.5 35.5z" />
<glyph unicode="m" d="M0 50v1300q0 21 14.5 35.5t35.5 14.5t36 -14l615 -614l608 608l6 6q14 14 35 14t35.5 -14.5t14.5 -35.5v-1300q0 -21 -14.5 -35.5t-35.5 -14.5t-35.5 14.5t-14.5 35.5v1179l-564 -564l-6 -6q-13 -9 -30 -9q-21 0 -35 15q-4 3 -6 6l-559 559v-1180q0 -21 -14.5 -35.5 t-35.5 -14.5t-35.5 14.5t-14.5 35.5z" />
<glyph unicode="n" d="M0 50v1300q0 21 14.5 35.5t35.5 14.5t36 -14l1214 -1215v1179q0 21 14.5 35.5t35.5 14.5t35.5 -14.5t14.5 -35.5v-1300q0 -21 -14.5 -35.5t-35.5 -14.5t-35 15q-3 2 -6 5l-1209 1210v-1180q0 -21 -14.5 -35.5t-35.5 -14.5t-35.5 14.5t-14.5 35.5z" />
<glyph unicode="o" d="M0 700q0 290 205 495t495 205t495 -205t205 -495t-205 -495t-495 -205t-495 205t-205 495zM100 700q0 -249 175.5 -424.5t424.5 -175.5t424.5 175.5t175.5 424.5t-175.5 424.5t-424.5 175.5t-424.5 -175.5t-175.5 -424.5z" />
<glyph unicode="p" d="M0 50v1300q0 21 14.5 35.5t35.5 14.5h975q155 0 265 -110t110 -265t-110 -265t-265 -110h-925v-600q0 -21 -14.5 -35.5t-35.5 -14.5t-35.5 14.5t-14.5 35.5zM100 750h925q114 0 194.5 80.5t80.5 194.5t-80.5 194.5t-194.5 80.5h-925v-550z" />
<glyph unicode="q" d="M0 700q0 290 205 495t495 205t495 -205t205 -495q0 -265 -171 -458l151 -151l-1 -1q4 -2 7 -5q14 -15 14 -35q0 -21 -14.5 -35.5t-35.5 -14.5t-35 15q-3 2 -6 5l-151 151q-193 -171 -458 -171q-290 0 -495 205t-205 495zM100 700q0 -249 175.5 -424.5t424.5 -175.5 q223 0 388 141l-423 424l-6 5q-9 13 -9 30q0 21 14.5 35.5t35.5 14.5q17 0 30 -9l6 -5l423 -424q141 165 141 388q0 249 -175.5 424.5t-424.5 175.5t-424.5 -175.5t-175.5 -424.5z" />
<glyph unicode="r" d="M0 50v1300q0 21 14.5 35.5t35.5 14.5h975q155 0 265 -110t110 -265t-110 -265t-265 -110h-203l564 -564q14 -15 14 -36t-14.5 -35.5t-35.5 -14.5t-35 15q-4 3 -6 6l-629 629h-580v-600q0 -21 -14.5 -35.5t-35.5 -14.5t-35.5 14.5t-14.5 35.5zM100 750h925 q114 0 194.5 80.5t80.5 194.5t-80.5 194.5t-194.5 80.5h-925v-550z" />
<glyph unicode="s" d="M0 50q0 21 14.5 35.5t35.5 14.5h975q114 0 194.5 80.5t80.5 194.5t-80.5 194.5t-194.5 80.5h-650q-155 0 -265 110t-110 265t110 265t265 110h975q21 0 35.5 -14.5t14.5 -35.5t-14.5 -35.5t-35.5 -14.5h-975q-114 0 -194.5 -80.5t-80.5 -194.5t80.5 -194.5t194.5 -80.5 h650q155 0 265 -110t110 -265t-110 -265t-265 -110h-975q-21 0 -35.5 14.5t-14.5 35.5z" />
<glyph unicode="t" d="M0 1350q0 21 14.5 35.5t35.5 14.5h1300q21 0 35.5 -14.5t14.5 -35.5t-14.5 -35.5t-35.5 -14.5h-600v-1250q0 -21 -14.5 -35.5t-35.5 -14.5t-35.5 14.5t-14.5 35.5v1250h-600q-21 0 -35.5 14.5t-14.5 35.5z" />
<glyph unicode="u" d="M0 700v650q0 21 14.5 35.5t35.5 14.5t35.5 -14.5t14.5 -35.5v-650q0 -249 175.5 -424.5t424.5 -175.5t424.5 175.5t175.5 424.5v650q0 21 14.5 35.5t35.5 14.5t35.5 -14.5t14.5 -35.5v-650q0 -290 -205 -495t-495 -205t-495 205t-205 495z" />
<glyph unicode="v" d="M0 1350q0 21 14.5 35.5t35.5 14.5t36 -14q4 -5 7 -10l1 1l610 -1215l596 1189q0 20 15 35q14 14 35 14t35.5 -14.5t14.5 -35.5q0 -8 -2 -16l4 -2l-653 -1302l-2 1q-4 -9 -11 -16q-15 -15 -36 -15t-35 15q-13 12 -15 31l-637 1270q-13 14 -13 34z" />
<glyph unicode="w" horiz-adv-x="2900" d="M-2 1350q0 21 14.5 35.5t35.5 14.5t36 -14q4 -5 7 -10l1 1l610 -1215l596 1189q0 20 15 35q14 14 35 14h2q21 0 36 -14q4 -5 7 -10l1 1l610 -1215l596 1189q0 20 15 35q14 14 35 14t35.5 -14.5t14.5 -35.5q0 -8 -2 -16l4 -2l-653 -1302l-2 1q-4 -9 -11 -16 q-15 -15 -36 -15t-35 15q-13 12 -15 31l-597 1191l-606 -1207l-2 1q-4 -9 -11 -16q-15 -15 -36 -15t-35 15q-13 12 -15 31l-637 1270q-13 14 -13 34z" />
<glyph unicode="x" d="M0 50q0 20 15 35q2 3 5 5l610 610l-609 609q-3 2 -6 6q-15 14 -15 35t14.5 35.5t35.5 14.5t36 -14l615 -614l608 608l6 6q14 14 35 14t35.5 -14.5t14.5 -35.5t-14 -35l-6 -6l-609 -609l609 -609l-1 -1q4 -2 7 -5q14 -15 14 -35q0 -21 -14.5 -35.5t-35.5 -14.5t-35 15 q-3 2 -6 5l-608 609l-615 -615q-15 -14 -36 -14t-35.5 14.5t-14.5 35.5z" />
<glyph unicode="y" d="M0 1350q0 21 14.5 35.5t35.5 14.5t36 -14l615 -614l608 608l6 6q14 14 35 14t35.5 -14.5t14.5 -35.5t-14 -35l-6 -6l-630 -630v-629q0 -21 -14.5 -35.5t-35.5 -14.5t-35.5 14.5t-14.5 35.5v630l-629 629q-3 2 -6 6q-15 14 -15 35z" />
<glyph unicode="z" d="M0 50q0 21 15 36l650 650q3 3 6 5l559 559h-1180q-21 0 -35.5 14.5t-14.5 35.5t14.5 35.5t35.5 14.5h1300q21 0 35.5 -14.5t14.5 -35.5t-14 -35q-3 -3 -6 -5l1 -1l-650 -650v1l-560 -560h1179q21 0 35.5 -14.5t14.5 -35.5t-14.5 -35.5t-35.5 -14.5h-1300 q-21 0 -35.5 14.5t-14.5 35.5z" />
<glyph unicode="{" horiz-adv-x="1000" d="M0 700q0 290 205 495t495 205h50q21 0 35.5 -14.5t14.5 -35.5t-14.5 -35.5t-35.5 -14.5h-50q-249 0 -424.5 -175.5t-175.5 -424.5t175.5 -424.5t424.5 -175.5h50q21 0 35.5 -14.5t14.5 -35.5t-14.5 -35.5t-35.5 -14.5h-50q-290 0 -495 205t-205 495z" />
<glyph unicode="|" horiz-adv-x="300" d="M0 50v1300q0 21 14.5 35.5t35.5 14.5t35.5 -14.5t14.5 -35.5v-1300q0 -21 -14.5 -35.5t-35.5 -14.5t-35.5 14.5t-14.5 35.5z" />
<glyph unicode="}" horiz-adv-x="1000" d="M0 50q0 21 14.5 35.5t35.5 14.5h50q249 0 424.5 175.5t175.5 424.5t-175.5 424.5t-424.5 175.5h-50q-21 0 -35.5 14.5t-14.5 35.5t14.5 35.5t35.5 14.5h50q290 0 495 -205t205 -495t-205 -495t-495 -205h-50q-21 0 -35.5 14.5t-14.5 35.5z" />
<glyph unicode="~" horiz-adv-x="700" d="M17 1275q50 -50 125 0t125 0t150 0t50 75t-100 0t-100 25t-200 0q-100 -50 -50 -100z" />
<glyph unicode="&#xa1;" horiz-adv-x="300" d="M0 50v975q0 21 14.5 35.5t35.5 14.5t35.5 -14.5t14.5 -35.5v-975q0 -21 -14.5 -35.5t-35.5 -14.5t-35.5 14.5t-14.5 35.5zM0 1350q0 21 14.5 35.5t35.5 14.5t35.5 -14.5t14.5 -35.5t-14.5 -35.5t-35.5 -14.5t-35.5 14.5t-14.5 35.5z" />
<glyph unicode="&#xa2;" d="M0 700q0 290 205 495t495 205h650q21 0 35.5 -14.5t14.5 -35.5t-14.5 -35.5t-35.5 -14.5h-400v-1200h400q21 0 35.5 -14.5t14.5 -35.5t-14.5 -35.5t-35.5 -14.5h-650q-290 0 -495 205t-205 495zM100 700q0 -249 176 -424q79 -80 174 -124v1096q-95 -44 -174 -123 q-176 -176 -176 -425zM550 118q71 -18 150 -18h150v1200h-150q-79 0 -150 -18v-1164z" />
<glyph unicode="&#xa3;" d="M0 0v700q0 290 205 495t495 205h650q21 0 35.5 -14.5t14.5 -35.5t-14.5 -35.5t-35.5 -14.5h-650q-249 0 -424 -175q-101 -101 -144 -225h1218q21 0 35.5 -14.5t14.5 -35.5t-14.5 -35.5t-35.5 -14.5h-1242q-8 -48 -8 -100v-100h1250q21 0 35.5 -14.5t14.5 -35.5 t-14.5 -35.5t-35.5 -14.5h-1250v-400h1250q21 0 35.5 -14.5t14.5 -35.5t-14.5 -35.5t-35.5 -14.5h-1350z" />
<glyph unicode="&#xa4;" horiz-adv-x="1014" />
<glyph unicode="&#xa5;" d="M0 1350q0 21 14.5 35.5t35.5 14.5t36 -14l615 -614l608 608l6 6q14 14 35 14t35.5 -14.5t14.5 -35.5t-14 -35l-6 -6l-630 -630v-129h350q21 0 35.5 -14.5t14.5 -35.5t-14.5 -35.5t-35.5 -14.5h-350v-100h350q21 0 35.5 -14.5t14.5 -35.5t-14.5 -35.5t-35.5 -14.5h-350 v-200q0 -21 -14.5 -35.5t-35.5 -14.5t-35.5 14.5t-14.5 35.5v200h-350q-21 0 -35.5 14.5t-14.5 35.5t14.5 35.5t35.5 14.5h350v100h-350q-21 0 -35.5 14.5t-14.5 35.5t14.5 35.5t35.5 14.5h350v130l-629 629q-3 2 -6 6q-15 14 -15 35z" />
<glyph unicode="&#xa6;" horiz-adv-x="1014" />
<glyph unicode="&#xa7;" horiz-adv-x="1014" />
<glyph unicode="&#xa8;" horiz-adv-x="550" d="M0 1350q0 21 14.5 35.5t35.5 14.5t35.5 -14.5t14.5 -35.5t-14.5 -35.5t-35.5 -14.5t-35.5 14.5t-14.5 35.5zM200 1350q0 21 14.5 35.5t35.5 14.5t35.5 -14.5t14.5 -35.5t-14.5 -35.5t-35.5 -14.5t-35.5 14.5t-14.5 35.5z" />
<glyph unicode="&#xa9;" d="M0 700q0 290 205 495t495 205t495 -205t205 -495t-205 -495t-495 -205t-495 205t-205 495zM100 700q0 -249 175.5 -424.5t424.5 -175.5t424.5 175.5t175.5 424.5t-175.5 424.5t-424.5 175.5t-424.5 -175.5t-175.5 -424.5zM250 700q0 186 132 318t318 132t318 -132 q95 -95 122 -218h-156q-22 62 -72 112q-88 88 -212 88t-212 -88t-88 -212t88 -212t212 -88t212 88q50 50 72 112h156q-27 -123 -122 -218q-132 -132 -318 -132t-318 132t-132 318z" />
<glyph unicode="&#xaa;" horiz-adv-x="648" />
<glyph unicode="&#xab;" horiz-adv-x="1250" d="M0 700q0 17 9 30l6 6l644 644l1 -1q2 4 5 7q15 14 35 14q21 0 35.5 -14.5t14.5 -35.5t-14 -35l-6 -6l-608 -608l614 -615q14 -15 14 -36t-14.5 -35.5t-35.5 -14.5q-20 0 -35 15q-3 2 -5 5l-639 639q-3 2 -6 6q-15 14 -15 35zM300 700q0 17 9 30l6 6l644 644l1 -1q2 4 5 7 q15 14 35 14q21 0 35.5 -14.5t14.5 -35.5t-14 -35l-6 -6l-608 -608l614 -615q14 -15 14 -36t-14.5 -35.5t-35.5 -14.5q-20 0 -35 15q-3 2 -5 5l-639 639q-3 2 -6 6q-15 14 -15 35z" />
<glyph unicode="&#xac;" horiz-adv-x="1014" />
<glyph unicode="&#xad;" d="M0 700q0 21 14.5 35.5t35.5 14.5h1300q21 0 35.5 -14.5t14.5 -35.5t-14.5 -35.5t-35.5 -14.5h-1300q-21 0 -35.5 14.5t-14.5 35.5z" />
<glyph unicode="&#xaf;" d="M0 1350q0 21 14.5 35.5t35.5 14.5h1300q21 0 35.5 -14.5t14.5 -35.5t-14.5 -35.5t-35.5 -14.5h-1300q-21 0 -35.5 14.5t-14.5 35.5z" />
<glyph unicode="&#xb0;" horiz-adv-x="800" d="M0 1125q0 114 80.5 194.5t194.5 80.5t194.5 -80.5t80.5 -194.5t-80.5 -194.5t-194.5 -80.5t-194.5 80.5t-80.5 194.5zM100 1125q0 -72 51 -123.5t124 -51.5q72 0 123.5 51.5t51.5 123.5q0 73 -51.5 124t-123.5 51q-73 0 -124 -51t-51 -124z" />
<glyph unicode="&#xb1;" d="M0 50q0 21 14.5 35.5t35.5 14.5h600v550h-600q-21 0 -35.5 14.5t-14.5 35.5t14.5 35.5t35.5 14.5h600v600q0 21 14.5 35.5t35.5 14.5t35.5 -14.5t14.5 -35.5v-600h600q21 0 35.5 -14.5t14.5 -35.5t-14.5 -35.5t-35.5 -14.5h-600v-550h600q21 0 35.5 -14.5t14.5 -35.5 t-14.5 -35.5t-35.5 -14.5h-1300q-21 0 -35.5 14.5t-14.5 35.5z" />
<glyph unicode="&#xb2;" horiz-adv-x="1014" />
<glyph unicode="&#xb3;" horiz-adv-x="1014" />
<glyph unicode="&#xb4;" horiz-adv-x="300" d="M-28 1170l61 190q6 20 24.5 29.5t38.5 3.5t29 -24.5t3 -38.5l-61 -190q-6 -20 -24.5 -29.5t-38.5 -3.5t-29 24.5t-3 38.5z" />
<glyph unicode="&#xb5;" horiz-adv-x="1180" />
<glyph unicode="&#xb6;" d="M0 1025q0 155 110 265t265 110h975q21 0 35.5 -14.5t14.5 -35.5v-1300q0 -21 -14.5 -35.5t-35.5 -14.5t-35.5 14.5t-14.5 35.5v600h-200v-600q0 -21 -14.5 -35.5t-35.5 -14.5t-35.5 14.5t-14.5 35.5v600h-625q-155 0 -265 110t-110 265zM1100 750h200v550h-200v-550z" />
<glyph unicode="&#xb7;" horiz-adv-x="508" />
<glyph unicode="&#xb8;" horiz-adv-x="400" d="M0 -150q100 0 100 -25t-100 -75q200 50 200 100t-50 100l50 50h-150z" />
<glyph unicode="&#xbb;" horiz-adv-x="1250" d="M0 50q0 21 14 36l615 615l-609 608q-3 3 -5 6q-15 14 -15 35t14.5 35.5t35.5 14.5q20 0 35 -14q3 -3 5 -7l1 1l645 -644l5 -6q9 -13 9 -30q0 -21 -14 -35q-4 -4 -7 -6l-639 -639q-2 -3 -5 -5q-15 -15 -35 -15q-21 0 -35.5 14.5t-14.5 35.5zM300 50q0 21 14 36l615 615 l-609 608q-3 3 -5 6q-15 14 -15 35t14.5 35.5t35.5 14.5q20 0 35 -14q3 -3 5 -7l1 1l645 -644l5 -6q9 -13 9 -30q0 -21 -14 -35q-4 -4 -7 -6l-639 -639q-2 -3 -5 -5q-15 -15 -35 -15q-21 0 -35.5 14.5t-14.5 35.5z" />
<glyph unicode="&#xbc;" horiz-adv-x="1708" />
<glyph unicode="&#xbd;" horiz-adv-x="1964" />
<glyph unicode="&#xbe;" horiz-adv-x="1708" />
<glyph unicode="&#xbf;" d="M0 375q0 155 110 265t265 110h650q114 0 194.5 80.5t80.5 194.5q0 21 14.5 35.5t35.5 14.5t35.5 -14.5t14.5 -35.5q0 -155 -110 -265t-265 -110h-650q-114 0 -194.5 -80.5t-80.5 -194.5t80.5 -194.5t194.5 -80.5h975q21 0 35.5 -14.5t14.5 -35.5t-14.5 -35.5t-35.5 -14.5 h-975q-155 0 -265 110t-110 265zM1300 1350q0 21 14.5 35.5t35.5 14.5t35.5 -14.5t14.5 -35.5t-14.5 -35.5t-35.5 -14.5t-35.5 14.5t-14.5 35.5z" />
<glyph unicode="&#xc0;" d="M0 50q0 20 13 34l637 1270q2 19 15 32q14 14 35 14t36 -14q7 -8 11 -17l2 1l653 -1302l-4 -2q2 -8 2 -16q0 -21 -14.5 -35.5t-35.5 -14.5t-35 15q-15 14 -15 34l-101 201h-991l-114 -227l-1 1q-3 -5 -7 -9q-15 -15 -36 -15t-35.5 14.5t-14.5 35.5zM258 350h891l-445 888z M596 1740q-6 20 3 38.5t29 24.5t38.5 -3.5t24.5 -29.5l61 -190q6 -20 -3 -38.5t-29 -24.5t-38.5 3.5t-24.5 29.5z" />
<glyph unicode="&#xc1;" d="M0 50q0 20 13 34l637 1270q2 19 15 32q14 14 35 14t36 -14q7 -8 11 -17l2 1l653 -1302l-4 -2q2 -8 2 -16q0 -21 -14.5 -35.5t-35.5 -14.5t-35 15q-15 14 -15 34l-101 201h-991l-114 -227l-1 1q-3 -5 -7 -9q-15 -15 -36 -15t-35.5 14.5t-14.5 35.5zM258 350h891l-445 888z M650 1580l61 190q6 20 24.5 29.5t38.5 3.5t29 -24.5t3 -38.5l-61 -190q-6 -20 -24.5 -29.5t-38.5 -3.5t-29 24.5t-3 38.5z" />
<glyph unicode="&#xc2;" d="M0 50q0 20 13 34l637 1270q2 19 15 32q14 14 35 14t36 -14q7 -8 11 -17l2 1l653 -1302l-4 -2q2 -8 2 -16q0 -21 -14.5 -35.5t-35.5 -14.5t-35 15q-15 14 -15 34l-101 201h-991l-114 -227l-1 1q-3 -5 -7 -9q-15 -15 -36 -15t-35.5 14.5t-14.5 35.5zM258 350h891l-445 888z M520 1601q0 20 15 35q2 3 5 5l129 129q2 3 6 7q14 14 35 14q17 0 30 -9l6 -5l134 -136l-1 -1q4 -2 7 -5q14 -15 14 -35q0 -21 -14.5 -35.5t-35.5 -14.5t-35 15q-3 2 -6 5l-98 100l-105 -105q-15 -14 -36 -14t-35.5 14.5t-14.5 35.5z" />
<glyph unicode="&#xc3;" d="M0 50q0 20 13 34l637 1270q2 19 15 32q14 14 35 14t36 -14q7 -8 11 -17l2 1l653 -1302l-4 -2q2 -8 2 -16q0 -21 -14.5 -35.5t-35.5 -14.5t-35 15q-15 14 -15 34l-101 201h-991l-114 -227l-1 1q-3 -5 -7 -9q-15 -15 -36 -15t-35.5 14.5t-14.5 35.5zM258 350h891l-445 888z " />
<glyph unicode="&#xc4;" d="M0 50q0 20 13 34l637 1270q2 19 15 32q14 14 35 14t36 -14q7 -8 11 -17l2 1l653 -1302l-4 -2q2 -8 2 -16q0 -21 -14.5 -35.5t-35.5 -14.5t-35 15q-15 14 -15 34l-101 201h-991l-114 -227l-1 1q-3 -5 -7 -9q-15 -15 -36 -15t-35.5 14.5t-14.5 35.5zM258 350h891l-445 888z M551 1760q0 21 14.5 35.5t35.5 14.5t35.5 -14.5t14.5 -35.5t-14.5 -35.5t-35.5 -14.5t-35.5 14.5t-14.5 35.5zM751 1760q0 21 14.5 35.5t35.5 14.5t35.5 -14.5t14.5 -35.5t-14.5 -35.5t-35.5 -14.5t-35.5 14.5t-14.5 35.5z" />
<glyph unicode="&#xc5;" d="M0 50q0 20 13 34l637 1270q2 19 15 32q14 14 35 14t36 -14q7 -8 11 -17l2 1l653 -1302l-4 -2q2 -8 2 -16q0 -21 -14.5 -35.5t-35.5 -14.5t-35 15q-15 14 -15 34l-101 201h-991l-114 -227l-1 1q-3 -5 -7 -9q-15 -15 -36 -15t-35.5 14.5t-14.5 35.5zM258 350h891l-445 888z " />
<glyph unicode="&#xc6;" horiz-adv-x="2512" d="M0 50q0 20 13 34l637 1270q2 19 15 32q14 14 35 14t36 -14q7 -8 11 -17l2 1l163 -325v305q0 21 14.5 35.5t35.5 14.5h1300q21 0 35.5 -14.5t14.5 -35.5t-14.5 -35.5t-35.5 -14.5h-1250v-454l48 -96h1202q21 0 35.5 -14.5t14.5 -35.5t-14.5 -35.5t-35.5 -14.5h-1152 l276 -550h876q21 0 35.5 -14.5t14.5 -35.5t-14.5 -35.5t-35.5 -14.5h-1300q-21 0 -35.5 14.5t-14.5 35.5v200h-704l-114 -227l-1 1q-3 -5 -7 -9q-15 -15 -36 -15t-35.5 14.5t-14.5 35.5zM258 350h654v473l-208 415zM1012 100h262l-75 150h-187v-150zM1012 350h137l-137 273 v-273z" />
<glyph unicode="&#xc7;" d="M0 700q0 290 205 495t495 205h650q21 0 35.5 -14.5t14.5 -35.5t-14.5 -35.5t-35.5 -14.5h-650q-249 0 -424.5 -175.5t-175.5 -424.5t175.5 -424.5t424.5 -175.5h650q21 0 35.5 -14.5t14.5 -35.5t-14.5 -35.5t-35.5 -14.5h-550l-50 -50q50 -50 50 -100t-200 -100 q100 50 100 75t-100 25l50 150h50q-290 0 -495 205t-205 495z" />
<glyph unicode="&#xc8;" d="M0 50v1300q0 21 14.5 35.5t35.5 14.5h1300q21 0 35.5 -14.5t14.5 -35.5t-14.5 -35.5t-35.5 -14.5h-1250v-550h1250q21 0 35.5 -14.5t14.5 -35.5t-14.5 -35.5t-35.5 -14.5h-1250v-550h1250q21 0 35.5 -14.5t14.5 -35.5t-14.5 -35.5t-35.5 -14.5h-1300q-21 0 -35.5 14.5 t-14.5 35.5zM595 1740q-6 20 3 38.5t29 24.5t38.5 -3.5t24.5 -29.5l61 -190q6 -20 -3 -38.5t-29 -24.5t-38.5 3.5t-24.5 29.5z" />
<glyph unicode="&#xc9;" d="M0 50v1300q0 21 14.5 35.5t35.5 14.5h1300q21 0 35.5 -14.5t14.5 -35.5t-14.5 -35.5t-35.5 -14.5h-1250v-550h1250q21 0 35.5 -14.5t14.5 -35.5t-14.5 -35.5t-35.5 -14.5h-1250v-550h1250q21 0 35.5 -14.5t14.5 -35.5t-14.5 -35.5t-35.5 -14.5h-1300q-21 0 -35.5 14.5 t-14.5 35.5zM649 1580l61 190q6 20 24.5 29.5t38.5 3.5t29 -24.5t3 -38.5l-61 -190q-6 -20 -24.5 -29.5t-38.5 -3.5t-29 24.5t-3 38.5z" />
<glyph unicode="&#xca;" d="M0 50v1300q0 21 14.5 35.5t35.5 14.5h1300q21 0 35.5 -14.5t14.5 -35.5t-14.5 -35.5t-35.5 -14.5h-1250v-550h1250q21 0 35.5 -14.5t14.5 -35.5t-14.5 -35.5t-35.5 -14.5h-1250v-550h1250q21 0 35.5 -14.5t14.5 -35.5t-14.5 -35.5t-35.5 -14.5h-1300q-21 0 -35.5 14.5 t-14.5 35.5zM520 1601q0 20 15 35q2 3 5 5l129 129q2 3 6 7q14 14 35 14q17 0 30 -9l6 -5l134 -136l-1 -1q4 -2 7 -5q14 -15 14 -35q0 -21 -14.5 -35.5t-35.5 -14.5t-35 15q-3 2 -6 5l-98 100l-105 -105q-15 -14 -36 -14t-35.5 14.5t-14.5 35.5z" />
<glyph unicode="&#xcb;" d="M0 50v1300q0 21 14.5 35.5t35.5 14.5h1300q21 0 35.5 -14.5t14.5 -35.5t-14.5 -35.5t-35.5 -14.5h-1250v-550h1250q21 0 35.5 -14.5t14.5 -35.5t-14.5 -35.5t-35.5 -14.5h-1250v-550h1250q21 0 35.5 -14.5t14.5 -35.5t-14.5 -35.5t-35.5 -14.5h-1300q-21 0 -35.5 14.5 t-14.5 35.5zM550 1760q0 21 14.5 35.5t35.5 14.5t35.5 -14.5t14.5 -35.5t-14.5 -35.5t-35.5 -14.5t-35.5 14.5t-14.5 35.5zM750 1760q0 21 14.5 35.5t35.5 14.5t35.5 -14.5t14.5 -35.5t-14.5 -35.5t-35.5 -14.5t-35.5 14.5t-14.5 35.5z" />
<glyph unicode="&#xcc;" horiz-adv-x="300" d="M-55 1740q-6 20 3 38.5t29 24.5t38.5 -3.5t24.5 -29.5l61 -190q6 -20 -3 -38.5t-29 -24.5t-38.5 3.5t-24.5 29.5zM0 50v1300q0 21 14.5 35.5t35.5 14.5t35.5 -14.5t14.5 -35.5v-1300q0 -21 -14.5 -35.5t-35.5 -14.5t-35.5 14.5t-14.5 35.5z" />
<glyph unicode="&#xcd;" horiz-adv-x="300" d="M-1 1580l61 190q6 20 24.5 29.5t38.5 3.5t29 -24.5t3 -38.5l-61 -190q-6 -20 -24.5 -29.5t-38.5 -3.5t-29 24.5t-3 38.5zM0 50v1300q0 21 14.5 35.5t35.5 14.5t35.5 -14.5t14.5 -35.5v-1300q0 -21 -14.5 -35.5t-35.5 -14.5t-35.5 14.5t-14.5 35.5z" />
<glyph unicode="&#xce;" horiz-adv-x="300" d="M-140 1601q0 20 15 35q2 3 5 5l129 129q2 3 6 7q14 14 35 14q17 0 30 -9l6 -5l134 -136l-1 -1q4 -2 7 -5q14 -15 14 -35q0 -21 -14.5 -35.5t-35.5 -14.5t-35 15q-3 2 -6 5l-98 100l-105 -105q-15 -14 -36 -14t-35.5 14.5t-14.5 35.5zM0 50v1300q0 21 14.5 35.5t35.5 14.5 t35.5 -14.5t14.5 -35.5v-1300q0 -21 -14.5 -35.5t-35.5 -14.5t-35.5 14.5t-14.5 35.5z" />
<glyph unicode="&#xcf;" horiz-adv-x="300" d="M-100 1760q0 21 14.5 35.5t35.5 14.5t35.5 -14.5t14.5 -35.5t-14.5 -35.5t-35.5 -14.5t-35.5 14.5t-14.5 35.5zM0 50v1300q0 21 14.5 35.5t35.5 14.5t35.5 -14.5t14.5 -35.5v-1300q0 -21 -14.5 -35.5t-35.5 -14.5t-35.5 14.5t-14.5 35.5zM100 1760q0 21 14.5 35.5 t35.5 14.5t35.5 -14.5t14.5 -35.5t-14.5 -35.5t-35.5 -14.5t-35.5 14.5t-14.5 35.5z" />
<glyph unicode="&#xd0;" d="M0 50v1300q0 21 14.5 35.5t35.5 14.5h650q290 0 495 -205t205 -495t-205 -495t-495 -205h-650q-21 0 -35.5 14.5t-14.5 35.5zM100 100h600q249 0 425 176q157 157 173 374h-1198v-550zM100 750h1198q-16 217 -173 375q-176 175 -425 175h-600v-550z" />
<glyph unicode="&#xd1;" d="M0 50v1300q0 21 14.5 35.5t35.5 14.5t36 -14l1214 -1215v1179q0 21 14.5 35.5t35.5 14.5t35.5 -14.5t14.5 -35.5v-1300q0 -21 -14.5 -35.5t-35.5 -14.5t-35 15q-3 2 -6 5l-1209 1210v-1180q0 -21 -14.5 -35.5t-35.5 -14.5t-35.5 14.5t-14.5 35.5z" />
<glyph unicode="&#xd2;" d="M0 700q0 290 205 495t495 205t495 -205t205 -495t-205 -495t-495 -205t-495 205t-205 495zM100 700q0 -249 175.5 -424.5t424.5 -175.5t424.5 175.5t175.5 424.5t-175.5 424.5t-424.5 175.5t-424.5 -175.5t-175.5 -424.5zM595 1740q-6 20 3 38.5t29 24.5t38.5 -3.5 t24.5 -29.5l61 -190q6 -20 -3 -38.5t-29 -24.5t-38.5 3.5t-24.5 29.5z" />
<glyph unicode="&#xd3;" d="M0 700q0 290 205 495t495 205t495 -205t205 -495t-205 -495t-495 -205t-495 205t-205 495zM100 700q0 -249 175.5 -424.5t424.5 -175.5t424.5 175.5t175.5 424.5t-175.5 424.5t-424.5 175.5t-424.5 -175.5t-175.5 -424.5zM649 1580l61 190q6 20 24.5 29.5t38.5 3.5 t29 -24.5t3 -38.5l-61 -190q-6 -20 -24.5 -29.5t-38.5 -3.5t-29 24.5t-3 38.5z" />
<glyph unicode="&#xd4;" d="M0 700q0 290 205 495t495 205t495 -205t205 -495t-205 -495t-495 -205t-495 205t-205 495zM100 700q0 -249 175.5 -424.5t424.5 -175.5t424.5 175.5t175.5 424.5t-175.5 424.5t-424.5 175.5t-424.5 -175.5t-175.5 -424.5zM510 1601q0 20 15 35q2 3 5 5l129 129q2 3 6 7 q14 14 35 14q17 0 30 -9l6 -5l134 -136l-1 -1q4 -2 7 -5q14 -15 14 -35q0 -21 -14.5 -35.5t-35.5 -14.5t-35 15q-3 2 -6 5l-98 100l-105 -105q-15 -14 -36 -14t-35.5 14.5t-14.5 35.5z" />
<glyph unicode="&#xd5;" d="M0 700q0 290 205 495t495 205t495 -205t205 -495t-205 -495t-495 -205t-495 205t-205 495zM100 700q0 -249 175.5 -424.5t424.5 -175.5t424.5 175.5t175.5 424.5t-175.5 424.5t-424.5 175.5t-424.5 -175.5t-175.5 -424.5z" />
<glyph unicode="&#xd6;" d="M0 700q0 290 205 495t495 205t495 -205t205 -495t-205 -495t-495 -205t-495 205t-205 495zM100 700q0 -249 175.5 -424.5t424.5 -175.5t424.5 175.5t175.5 424.5t-175.5 424.5t-424.5 175.5t-424.5 -175.5t-175.5 -424.5zM550 1760q0 21 14.5 35.5t35.5 14.5t35.5 -14.5 t14.5 -35.5t-14.5 -35.5t-35.5 -14.5t-35.5 14.5t-14.5 35.5zM750 1760q0 21 14.5 35.5t35.5 14.5t35.5 -14.5t14.5 -35.5t-14.5 -35.5t-35.5 -14.5t-35.5 14.5t-14.5 35.5z" />
<glyph unicode="&#xd7;" d="M0 700q0 21 14.5 35.5t35.5 14.5h600v600q0 21 14.5 35.5t35.5 14.5t35.5 -14.5t14.5 -35.5v-600h600q21 0 35.5 -14.5t14.5 -35.5t-14.5 -35.5t-35.5 -14.5h-600v-600q0 -21 -14.5 -35.5t-35.5 -14.5t-35.5 14.5t-14.5 35.5v600h-600q-21 0 -35.5 14.5t-14.5 35.5z" />
<glyph unicode="&#xd8;" d="M0 50q0 21 15 36l156 156q-171 193 -171 458q0 290 205 495t495 205q265 0 459 -171l150 150q2 3 6 7q14 14 35 14t35.5 -14.5t14.5 -35.5t-14 -35q-3 -3 -6 -5l1 -1l-151 -151q170 -194 170 -458q0 -290 -205 -495t-495 -205q-265 0 -458 171l-156 -156q-15 -15 -36 -15 t-35.5 14.5t-14.5 35.5zM100 700q0 -223 141 -388l424 424q3 3 6 5l417 417q-164 142 -388 142q-249 0 -424.5 -175.5t-175.5 -424.5zM312 241q165 -141 388 -141q249 0 424.5 175.5t175.5 424.5q0 223 -141 387l-428 -428v1z" />
<glyph unicode="&#xd9;" d="M0 700v650q0 21 14.5 35.5t35.5 14.5t35.5 -14.5t14.5 -35.5v-650q0 -249 175.5 -424.5t424.5 -175.5t424.5 175.5t175.5 424.5v650q0 21 14.5 35.5t35.5 14.5t35.5 -14.5t14.5 -35.5v-650q0 -290 -205 -495t-495 -205t-495 205t-205 495zM595 1740q-6 20 3 38.5t29 24.5 t38.5 -3.5t24.5 -29.5l61 -190q6 -20 -3 -38.5t-29 -24.5t-38.5 3.5t-24.5 29.5z" />
<glyph unicode="&#xda;" d="M0 700v650q0 21 14.5 35.5t35.5 14.5t35.5 -14.5t14.5 -35.5v-650q0 -249 175.5 -424.5t424.5 -175.5t424.5 175.5t175.5 424.5v650q0 21 14.5 35.5t35.5 14.5t35.5 -14.5t14.5 -35.5v-650q0 -290 -205 -495t-495 -205t-495 205t-205 495zM649 1580l61 190 q6 20 24.5 29.5t38.5 3.5t29 -24.5t3 -38.5l-61 -190q-6 -20 -24.5 -29.5t-38.5 -3.5t-29 24.5t-3 38.5z" />
<glyph unicode="&#xdb;" d="M0 700v650q0 21 14.5 35.5t35.5 14.5t35.5 -14.5t14.5 -35.5v-650q0 -249 175.5 -424.5t424.5 -175.5t424.5 175.5t175.5 424.5v650q0 21 14.5 35.5t35.5 14.5t35.5 -14.5t14.5 -35.5v-650q0 -290 -205 -495t-495 -205t-495 205t-205 495zM700 1621q0 20 15 35q2 3 5 5 l129 129q2 3 6 7q14 14 35 14q17 0 30 -9l6 -5l134 -136l-1 -1q4 -2 7 -5q14 -15 14 -35q0 -21 -14.5 -35.5t-35.5 -14.5t-35 15q-3 2 -6 5l-98 100l-105 -105q-15 -14 -36 -14t-35.5 14.5t-14.5 35.5z" />
<glyph unicode="&#xdc;" d="M0 700v650q0 21 14.5 35.5t35.5 14.5t35.5 -14.5t14.5 -35.5v-650q0 -249 175.5 -424.5t424.5 -175.5t424.5 175.5t175.5 424.5v650q0 21 14.5 35.5t35.5 14.5t35.5 -14.5t14.5 -35.5v-650q0 -290 -205 -495t-495 -205t-495 205t-205 495zM550 1760q0 21 14.5 35.5 t35.5 14.5t35.5 -14.5t14.5 -35.5t-14.5 -35.5t-35.5 -14.5t-35.5 14.5t-14.5 35.5zM750 1760q0 21 14.5 35.5t35.5 14.5t35.5 -14.5t14.5 -35.5t-14.5 -35.5t-35.5 -14.5t-35.5 14.5t-14.5 35.5z" />
<glyph unicode="&#xdd;" d="M0 1350q0 21 14.5 35.5t35.5 14.5t36 -14l615 -614l608 608l6 6q14 14 35 14t35.5 -14.5t14.5 -35.5t-14 -35l-6 -6l-630 -630v-629q0 -21 -14.5 -35.5t-35.5 -14.5t-35.5 14.5t-14.5 35.5v630l-629 629q-3 2 -6 6q-15 14 -15 35zM649 1580l61 190q6 20 24.5 29.5 t38.5 3.5t29 -24.5t3 -38.5l-61 -190q-6 -20 -24.5 -29.5t-38.5 -3.5t-29 24.5t-3 38.5z" />
<glyph unicode="&#xde;" d="M0 50v1300q0 21 14.5 35.5t35.5 14.5t35.5 -14.5t14.5 -35.5v-1300q0 -21 -14.5 -35.5t-35.5 -14.5t-35.5 14.5t-14.5 35.5zM0 -150v1300q0 21 14.5 35.5t35.5 14.5h975q155 0 265 -110t110 -265t-110 -265t-265 -110h-925v-600q0 -21 -14.5 -35.5t-35.5 -14.5 t-35.5 14.5t-14.5 35.5zM100 550h925q114 0 194.5 80.5t80.5 194.5t-80.5 194.5t-194.5 80.5h-925v-550z" />
<glyph unicode="&#xdf;" d="M0 50q0 21 14.5 35.5t35.5 14.5h975q114 0 194.5 80.5t80.5 194.5t-80.5 194.5t-194.5 80.5h-650q-155 0 -265 110t-110 265t110 265t265 110h975q21 0 35.5 -14.5t14.5 -35.5t-14.5 -35.5t-35.5 -14.5h-975q-114 0 -194.5 -80.5t-80.5 -194.5t80.5 -194.5t194.5 -80.5 h650q155 0 265 -110t110 -265t-110 -265t-265 -110h-975q-21 0 -35.5 14.5t-14.5 35.5z" />
<glyph unicode="&#xe0;" d="M0 50q0 20 13 34l637 1270q2 19 15 32q14 14 35 14t36 -14q7 -8 11 -17l2 1l653 -1302l-4 -2q2 -8 2 -16q0 -21 -14.5 -35.5t-35.5 -14.5t-35 15q-15 14 -15 34l-101 201h-991l-114 -227l-1 1q-3 -5 -7 -9q-15 -15 -36 -15t-35.5 14.5t-14.5 35.5zM258 350h891l-445 888z M596 1740q-6 20 3.5 38.5t29.5 24.5t38 -3.5t24 -29.5l61 -190q7 -20 -2.5 -38.5t-29.5 -24.5t-38.5 3.5t-24.5 29.5z" />
<glyph unicode="&#xe1;" d="M0 50q0 20 13 34l637 1270q2 19 15 32q14 14 35 14t36 -14q7 -8 11 -17l2 1l653 -1302l-4 -2q2 -8 2 -16q0 -21 -14.5 -35.5t-35.5 -14.5t-35 15q-15 14 -15 34l-101 201h-991l-114 -227l-1 1q-3 -5 -7 -9q-15 -15 -36 -15t-35.5 14.5t-14.5 35.5zM258 350h891l-445 888z M650 1580l61 190q6 20 24 29.5t38 3.5t29.5 -24.5t3.5 -38.5l-61 -190q-6 -20 -24.5 -29.5t-38.5 -3.5t-29.5 24.5t-2.5 38.5z" />
<glyph unicode="&#xe2;" d="M0 50q0 20 13 34l637 1270q2 19 15 32q14 14 35 14t36 -14q7 -8 11 -17l2 1l653 -1302l-4 -2q2 -8 2 -16q0 -21 -14.5 -35.5t-35.5 -14.5t-35 15q-15 14 -15 34l-101 201h-991l-114 -227l-1 1q-3 -5 -7 -9q-15 -15 -36 -15t-35.5 14.5t-14.5 35.5zM258 350h891l-445 888z M520 1501q0 20 15 35q2 3 5 5l129 129q2 3 6 7q14 14 35 14q17 0 30 -9l6 -5l134 -136l-1 -1q4 -2 7 -5q14 -15 14 -35q0 -21 -14.5 -35.5t-35.5 -14.5t-35 15q-3 2 -6 5l-98 100l-105 -105q-15 -14 -36 -14t-35.5 14.5t-14.5 35.5z" />
<glyph unicode="&#xe3;" d="M0 50q0 20 13 34l637 1270q2 19 15 32q14 14 35 14t36 -14q7 -8 11 -17l2 1l653 -1302l-4 -2q2 -8 2 -16q0 -21 -14.5 -35.5t-35.5 -14.5t-35 15q-15 14 -15 34l-101 201h-991l-114 -227l-1 1q-3 -5 -7 -9q-15 -15 -36 -15t-35.5 14.5t-14.5 35.5zM258 350h891l-445 888z " />
<glyph unicode="&#xe4;" d="M0 50q0 20 13 34l637 1270q2 19 15 32q14 14 35 14t36 -14q7 -8 11 -17l2 1l653 -1302l-4 -2q2 -8 2 -16q0 -21 -14.5 -35.5t-35.5 -14.5t-35 15q-15 14 -15 34l-101 201h-991l-114 -227l-1 1q-3 -5 -7 -9q-15 -15 -36 -15t-35.5 14.5t-14.5 35.5zM258 350h891l-445 888z M551 1760q0 21 14.5 35.5t35.5 14.5t35.5 -14.5t14.5 -35.5t-14.5 -35.5t-35.5 -14.5t-35.5 14.5t-14.5 35.5zM751 1760q0 21 14.5 35.5t35.5 14.5t35.5 -14.5t14.5 -35.5t-14.5 -35.5t-35.5 -14.5t-35.5 14.5t-14.5 35.5z" />
<glyph unicode="&#xe5;" d="M0 50q0 20 13 34l637 1270q2 19 15 32q14 14 35 14t36 -14q7 -8 11 -17l2 1l653 -1302l-4 -2q2 -8 2 -16q0 -21 -14.5 -35.5t-35.5 -14.5t-35 15q-15 14 -15 34l-101 201h-991l-114 -227l-1 1q-3 -5 -7 -9q-15 -15 -36 -15t-35.5 14.5t-14.5 35.5zM258 350h891l-445 888z " />
<glyph unicode="&#xe6;" horiz-adv-x="2512" d="M0 50q0 20 13 34l637 1270q2 19 15 32q14 14 35 14t36 -14q7 -8 11 -17l2 1l163 -325v305q0 21 14.5 35.5t35.5 14.5h1300q21 0 35.5 -14.5t14.5 -35.5t-14.5 -35.5t-35.5 -14.5h-1250v-454l48 -96h1202q21 0 35.5 -14.5t14.5 -35.5t-14.5 -35.5t-35.5 -14.5h-1152 l276 -550h876q21 0 35.5 -14.5t14.5 -35.5t-14.5 -35.5t-35.5 -14.5h-1300q-21 0 -35.5 14.5t-14.5 35.5v200h-704l-114 -227l-1 1q-3 -5 -7 -9q-15 -15 -36 -15t-35.5 14.5t-14.5 35.5zM258 350h654v473l-208 415zM1012 100h262l-75 150h-187v-150zM1012 350h137l-137 273 v-273z" />
<glyph unicode="&#xe7;" d="M0 700q0 290 205 495t495 205h650q21 0 35.5 -14.5t14.5 -35.5t-14.5 -35.5t-35.5 -14.5h-650q-249 0 -424.5 -175.5t-175.5 -424.5t175.5 -424.5t424.5 -175.5h650q21 0 35.5 -14.5t14.5 -35.5t-14.5 -35.5t-35.5 -14.5h-550l-50 -50q50 -50 50 -100t-200 -100 q100 50 100 75t-100 25l50 150h50q-290 0 -495 205t-205 495z" />
<glyph unicode="&#xe8;" d="M0 50v1300q0 21 14.5 35.5t35.5 14.5h1300q21 0 35.5 -14.5t14.5 -35.5t-14.5 -35.5t-35.5 -14.5h-1250v-550h1250q21 0 35.5 -14.5t14.5 -35.5t-14.5 -35.5t-35.5 -14.5h-1250v-550h1250q21 0 35.5 -14.5t14.5 -35.5t-14.5 -35.5t-35.5 -14.5h-1300q-21 0 -35.5 14.5 t-14.5 35.5zM595 1740q-6 20 3.5 38.5t29.5 24.5t38 -3.5t24 -29.5l61 -190q7 -20 -2.5 -38.5t-29.5 -24.5t-38.5 3.5t-24.5 29.5z" />
<glyph unicode="&#xe9;" d="M0 50v1300q0 21 14.5 35.5t35.5 14.5h1300q21 0 35.5 -14.5t14.5 -35.5t-14.5 -35.5t-35.5 -14.5h-1250v-550h1250q21 0 35.5 -14.5t14.5 -35.5t-14.5 -35.5t-35.5 -14.5h-1250v-550h1250q21 0 35.5 -14.5t14.5 -35.5t-14.5 -35.5t-35.5 -14.5h-1300q-21 0 -35.5 14.5 t-14.5 35.5zM649 1580l61 190q6 20 24 29.5t38 3.5t29.5 -24.5t3.5 -38.5l-61 -190q-6 -20 -24.5 -29.5t-38.5 -3.5t-29.5 24.5t-2.5 38.5z" />
<glyph unicode="&#xea;" d="M0 50v1300q0 21 14.5 35.5t35.5 14.5h1300q21 0 35.5 -14.5t14.5 -35.5t-14.5 -35.5t-35.5 -14.5h-1250v-550h1250q21 0 35.5 -14.5t14.5 -35.5t-14.5 -35.5t-35.5 -14.5h-1250v-550h1250q21 0 35.5 -14.5t14.5 -35.5t-14.5 -35.5t-35.5 -14.5h-1300q-21 0 -35.5 14.5 t-14.5 35.5zM520 1510q0 20 15 35q2 3 5 5l129 129q2 3 6 7q14 14 35 14q17 0 30 -9l6 -5l134 -136l-1 -1q4 -2 7 -5q14 -15 14 -35q0 -21 -14.5 -35.5t-35.5 -14.5t-35 15q-3 2 -6 5l-98 100l-105 -105q-15 -14 -36 -14t-35.5 14.5t-14.5 35.5z" />
<glyph unicode="&#xeb;" d="M0 50v1300q0 21 14.5 35.5t35.5 14.5h1300q21 0 35.5 -14.5t14.5 -35.5t-14.5 -35.5t-35.5 -14.5h-1250v-550h1250q21 0 35.5 -14.5t14.5 -35.5t-14.5 -35.5t-35.5 -14.5h-1250v-550h1250q21 0 35.5 -14.5t14.5 -35.5t-14.5 -35.5t-35.5 -14.5h-1300q-21 0 -35.5 14.5 t-14.5 35.5zM550 1760q0 21 14.5 35.5t35.5 14.5t35.5 -14.5t14.5 -35.5t-14.5 -35.5t-35.5 -14.5t-35.5 14.5t-14.5 35.5zM750 1760q0 21 14.5 35.5t35.5 14.5t35.5 -14.5t14.5 -35.5t-14.5 -35.5t-35.5 -14.5t-35.5 14.5t-14.5 35.5z" />
<glyph unicode="&#xec;" horiz-adv-x="300" d="M6 1740q-6 20 3.5 38.5t29.5 24.5t38 -3.5t24 -29.5l61 -190q7 -20 -2.5 -38.5t-29.5 -24.5t-38.5 3.5t-24.5 29.5zM61 50v1300q0 21 14.5 35.5t35.5 14.5t35.5 -14.5t14.5 -35.5v-1300q0 -21 -14.5 -35.5t-35.5 -14.5t-35.5 14.5t-14.5 35.5z" />
<glyph unicode="&#xed;" horiz-adv-x="300" d="M7 1580l61 190q6 20 24 29.5t38 3.5t29.5 -24.5t3.5 -38.5l-61 -190q-6 -20 -24.5 -29.5t-38.5 -3.5t-29.5 24.5t-2.5 38.5zM8 50v1300q0 21 14.5 35.5t35.5 14.5t35.5 -14.5t14.5 -35.5v-1300q0 -21 -14.5 -35.5t-35.5 -14.5t-35.5 14.5t-14.5 35.5z" />
<glyph unicode="&#xee;" horiz-adv-x="300" d="M-140 1601q0 20 15 35q2 3 5 5l129 129q3 4 6 7q14 14 35 14q17 0 30 -9l6 -5l134 -136l6 -6q14 -15 14 -35q0 -21 -14.5 -35.5t-35.5 -14.5t-35 15q-3 3 -5 6l-99 99l-105 -105q-15 -14 -36 -14t-35.5 14.5t-14.5 35.5zM0 50v1300q0 21 14.5 35.5t35.5 14.5t35.5 -14.5 t14.5 -35.5v-1300q0 -21 -14.5 -35.5t-35.5 -14.5t-35.5 14.5t-14.5 35.5z" />
<glyph unicode="&#xef;" horiz-adv-x="300" d="M0 1760q0 21 14.5 35.5t35.5 14.5t35.5 -14.5t14.5 -35.5t-14.5 -35.5t-35.5 -14.5t-35.5 14.5t-14.5 35.5zM100 50v1300q0 21 14.5 35.5t35.5 14.5t35.5 -14.5t14.5 -35.5v-1300q0 -21 -14.5 -35.5t-35.5 -14.5t-35.5 14.5t-14.5 35.5zM200 1760q0 21 14.5 35.5 t35.5 14.5t35.5 -14.5t14.5 -35.5t-14.5 -35.5t-35.5 -14.5t-35.5 14.5t-14.5 35.5z" />
<glyph unicode="&#xf0;" d="M0 50v1300q0 21 14.5 35.5t35.5 14.5h650q290 0 495 -205t205 -495t-205 -495t-495 -205h-650q-21 0 -35.5 14.5t-14.5 35.5zM100 100h600q249 0 425 176q157 157 173 374h-1198v-550zM100 750h1198q-16 217 -173 375q-176 175 -425 175h-600v-550z" />
<glyph unicode="&#xf1;" d="M0 50v1300q0 21 14.5 35.5t35.5 14.5t36 -14l1214 -1215v1179q0 21 14.5 35.5t35.5 14.5t35.5 -14.5t14.5 -35.5v-1300q0 -21 -14.5 -35.5t-35.5 -14.5t-35 15q-3 2 -6 5l-1209 1210v-1180q0 -21 -14.5 -35.5t-35.5 -14.5t-35.5 14.5t-14.5 35.5z" />
<glyph unicode="&#xf2;" d="M0 700q0 290 205 495t495 205t495 -205t205 -495t-205 -495t-495 -205t-495 205t-205 495zM100 700q0 -249 175.5 -424.5t424.5 -175.5t424.5 175.5t175.5 424.5t-175.5 424.5t-424.5 175.5t-424.5 -175.5t-175.5 -424.5zM595 1740q-6 20 3.5 38.5t29.5 24.5t38 -3.5 t24 -29.5l61 -190q7 -20 -2.5 -38.5t-29.5 -24.5t-38.5 3.5t-24.5 29.5z" />
<glyph unicode="&#xf3;" d="M0 700q0 290 205 495t495 205t495 -205t205 -495t-205 -495t-495 -205t-495 205t-205 495zM100 700q0 -249 175.5 -424.5t424.5 -175.5t424.5 175.5t175.5 424.5t-175.5 424.5t-424.5 175.5t-424.5 -175.5t-175.5 -424.5zM649 1580l61 190q6 20 24 29.5t38 3.5 t29.5 -24.5t3.5 -38.5l-61 -190q-6 -20 -24.5 -29.5t-38.5 -3.5t-29.5 24.5t-2.5 38.5z" />
<glyph unicode="&#xf4;" d="M0 700q0 290 205 495t495 205t495 -205t205 -495t-205 -495t-495 -205t-495 205t-205 495zM100 700q0 -249 175.5 -424.5t424.5 -175.5t424.5 175.5t175.5 424.5t-175.5 424.5t-424.5 175.5t-424.5 -175.5t-175.5 -424.5zM510 1501q0 20 15 35q2 3 5 5l129 129q2 3 6 7 q14 14 35 14q17 0 30 -9l6 -5l134 -136l-1 -1q4 -2 7 -5q14 -15 14 -35q0 -21 -14.5 -35.5t-35.5 -14.5t-35 15q-3 2 -6 5l-98 100l-105 -105q-15 -14 -36 -14t-35.5 14.5t-14.5 35.5z" />
<glyph unicode="&#xf5;" d="M0 700q0 290 205 495t495 205t495 -205t205 -495t-205 -495t-495 -205t-495 205t-205 495zM100 700q0 -249 175.5 -424.5t424.5 -175.5t424.5 175.5t175.5 424.5t-175.5 424.5t-424.5 175.5t-424.5 -175.5t-175.5 -424.5zM550 1760q0 21 14.5 35.5t35.5 14.5t35.5 -14.5 t14.5 -35.5t-14.5 -35.5t-35.5 -14.5t-35.5 14.5t-14.5 35.5zM750 1760q0 21 14.5 35.5t35.5 14.5t35.5 -14.5t14.5 -35.5t-14.5 -35.5t-35.5 -14.5t-35.5 14.5t-14.5 35.5z" />
<glyph unicode="&#xf6;" d="M0 700q0 290 205 495t495 205t495 -205t205 -495t-205 -495t-495 -205t-495 205t-205 495zM100 700q0 -249 175.5 -424.5t424.5 -175.5t424.5 175.5t175.5 424.5t-175.5 424.5t-424.5 175.5t-424.5 -175.5t-175.5 -424.5zM550 1350q0 21 14.5 35.5t35.5 14.5t35.5 -14.5 t14.5 -35.5t-14.5 -35.5t-35.5 -14.5t-35.5 14.5t-14.5 35.5zM750 1350q0 21 14.5 35.5t35.5 14.5t35.5 -14.5t14.5 -35.5t-14.5 -35.5t-35.5 -14.5t-35.5 14.5t-14.5 35.5z" />
<glyph unicode="&#xf8;" d="M0 50q0 21 15 36l156 156q-171 193 -171 458q0 290 205 495t495 205q265 0 459 -171l150 150q2 3 6 7q14 14 35 14t35.5 -14.5t14.5 -35.5t-14 -35q-3 -3 -6 -5l1 -1l-151 -151q170 -194 170 -458q0 -290 -205 -495t-495 -205q-265 0 -458 171l-156 -156q-15 -15 -36 -15 t-35.5 14.5t-14.5 35.5zM100 700q0 -223 141 -388l424 424q3 3 6 5l417 417q-164 142 -388 142q-249 0 -424.5 -175.5t-175.5 -424.5zM312 241q165 -141 388 -141q249 0 424.5 175.5t175.5 424.5q0 223 -141 387l-428 -428v1z" />
<glyph unicode="&#xf9;" d="M0 700v650q0 21 14.5 35.5t35.5 14.5t35.5 -14.5t14.5 -35.5v-650q0 -249 175.5 -424.5t424.5 -175.5t424.5 175.5t175.5 424.5v650q0 21 14.5 35.5t35.5 14.5t35.5 -14.5t14.5 -35.5v-650q0 -290 -205 -495t-495 -205t-495 205t-205 495zM595 1740q-6 20 3.5 38.5 t29.5 24.5t38 -3.5t24 -29.5l61 -190q7 -20 -2.5 -38.5t-29.5 -24.5t-38.5 3.5t-24.5 29.5z" />
<glyph unicode="&#xfa;" d="M0 700v650q0 21 14.5 35.5t35.5 14.5t35.5 -14.5t14.5 -35.5v-650q0 -249 175.5 -424.5t424.5 -175.5t424.5 175.5t175.5 424.5v650q0 21 14.5 35.5t35.5 14.5t35.5 -14.5t14.5 -35.5v-650q0 -290 -205 -495t-495 -205t-495 205t-205 495zM649 1580l61 190q6 20 24 29.5 t38 3.5t29.5 -24.5t3.5 -38.5l-61 -190q-6 -20 -24.5 -29.5t-38.5 -3.5t-29.5 24.5t-2.5 38.5z" />
<glyph unicode="&#xfb;" d="M0 700v650q0 21 14.5 35.5t35.5 14.5t35.5 -14.5t14.5 -35.5v-650q0 -249 175.5 -424.5t424.5 -175.5t424.5 175.5t175.5 424.5v650q0 21 14.5 35.5t35.5 14.5t35.5 -14.5t14.5 -35.5v-650q0 -290 -205 -495t-495 -205t-495 205t-205 495z" />
<glyph unicode="&#xfc;" d="M0 700v650q0 21 14.5 35.5t35.5 14.5t35.5 -14.5t14.5 -35.5v-650q0 -249 175.5 -424.5t424.5 -175.5t424.5 175.5t175.5 424.5v650q0 21 14.5 35.5t35.5 14.5t35.5 -14.5t14.5 -35.5v-650q0 -290 -205 -495t-495 -205t-495 205t-205 495zM550 1760q0 21 14.5 35.5 t35.5 14.5t35.5 -14.5t14.5 -35.5t-14.5 -35.5t-35.5 -14.5t-35.5 14.5t-14.5 35.5zM750 1760q0 21 14.5 35.5t35.5 14.5t35.5 -14.5t14.5 -35.5t-14.5 -35.5t-35.5 -14.5t-35.5 14.5t-14.5 35.5z" />
<glyph unicode="&#xfd;" d="M0 1350q0 21 14.5 35.5t35.5 14.5t36 -14l615 -614l608 608l6 6q14 14 35 14t35.5 -14.5t14.5 -35.5t-14 -35l-6 -6l-630 -630v-629q0 -21 -14.5 -35.5t-35.5 -14.5t-35.5 14.5t-14.5 35.5v630l-629 629q-3 2 -6 6q-15 14 -15 35zM649 1580l61 190q6 20 24 29.5t38 3.5 t29.5 -24.5t3.5 -38.5l-61 -190q-6 -20 -24.5 -29.5t-38.5 -3.5t-29.5 24.5t-2.5 38.5z" />
<glyph unicode="&#xfe;" d="M0 50v1300q0 21 14.5 35.5t35.5 14.5h975q155 0 265 -110t110 -265t-110 -265t-265 -110h-925v-550h1250q21 0 35.5 -14.5t14.5 -35.5t-14.5 -35.5t-35.5 -14.5h-1300q-21 0 -35.5 14.5t-14.5 35.5zM100 750h925q114 0 194.5 80.5t80.5 194.5t-80.5 194.5t-194.5 80.5 h-925v-550z" />
<glyph unicode="&#xff;" d="M0 1350q0 21 14.5 35.5t35.5 14.5t36 -14l615 -614l608 608l6 6q14 14 35 14t35.5 -14.5t14.5 -35.5t-14 -35l-6 -6l-630 -630v-629q0 -21 -14.5 -35.5t-35.5 -14.5t-35.5 14.5t-14.5 35.5v630l-629 629q-3 2 -6 6q-15 14 -15 35zM550 1350q0 21 14.5 35.5t35.5 14.5 t35.5 -14.5t14.5 -35.5t-14.5 -35.5t-35.5 -14.5t-35.5 14.5t-14.5 35.5zM750 1350q0 21 14.5 35.5t35.5 14.5t35.5 -14.5t14.5 -35.5t-14.5 -35.5t-35.5 -14.5t-35.5 14.5t-14.5 35.5z" />
<glyph unicode="&#x2c6;" horiz-adv-x="600" d="M0 1211q0 20 15 35q2 3 5 5l129 129q2 3 6 7q14 14 35 14q17 0 30 -9l6 -5l134 -136l-1 -1q4 -2 7 -5q14 -15 14 -35q0 -21 -14.5 -35.5t-35.5 -14.5t-35 15q-3 2 -6 5l-98 100l-105 -105q-15 -14 -36 -14t-35.5 14.5t-14.5 35.5z" />
<glyph unicode="&#x2000;" horiz-adv-x="905" />
<glyph unicode="&#x2001;" horiz-adv-x="1811" />
<glyph unicode="&#x2002;" horiz-adv-x="905" />
<glyph unicode="&#x2003;" horiz-adv-x="1811" />
<glyph unicode="&#x2004;" horiz-adv-x="603" />
<glyph unicode="&#x2005;" horiz-adv-x="452" />
<glyph unicode="&#x2006;" horiz-adv-x="301" />
<glyph unicode="&#x2007;" horiz-adv-x="301" />
<glyph unicode="&#x2008;" horiz-adv-x="226" />
<glyph unicode="&#x2009;" horiz-adv-x="362" />
<glyph unicode="&#x200a;" horiz-adv-x="100" />
<glyph unicode="&#x2010;" d="M0 700q0 21 14.5 35.5t35.5 14.5h1300q21 0 35.5 -14.5t14.5 -35.5t-14.5 -35.5t-35.5 -14.5h-1300q-21 0 -35.5 14.5t-14.5 35.5z" />
<glyph unicode="&#x2011;" d="M0 700q0 21 14.5 35.5t35.5 14.5h1300q21 0 35.5 -14.5t14.5 -35.5t-14.5 -35.5t-35.5 -14.5h-1300q-21 0 -35.5 14.5t-14.5 35.5z" />
<glyph unicode="&#x2012;" d="M0 700q0 21 14.5 35.5t35.5 14.5h1300q21 0 35.5 -14.5t14.5 -35.5t-14.5 -35.5t-35.5 -14.5h-1300q-21 0 -35.5 14.5t-14.5 35.5z" />
<glyph unicode="&#x2013;" d="M0 700q0 21 14.5 35.5t35.5 14.5h1300q21 0 35.5 -14.5t14.5 -35.5t-14.5 -35.5t-35.5 -14.5h-1300q-21 0 -35.5 14.5t-14.5 35.5z" />
<glyph unicode="&#x2014;" d="M0 700q0 21 14.5 35.5t35.5 14.5h1300q21 0 35.5 -14.5t14.5 -35.5t-14.5 -35.5t-35.5 -14.5h-1300q-21 0 -35.5 14.5t-14.5 35.5z" />
<glyph unicode="&#x2026;" horiz-adv-x="700" d="M0 50q0 21 14.5 35.5t35.5 14.5t35.5 -14.5t14.5 -35.5t-14.5 -35.5t-35.5 -14.5t-35.5 14.5t-14.5 35.5zM200 50q0 21 14.5 35.5t35.5 14.5t35.5 -14.5t14.5 -35.5t-14.5 -35.5t-35.5 -14.5t-35.5 14.5t-14.5 35.5zM400 50q0 21 14.5 35.5t35.5 14.5t35.5 -14.5 t14.5 -35.5t-14.5 -35.5t-35.5 -14.5t-35.5 14.5t-14.5 35.5z" />
<glyph unicode="&#x202f;" horiz-adv-x="362" />
<glyph unicode="&#x205f;" horiz-adv-x="452" />
<glyph unicode="&#x20ac;" d="M0 700q0 290 205 495t495 205h650q21 0 35.5 -14.5t14.5 -35.5t-14.5 -35.5t-35.5 -14.5h-650q-249 0 -424 -175q-101 -101 -144 -225h618q21 0 35.5 -14.5t14.5 -35.5t-14.5 -35.5t-35.5 -14.5h-642q-8 -48 -8 -100t8 -100h642q21 0 35.5 -14.5t14.5 -35.5t-14.5 -35.5 t-35.5 -14.5h-618q43 -124 144 -224q175 -176 424 -176h650q21 0 35.5 -14.5t14.5 -35.5t-14.5 -35.5t-35.5 -14.5h-650q-290 0 -495 205t-205 495z" />
<glyph unicode="&#x25fc;" horiz-adv-x="1400" d="M0 0v1400h1400v-1400h-1400z" />
</font>
</defs>
</svg>
